<svg xmlns="http://www.w3.org/2000/svg" xmlns:xlink="http://www.w3.org/1999/xlink" x="0" y="0" width="861.3333740234375" height="311.3333435058594" style="
        width:861.3333740234375px;
        height:311.3333435058594px;
        background: #FFF;
        fill: none;
">
        <svg xmlns="http://www.w3.org/2000/svg"/>
        
        <svg xmlns="http://www.w3.org/2000/svg" class="role-diagram-draw-area"><g class="shapes-region" style="stroke: black; fill: none;"><g class="composite-shape" data-amt="diagram/shapes/plot" transform="matrix(1,0,0,1,19,10)"><g><g><g class="test-xgi"><line x1="20.608261213945013" y1="0" x2="20.608261213945013" y2="270" fill="none" stroke="#c3c3c3" stroke-width="0.5"/><line x1="146.589900341157" y1="0" x2="146.589900341157" y2="270" fill="none" stroke="#c3c3c3" stroke-width="0.5"/><line x1="272.571539468369" y1="0" x2="272.571539468369" y2="270" fill="none" stroke="#c3c3c3" stroke-width="0.5"/><line x1="398.55317859558096" y1="0" x2="398.55317859558096" y2="270" fill="none" stroke="#c3c3c3" stroke-width="0.5"/><line x1="524.534817722793" y1="0" x2="524.534817722793" y2="270" fill="none" stroke="#c3c3c3" stroke-width="0.5"/><line x1="650.5164568500049" y1="0" x2="650.5164568500049" y2="270" fill="none" stroke="#c3c3c3" stroke-width="0.5"/><line x1="776.498095977217" y1="0" x2="776.498095977217" y2="270" fill="none" stroke="#c3c3c3" stroke-width="0.5"/></g><g class="test-ygi"><line x1="0" y1="217.04699342912375" x2="820" y2="217.04699342912375" fill="none" stroke="#c3c3c3" stroke-width="0.5"/><line x1="0" y1="91.06535430191175" x2="820" y2="91.06535430191175" fill="none" stroke="#c3c3c3" stroke-width="0.5"/></g></g><g><g class="test-xti" style="font-family: Asana-Math, Asana;"><line x1="0" y1="217.04699342912375" x2="816" y2="217.04699342912375" fill="none" stroke="rgb(50,50,50)" stroke-opacity="1" stroke-width="1"/><line x1="20.608261213945013" y1="213.04699342912375" x2="20.608261213945013" y2="221.04699342912375" fill="none" stroke="rgb(50,50,50)" stroke-opacity="1" stroke-width="1"/><line x1="146.589900341157" y1="213.04699342912375" x2="146.589900341157" y2="221.04699342912375" fill="none" stroke="rgb(50,50,50)" stroke-opacity="1" stroke-width="1"/><line x1="272.571539468369" y1="213.04699342912375" x2="272.571539468369" y2="221.04699342912375" fill="none" stroke="rgb(50,50,50)" stroke-opacity="1" stroke-width="1"/><line x1="524.534817722793" y1="213.04699342912375" x2="524.534817722793" y2="221.04699342912375" fill="none" stroke="rgb(50,50,50)" stroke-opacity="1" stroke-width="1"/><line x1="650.5164568500049" y1="213.04699342912375" x2="650.5164568500049" y2="221.04699342912375" fill="none" stroke="rgb(50,50,50)" stroke-opacity="1" stroke-width="1"/><line x1="776.498095977217" y1="213.04699342912375" x2="776.498095977217" y2="221.04699342912375" fill="none" stroke="rgb(50,50,50)" stroke-opacity="1" stroke-width="1"/><path d="M811,213.44699342912375 L819,217.04699342912375 L811,220.64699342912374 Z" stroke="none" stroke-width="1" fill="rgb(50,50,50)" fill-opacity="1"/></g><g class="test-yti" style="font-family: Asana-Math, Asana;"><line x1="398.55317859558096" y1="4" x2="398.55317859558096" y2="270" fill="none" stroke="rgb(50,50,50)" stroke-opacity="1" stroke-width="1"/><line x1="394.55317859558096" y1="91.06535430191175" x2="402.55317859558096" y2="91.06535430191175" fill="none" stroke="rgb(50,50,50)" stroke-opacity="1" stroke-width="1"/><path d="M394.95317859558094,9 L398.55317859558096,1 L402.153178595581,9 Z" stroke="none" stroke-width="1" fill="rgb(50,50,50)" fill-opacity="1"/></g><g class="test-plot-expression"><defs><clipPath id="cp7ta7ylnak"><rect x="1" y="1" width="818" height="268"/></clipPath></defs><g clip-path="url(#cp7ta7ylnak)"><path d=" M0.00,-270.00 L0.75,-270.00 L1.49,-270.00 L2.24,-270.00 L2.98,-270.00 L3.73,-270.00 L4.48,-270.00 L5.22,-270.00 L5.97,-270.00 L6.72,-270.00 L7.46,-270.00 L8.21,-270.00 L8.95,-270.00 L9.70,-270.00 L10.45,-270.00 L11.19,-270.00 L11.94,-270.00 L12.68,-270.00 L13.43,-270.00 L14.18,-270.00 L14.92,-270.00 L15.67,-270.00 L16.41,-270.00 L17.16,-270.00 L17.91,-270.00 L18.65,-270.00 L19.40,-270.00 L20.15,-270.00 L20.89,-270.00 L21.64,-270.00 L22.38,-270.00 L23.13,-270.00 L23.88,-270.00 L24.62,-270.00 L25.37,-270.00 L26.11,-270.00 L26.86,-270.00 L27.61,-270.00 L28.35,-270.00 L29.10,-270.00 L29.85,-270.00 L30.59,-270.00 L31.34,-270.00 L32.08,-270.00 L32.83,-270.00 L33.58,-270.00 L34.32,-270.00 L35.07,-270.00 L35.81,-270.00 L36.56,-270.00 L37.31,-270.00 L38.05,-270.00 L38.80,-270.00 L39.55,-270.00 L40.29,-270.00 L41.04,-270.00 L41.78,-270.00 L42.53,-270.00 L43.28,-270.00 L44.02,-270.00 L44.77,-270.00 L45.51,-270.00 L46.26,-270.00 L47.01,-270.00 L47.75,-270.00 L48.50,-270.00 L49.24,-270.00 L49.99,-270.00 L50.74,-270.00 L51.48,-270.00 L52.23,-270.00 L52.98,-270.00 L53.72,-270.00 L54.47,-270.00 L55.21,-270.00 L55.96,-270.00 L56.71,-270.00 L57.45,-270.00 L58.20,-270.00 L58.94,-270.00 L59.69,-270.00 L60.44,-270.00 L61.18,-270.00 L61.93,-270.00 L62.68,-270.00 L63.42,-270.00 L64.17,-270.00 L64.91,-270.00 L65.66,-270.00 L66.41,-270.00 L67.15,-270.00 L67.90,-270.00 L68.64,-270.00 L69.39,-270.00 L70.14,-270.00 L70.88,-270.00 L71.63,-270.00 L72.37,-270.00 L73.12,-270.00 L73.87,-270.00 L74.61,-270.00 L75.36,-270.00 L76.11,-270.00 L76.85,-270.00 L77.60,-270.00 L78.34,-270.00 L79.09,-270.00 L79.84,-270.00 L80.58,-270.00 L81.33,-270.00 L82.07,-270.00 L82.82,-270.00 L83.57,-270.00 L84.31,-270.00 L85.06,-270.00 L85.81,-270.00 L86.55,-270.00 L87.30,-270.00 L88.04,-270.00 L88.79,-270.00 L89.54,-270.00 L90.28,-270.00 L91.03,-270.00 L91.77,-270.00 L92.52,-270.00 L93.27,-270.00 L94.01,-270.00 L94.76,-270.00 L95.51,-270.00 L96.25,-270.00 L97.00,-270.00 L97.74,-270.00 L98.49,-270.00 L99.24,-270.00 L99.98,-270.00 L100.73,-270.00 L101.47,-270.00 L102.22,-270.00 L102.97,-270.00 L103.71,-270.00 L104.46,-270.00 L105.20,-270.00 L105.95,-270.00 L106.70,-270.00 L107.44,-270.00 L108.19,-270.00 L108.94,-270.00 L109.68,-270.00 L110.43,-270.00 L111.17,-270.00 L111.92,-270.00 L112.67,-270.00 L113.41,-270.00 L114.16,-270.00 L114.90,-270.00 L115.65,-270.00 L116.40,-270.00 L117.14,-270.00 L117.89,-270.00 L118.64,-270.00 L119.38,-270.00 L120.13,-270.00 L120.87,-270.00 L121.62,-270.00 L122.37,-270.00 L123.11,-270.00 L123.86,-270.00 L124.60,-270.00 L125.35,-270.00 L126.10,-270.00 L126.84,-270.00 L127.59,-270.00 L128.33,-270.00 L129.08,-270.00 L129.83,-270.00 L130.57,-270.00 L131.32,-270.00 L132.07,-270.00 L132.81,-270.00 L133.56,-270.00 L134.30,-270.00 L135.05,-270.00 L135.80,-270.00 L136.54,-270.00 L137.29,-270.00 L138.03,-270.00 L138.78,-270.00 L139.53,-270.00 L140.27,-270.00 L141.02,-270.00 L141.77,-270.00 L142.51,-270.00 L143.26,-270.00 L144.00,-270.00 L144.75,-270.00 L145.50,-270.00 L146.24,-270.00 L146.99,-270.00 L147.73,-270.00 L148.48,-270.00 L149.23,-270.00 L149.97,-270.00 L150.72,-270.00 L151.46,-270.00 L152.21,-270.00 L152.96,-270.00 L153.70,-270.00 L154.45,-270.00 L155.20,-270.00 L155.94,-270.00 L156.69,-270.00 L157.43,-270.00 L158.18,-270.00 L158.93,-270.00 L159.67,-267.40 L160.42,-264.58 L161.16,-261.76 L161.91,-258.95 L162.66,-256.16 L163.40,-253.37 L164.15,-250.59 L164.90,-247.81 L165.64,-245.05 L166.39,-242.30 L167.13,-239.55 L167.88,-236.81 L168.63,-234.08 L169.37,-231.37 L170.12,-228.66 L170.86,-225.95 L171.61,-223.26 L172.36,-220.58 L173.10,-217.90 L173.85,-215.24 L174.60,-212.58 L175.34,-209.93 L176.09,-207.29 L176.83,-204.66 L177.58,-202.04 L178.33,-199.43 L179.07,-196.82 L179.82,-194.23 L180.56,-191.64 L181.31,-189.06 L182.06,-186.49 L182.80,-183.93 L183.55,-181.38 L184.29,-178.84 L185.04,-176.31 L185.79,-173.78 L186.53,-171.27 L187.28,-168.76 L188.03,-166.26 L188.77,-163.77 L189.52,-161.29 L190.26,-158.82 L191.01,-156.36 L191.76,-153.90 L192.50,-151.46 L193.25,-149.02 L193.99,-146.59 L194.74,-144.18 L195.49,-141.77 L196.23,-139.36 L196.98,-136.97 L197.73,-134.59 L198.47,-132.21 L199.22,-129.85 L199.96,-127.49 L200.71,-125.14 L201.46,-122.81 L202.20,-120.48 L202.95,-118.15 L203.69,-115.84 L204.44,-113.54 L205.19,-111.24 L205.93,-108.96 L206.68,-106.68 L207.42,-104.41 L208.17,-102.15 L208.92,-99.90 L209.66,-97.66 L210.41,-95.43 L211.16,-93.20 L211.90,-90.99 L212.65,-88.78 L213.39,-86.58 L214.14,-84.39 L214.89,-82.21 L215.63,-80.04 L216.38,-77.88 L217.12,-75.73 L217.87,-73.58 L218.62,-71.45 L219.36,-69.32 L220.11,-67.20 L220.86,-65.09 L221.60,-62.99 L222.35,-60.90 L223.09,-58.82 L223.84,-56.74 L224.59,-54.68 L225.33,-52.62 L226.08,-50.57 L226.82,-48.54 L227.57,-46.51 L228.32,-44.49 L229.06,-42.47 L229.81,-40.47 L230.56,-38.48 L231.30,-36.49 L232.05,-34.51 L232.79,-32.55 L233.54,-30.59 L234.29,-28.64 L235.03,-26.70 L235.78,-24.76 L236.52,-22.84 L237.27,-20.92 L238.02,-19.02 L238.76,-17.12 L239.51,-15.23 L240.25,-13.35 L241.00,-11.48 L241.75,-9.62 L242.49,-7.77 L243.24,-5.92 L243.99,-4.09 L244.73,-2.26 L245.48,-0.44 L246.22,1.36 L246.97,3.16 L247.72,4.96 L248.46,6.74 L249.21,8.51 L249.95,10.28 L250.70,12.03 L251.45,13.78 L252.19,15.52 L252.94,17.25 L253.69,18.97 L254.43,20.68 L255.18,22.38 L255.92,24.07 L256.67,25.76 L257.42,27.44 L258.16,29.10 L258.91,30.76 L259.65,32.41 L260.40,34.05 L261.15,35.68 L261.89,37.31 L262.64,38.92 L263.38,40.53 L264.13,42.12 L264.88,43.71 L265.62,45.29 L266.37,46.86 L267.12,48.42 L267.86,49.97 L268.61,51.52 L269.35,53.05 L270.10,54.58 L270.85,56.10 L271.59,57.60 L272.34,59.10 L273.08,60.59 L273.83,62.08 L274.58,63.55 L275.32,65.01 L276.07,66.47 L276.82,67.91 L277.56,69.35 L278.31,70.78 L279.05,72.20 L279.80,73.61 L280.55,75.01 L281.29,76.41 L282.04,77.79 L282.78,79.17 L283.53,80.53 L284.28,81.89 L285.02,83.24 L285.77,84.58 L286.52,85.91 L287.26,87.24 L288.01,88.55 L288.75,89.86 L289.50,91.15 L290.25,92.44 L290.99,93.72 L291.74,94.99 L292.48,96.25 L293.23,97.50 L293.98,98.74 L294.72,99.98 L295.47,101.20 L296.21,102.42 L296.96,103.63 L297.71,104.83 L298.45,106.02 L299.20,107.20 L299.95,108.37 L300.69,109.53 L301.44,110.69 L302.18,111.83 L302.93,112.97 L303.68,114.10 L304.42,115.22 L305.17,116.33 L305.91,117.43 L306.66,118.52 L307.41,119.61 L308.15,120.68 L308.90,121.75 L309.65,122.81 L310.39,123.86 L311.14,124.90 L311.88,125.93 L312.63,126.95 L313.38,127.96 L314.12,128.97 L314.87,129.96 L315.61,130.95 L316.36,131.93 L317.11,132.90 L317.85,133.86 L318.60,134.81 L319.34,135.75 L320.09,136.68 L320.84,137.61 L321.58,138.53 L322.33,139.43 L323.08,140.33 L323.82,141.22 L324.57,142.10 L325.31,142.97 L326.06,143.84 L326.81,144.69 L327.55,145.54 L328.30,146.37 L329.04,147.20 L329.79,148.02 L330.54,148.83 L331.28,149.63 L332.03,150.42 L332.78,151.21 L333.52,151.98 L334.27,152.75 L335.01,153.51 L335.76,154.25 L336.51,154.99 L337.25,155.72 L338.00,156.44 L338.74,157.16 L339.49,157.86 L340.24,158.56 L340.98,159.24 L341.73,159.92 L342.47,160.59 L343.22,161.25 L343.97,161.90 L344.71,162.54 L345.46,163.18 L346.21,163.80 L346.95,164.42 L347.70,165.02 L348.44,165.62 L349.19,166.21 L349.94,166.79 L350.68,167.36 L351.43,167.92 L352.17,168.48 L352.92,169.02 L353.67,169.56 L354.41,170.09 L355.16,170.60 L355.91,171.11 L356.65,171.62 L357.40,172.11 L358.14,172.59 L358.89,173.06 L359.64,173.53 L360.38,173.99 L361.13,174.43 L361.87,174.87 L362.62,175.30 L363.37,175.72 L364.11,176.14 L364.86,176.54 L365.61,176.93 L366.35,177.32 L367.10,177.70 L367.84,178.07 L368.59,178.43 L369.34,178.78 L370.08,179.12 L370.83,179.45 L371.57,179.77 L372.32,180.09 L373.07,180.40 L373.81,180.69 L374.56,180.98 L375.30,181.26 L376.05,181.53 L376.80,181.79 L377.54,182.05 L378.29,182.29 L379.04,182.53 L379.78,182.75 L380.53,182.97 L381.27,183.18 L382.02,183.38 L382.77,183.57 L383.51,183.76 L384.26,183.93 L385.00,184.09 L385.75,184.25 L386.50,184.40 L387.24,184.54 L387.99,184.67 L388.74,184.79 L389.48,184.90 L390.23,185.00 L390.97,185.10 L391.72,185.18 L392.47,185.26 L393.21,185.33 L393.96,185.38 L394.70,185.43 L395.45,185.48 L396.20,185.51 L396.94,185.53 L397.69,185.55 L398.43,185.55 L399.18,185.55 L399.93,185.54 L400.67,185.52 L401.42,185.49 L402.17,185.45 L402.91,185.40 L403.66,185.34 L404.40,185.28 L405.15,185.21 L405.90,185.12 L406.64,185.03 L407.39,184.93 L408.13,184.82 L408.88,184.70 L409.63,184.58 L410.37,184.44 L411.12,184.30 L411.87,184.14 L412.61,183.98 L413.36,183.81 L414.10,183.63 L414.85,183.44 L415.60,183.25 L416.34,183.04 L417.09,182.82 L417.83,182.60 L418.58,182.37 L419.33,182.13 L420.07,181.88 L420.82,181.62 L421.57,181.35 L422.31,181.07 L423.06,180.79 L423.80,180.49 L424.55,180.19 L425.30,179.87 L426.04,179.55 L426.79,179.22 L427.53,178.88 L428.28,178.54 L429.03,178.18 L429.77,177.82 L430.52,177.44 L431.26,177.06 L432.01,176.67 L432.76,176.27 L433.50,175.86 L434.25,175.44 L435.00,175.01 L435.74,174.57 L436.49,174.13 L437.23,173.68 L437.98,173.21 L438.73,172.74 L439.47,172.26 L440.22,171.77 L440.96,171.27 L441.71,170.77 L442.46,170.25 L443.20,169.73 L443.95,169.19 L444.70,168.65 L445.44,168.10 L446.19,167.54 L446.93,166.97 L447.68,166.39 L448.43,165.81 L449.17,165.21 L449.92,164.61 L450.66,164.00 L451.41,163.37 L452.16,162.74 L452.90,162.10 L453.65,161.46 L454.39,160.80 L455.14,160.13 L455.89,159.46 L456.63,158.78 L457.38,158.08 L458.13,157.38 L458.87,156.67 L459.62,155.95 L460.36,155.23 L461.11,154.49 L461.86,153.74 L462.60,152.99 L463.35,152.23 L464.09,151.45 L464.84,150.67 L465.59,149.88 L466.33,149.09 L467.08,148.28 L467.83,147.46 L468.57,146.64 L469.32,145.80 L470.06,144.96 L470.81,144.11 L471.56,143.25 L472.30,142.38 L473.05,141.50 L473.79,140.61 L474.54,139.72 L475.29,138.81 L476.03,137.90 L476.78,136.98 L477.53,136.05 L478.27,135.11 L479.02,134.16 L479.76,133.20 L480.51,132.24 L481.26,131.26 L482.00,130.28 L482.75,129.28 L483.49,128.28 L484.24,127.27 L484.99,126.25 L485.73,125.22 L486.48,124.19 L487.22,123.14 L487.97,122.09 L488.72,121.02 L489.46,119.95 L490.21,118.87 L490.96,117.78 L491.70,116.68 L492.45,115.57 L493.19,114.46 L493.94,113.33 L494.69,112.20 L495.43,111.05 L496.18,109.90 L496.92,108.74 L497.67,107.57 L498.42,106.39 L499.16,105.20 L499.91,104.01 L500.66,102.80 L501.40,101.59 L502.15,100.37 L502.89,99.13 L503.64,97.89 L504.39,96.65 L505.13,95.39 L505.88,94.12 L506.62,92.84 L507.37,91.56 L508.12,90.27 L508.86,88.96 L509.61,87.65 L510.35,86.33 L511.10,85.01 L511.85,83.67 L512.59,82.32 L513.34,80.97 L514.09,79.60 L514.83,78.23 L515.58,76.85 L516.32,75.46 L517.07,74.06 L517.82,72.65 L518.56,71.23 L519.31,69.81 L520.05,68.37 L520.80,66.93 L521.55,65.47 L522.29,64.01 L523.04,62.54 L523.79,61.06 L524.53,59.58 L525.28,58.08 L526.02,56.57 L526.77,55.06 L527.52,53.54 L528.26,52.01 L529.01,50.46 L529.75,48.91 L530.50,47.36 L531.25,45.79 L531.99,44.21 L532.74,42.63 L533.48,41.03 L534.23,39.43 L534.98,37.82 L535.72,36.20 L536.47,34.57 L537.22,32.93 L537.96,31.28 L538.71,29.63 L539.45,27.96 L540.20,26.29 L540.95,24.61 L541.69,22.92 L542.44,21.22 L543.18,19.51 L543.93,17.79 L544.68,16.07 L545.42,14.33 L546.17,12.59 L546.92,10.83 L547.66,9.07 L548.41,7.30 L549.15,5.52 L549.90,3.73 L550.65,1.94 L551.39,0.13 L552.14,-1.69 L552.88,-3.51 L553.63,-5.34 L554.38,-7.18 L555.12,-9.03 L555.87,-10.89 L556.62,-12.76 L557.36,-14.64 L558.11,-16.52 L558.85,-18.42 L559.60,-20.32 L560.35,-22.23 L561.09,-24.15 L561.84,-26.08 L562.58,-28.02 L563.33,-29.97 L564.08,-31.92 L564.82,-33.89 L565.57,-35.86 L566.31,-37.85 L567.06,-39.84 L567.81,-41.84 L568.55,-43.85 L569.30,-45.87 L570.05,-47.89 L570.79,-49.93 L571.54,-51.97 L572.28,-54.03 L573.03,-56.09 L573.78,-58.16 L574.52,-60.24 L575.27,-62.33 L576.01,-64.43 L576.76,-66.53 L577.51,-68.65 L578.25,-70.77 L579.00,-72.90 L579.75,-75.05 L580.49,-77.20 L581.24,-79.36 L581.98,-81.52 L582.73,-83.70 L583.48,-85.89 L584.22,-88.08 L584.97,-90.29 L585.71,-92.50 L586.46,-94.72 L587.21,-96.95 L587.95,-99.19 L588.70,-101.44 L589.44,-103.69 L590.19,-105.96 L590.94,-108.23 L591.68,-110.52 L592.43,-112.81 L593.18,-115.11 L593.92,-117.42 L594.67,-119.74 L595.41,-122.07 L596.16,-124.40 L596.91,-126.75 L597.65,-129.10 L598.40,-131.46 L599.14,-133.84 L599.89,-136.22 L600.64,-138.61 L601.38,-141.00 L602.13,-143.41 L602.88,-145.83 L603.62,-148.25 L604.37,-150.68 L605.11,-153.13 L605.86,-155.58 L606.61,-158.04 L607.35,-160.51 L608.10,-162.98 L608.84,-165.47 L609.59,-167.97 L610.34,-170.47 L611.08,-172.98 L611.83,-175.51 L612.58,-178.04 L613.32,-180.58 L614.07,-183.12 L614.81,-185.68 L615.56,-188.25 L616.31,-190.82 L617.05,-193.41 L617.80,-196.00 L618.54,-198.60 L619.29,-201.21 L620.04,-203.83 L620.78,-206.46 L621.53,-209.09 L622.27,-211.74 L623.02,-214.39 L623.77,-217.06 L624.51,-219.73 L625.26,-222.41 L626.01,-225.10 L626.75,-227.80 L627.50,-230.51 L628.24,-233.22 L628.99,-235.95 L629.74,-238.68 L630.48,-241.42 L631.23,-244.18 L631.97,-246.94 L632.72,-249.71 L633.47,-252.48 L634.21,-255.27 L634.96,-258.07 L635.71,-260.87 L636.45,-263.68 L637.20,-266.51 L637.94,-269.34 L638.69,-270.00 L639.44,-270.00 L640.18,-270.00 L640.93,-270.00 L641.67,-270.00 L642.42,-270.00 L643.17,-270.00 L643.91,-270.00 L644.66,-270.00 L645.40,-270.00 L646.15,-270.00 L646.90,-270.00 L647.64,-270.00 L648.39,-270.00 L649.14,-270.00 L649.88,-270.00 L650.63,-270.00 L651.37,-270.00 L652.12,-270.00 L652.87,-270.00 L653.61,-270.00 L654.36,-270.00 L655.10,-270.00 L655.85,-270.00 L656.60,-270.00 L657.34,-270.00 L658.09,-270.00 L658.84,-270.00 L659.58,-270.00 L660.33,-270.00 L661.07,-270.00 L661.82,-270.00 L662.57,-270.00 L663.31,-270.00 L664.06,-270.00 L664.80,-270.00 L665.55,-270.00 L666.30,-270.00 L667.04,-270.00 L667.79,-270.00 L668.54,-270.00 L669.28,-270.00 L670.03,-270.00 L670.77,-270.00 L671.52,-270.00 L672.27,-270.00 L673.01,-270.00 L673.76,-270.00 L674.50,-270.00 L675.25,-270.00 L676.00,-270.00 L676.74,-270.00 L677.49,-270.00 L678.23,-270.00 L678.98,-270.00 L679.73,-270.00 L680.47,-270.00 L681.22,-270.00 L681.97,-270.00 L682.71,-270.00 L683.46,-270.00 L684.20,-270.00 L684.95,-270.00 L685.70,-270.00 L686.44,-270.00 L687.19,-270.00 L687.93,-270.00 L688.68,-270.00 L689.43,-270.00 L690.17,-270.00 L690.92,-270.00 L691.67,-270.00 L692.41,-270.00 L693.16,-270.00 L693.90,-270.00 L694.65,-270.00 L695.40,-270.00 L696.14,-270.00 L696.89,-270.00 L697.63,-270.00 L698.38,-270.00 L699.13,-270.00 L699.87,-270.00 L700.62,-270.00 L701.36,-270.00 L702.11,-270.00 L702.86,-270.00 L703.60,-270.00 L704.35,-270.00 L705.10,-270.00 L705.84,-270.00 L706.59,-270.00 L707.33,-270.00 L708.08,-270.00 L708.83,-270.00 L709.57,-270.00 L710.32,-270.00 L711.06,-270.00 L711.81,-270.00 L712.56,-270.00 L713.30,-270.00 L714.05,-270.00 L714.80,-270.00 L715.54,-270.00 L716.29,-270.00 L717.03,-270.00 L717.78,-270.00 L718.53,-270.00 L719.27,-270.00 L720.02,-270.00 L720.76,-270.00 L721.51,-270.00 L722.26,-270.00 L723.00,-270.00 L723.75,-270.00 L724.49,-270.00 L725.24,-270.00 L725.99,-270.00 L726.73,-270.00 L727.48,-270.00 L728.23,-270.00 L728.97,-270.00 L729.72,-270.00 L730.46,-270.00 L731.21,-270.00 L731.96,-270.00 L732.70,-270.00 L733.45,-270.00 L734.19,-270.00 L734.94,-270.00 L735.69,-270.00 L736.43,-270.00 L737.18,-270.00 L737.93,-270.00 L738.67,-270.00 L739.42,-270.00 L740.16,-270.00 L740.91,-270.00 L741.66,-270.00 L742.40,-270.00 L743.15,-270.00 L743.89,-270.00 L744.64,-270.00 L745.39,-270.00 L746.13,-270.00 L746.88,-270.00 L747.63,-270.00 L748.37,-270.00 L749.12,-270.00 L749.86,-270.00 L750.61,-270.00 L751.36,-270.00 L752.10,-270.00 L752.85,-270.00 L753.59,-270.00 L754.34,-270.00 L755.09,-270.00 L755.83,-270.00 L756.58,-270.00 L757.32,-270.00 L758.07,-270.00 L758.82,-270.00 L759.56,-270.00 L760.31,-270.00 L761.06,-270.00 L761.80,-270.00 L762.55,-270.00 L763.29,-270.00 L764.04,-270.00 L764.79,-270.00 L765.53,-270.00 L766.28,-270.00 L767.02,-270.00 L767.77,-270.00 L768.52,-270.00 L769.26,-270.00 L770.01,-270.00 L770.76,-270.00 L771.50,-270.00 L772.25,-270.00 L772.99,-270.00 L773.74,-270.00 L774.49,-270.00 L775.23,-270.00 L775.98,-270.00 L776.72,-270.00 L777.47,-270.00 L778.22,-270.00 L778.96,-270.00 L779.71,-270.00 L780.45,-270.00 L781.20,-270.00 L781.95,-270.00 L782.69,-270.00 L783.44,-270.00 L784.19,-270.00 L784.93,-270.00 L785.68,-270.00 L786.42,-270.00 L787.17,-270.00 L787.92,-270.00 L788.66,-270.00 L789.41,-270.00 L790.15,-270.00 L790.90,-270.00 L791.65,-270.00 L792.39,-270.00 L793.14,-270.00 L793.89,-270.00 L794.63,-270.00 L795.38,-270.00 L796.12,-270.00 L796.87,-270.00 L797.62,-270.00 L798.36,-270.00 L799.11,-270.00 L799.85,-270.00 L800.60,-270.00 L801.35,-270.00 L802.09,-270.00 L802.84,-270.00 L803.59,-270.00 L804.33,-270.00 L805.08,-270.00 L805.82,-270.00 L806.57,-270.00 L807.32,-270.00 L808.06,-270.00 L808.81,-270.00 L809.55,-270.00 L810.30,-270.00 L811.05,-270.00 L811.79,-270.00 L812.54,-270.00 L813.28,-270.00 L814.03,-270.00 L814.78,-270.00 L815.52,-270.00 L816.27,-270.00 L817.02,-270.00 L817.76,-270.00 L818.51,-270.00 L819.25,-270.00 L820.00,-270.00" style="stroke-width: 2; stroke: rgb(74, 144, 226); stroke-opacity: 0.8;"/><path d=" M0.00,540.00 L0.75,540.00 L1.49,540.00 L2.24,540.00 L2.98,540.00 L3.73,540.00 L4.48,540.00 L5.22,540.00 L5.97,540.00 L6.72,540.00 L7.46,540.00 L8.21,540.00 L8.95,540.00 L9.70,540.00 L10.45,540.00 L11.19,540.00 L11.94,540.00 L12.68,540.00 L13.43,540.00 L14.18,540.00 L14.92,540.00 L15.67,540.00 L16.41,540.00 L17.16,540.00 L17.91,540.00 L18.65,540.00 L19.40,540.00 L20.15,540.00 L20.89,540.00 L21.64,540.00 L22.38,540.00 L23.13,540.00 L23.88,540.00 L24.62,540.00 L25.37,540.00 L26.11,540.00 L26.86,540.00 L27.61,540.00 L28.35,540.00 L29.10,540.00 L29.85,540.00 L30.59,540.00 L31.34,540.00 L32.08,540.00 L32.83,540.00 L33.58,540.00 L34.32,540.00 L35.07,540.00 L35.81,540.00 L36.56,540.00 L37.31,540.00 L38.05,540.00 L38.80,540.00 L39.55,540.00 L40.29,540.00 L41.04,540.00 L41.78,540.00 L42.53,540.00 L43.28,540.00 L44.02,540.00 L44.77,540.00 L45.51,540.00 L46.26,540.00 L47.01,540.00 L47.75,540.00 L48.50,540.00 L49.24,540.00 L49.99,540.00 L50.74,540.00 L51.48,540.00 L52.23,540.00 L52.98,540.00 L53.72,540.00 L54.47,540.00 L55.21,540.00 L55.96,540.00 L56.71,540.00 L57.45,540.00 L58.20,540.00 L58.94,540.00 L59.69,540.00 L60.44,540.00 L61.18,540.00 L61.93,540.00 L62.68,540.00 L63.42,540.00 L64.17,540.00 L64.91,540.00 L65.66,540.00 L66.41,540.00 L67.15,540.00 L67.90,540.00 L68.64,540.00 L69.39,540.00 L70.14,540.00 L70.88,540.00 L71.63,540.00 L72.37,540.00 L73.12,540.00 L73.87,540.00 L74.61,540.00 L75.36,540.00 L76.11,539.49 L76.85,538.75 L77.60,538.00 L78.34,537.26 L79.09,536.51 L79.84,535.76 L80.58,535.02 L81.33,534.27 L82.07,533.53 L82.82,532.78 L83.57,532.03 L84.31,531.29 L85.06,530.54 L85.81,529.79 L86.55,529.05 L87.30,528.30 L88.04,527.56 L88.79,526.81 L89.54,526.06 L90.28,525.32 L91.03,524.57 L91.77,523.83 L92.52,523.08 L93.27,522.33 L94.01,521.59 L94.76,520.84 L95.51,520.10 L96.25,519.35 L97.00,518.60 L97.74,517.86 L98.49,517.11 L99.24,516.36 L99.98,515.62 L100.73,514.87 L101.47,514.13 L102.22,513.38 L102.97,512.63 L103.71,511.89 L104.46,511.14 L105.20,510.40 L105.95,509.65 L106.70,508.90 L107.44,508.16 L108.19,507.41 L108.94,506.66 L109.68,505.92 L110.43,505.17 L111.17,504.43 L111.92,503.68 L112.67,502.93 L113.41,502.19 L114.16,501.44 L114.90,500.70 L115.65,499.95 L116.40,499.20 L117.14,498.46 L117.89,497.71 L118.64,496.97 L119.38,496.22 L120.13,495.47 L120.87,494.73 L121.62,493.98 L122.37,493.23 L123.11,492.49 L123.86,491.74 L124.60,491.00 L125.35,490.25 L126.10,489.50 L126.84,488.76 L127.59,488.01 L128.33,487.27 L129.08,486.52 L129.83,485.77 L130.57,485.03 L131.32,484.28 L132.07,483.53 L132.81,482.79 L133.56,482.04 L134.30,481.30 L135.05,480.55 L135.80,479.80 L136.54,479.06 L137.29,478.31 L138.03,477.57 L138.78,476.82 L139.53,476.07 L140.27,475.33 L141.02,474.58 L141.77,473.83 L142.51,473.09 L143.26,472.34 L144.00,471.60 L144.75,470.85 L145.50,470.10 L146.24,469.36 L146.99,468.61 L147.73,467.87 L148.48,467.12 L149.23,466.37 L149.97,465.63 L150.72,464.88 L151.46,464.14 L152.21,463.39 L152.96,462.64 L153.70,461.90 L154.45,461.15 L155.20,460.40 L155.94,459.66 L156.69,458.91 L157.43,458.17 L158.18,457.42 L158.93,456.67 L159.67,455.93 L160.42,455.18 L161.16,454.44 L161.91,453.69 L162.66,452.94 L163.40,452.20 L164.15,451.45 L164.90,450.70 L165.64,449.96 L166.39,449.21 L167.13,448.47 L167.88,447.72 L168.63,446.97 L169.37,446.23 L170.12,445.48 L170.86,444.74 L171.61,443.99 L172.36,443.24 L173.10,442.50 L173.85,441.75 L174.60,441.01 L175.34,440.26 L176.09,439.51 L176.83,438.77 L177.58,438.02 L178.33,437.27 L179.07,436.53 L179.82,435.78 L180.56,435.04 L181.31,434.29 L182.06,433.54 L182.80,432.80 L183.55,432.05 L184.29,431.31 L185.04,430.56 L185.79,429.81 L186.53,429.07 L187.28,428.32 L188.03,427.57 L188.77,426.83 L189.52,426.08 L190.26,425.34 L191.01,424.59 L191.76,423.84 L192.50,423.10 L193.25,422.35 L193.99,421.61 L194.74,420.86 L195.49,420.11 L196.23,419.37 L196.98,418.62 L197.73,417.87 L198.47,417.13 L199.22,416.38 L199.96,415.64 L200.71,414.89 L201.46,414.14 L202.20,413.40 L202.95,412.65 L203.69,411.91 L204.44,411.16 L205.19,410.41 L205.93,409.67 L206.68,408.92 L207.42,408.18 L208.17,407.43 L208.92,406.68 L209.66,405.94 L210.41,405.19 L211.16,404.44 L211.90,403.70 L212.65,402.95 L213.39,402.21 L214.14,401.46 L214.89,400.71 L215.63,399.97 L216.38,399.22 L217.12,398.48 L217.87,397.73 L218.62,396.98 L219.36,396.24 L220.11,395.49 L220.86,394.74 L221.60,394.00 L222.35,393.25 L223.09,392.51 L223.84,391.76 L224.59,391.01 L225.33,390.27 L226.08,389.52 L226.82,388.78 L227.57,388.03 L228.32,387.28 L229.06,386.54 L229.81,385.79 L230.56,385.05 L231.30,384.30 L232.05,383.55 L232.79,382.81 L233.54,382.06 L234.29,381.31 L235.03,380.57 L235.78,379.82 L236.52,379.08 L237.27,378.33 L238.02,377.58 L238.76,376.84 L239.51,376.09 L240.25,375.35 L241.00,374.60 L241.75,373.85 L242.49,373.11 L243.24,372.36 L243.99,371.61 L244.73,370.87 L245.48,370.12 L246.22,369.38 L246.97,368.63 L247.72,367.88 L248.46,367.14 L249.21,366.39 L249.95,365.65 L250.70,364.90 L251.45,364.15 L252.19,363.41 L252.94,362.66 L253.69,361.92 L254.43,361.17 L255.18,360.42 L255.92,359.68 L256.67,358.93 L257.42,358.18 L258.16,357.44 L258.91,356.69 L259.65,355.95 L260.40,355.20 L261.15,354.45 L261.89,353.71 L262.64,352.96 L263.38,352.22 L264.13,351.47 L264.88,350.72 L265.62,349.98 L266.37,349.23 L267.12,348.48 L267.86,347.74 L268.61,346.99 L269.35,346.25 L270.10,345.50 L270.85,344.75 L271.59,344.01 L272.34,343.26 L273.08,342.52 L273.83,341.77 L274.58,341.02 L275.32,340.28 L276.07,339.53 L276.82,338.78 L277.56,338.04 L278.31,337.29 L279.05,336.55 L279.80,335.80 L280.55,335.05 L281.29,334.31 L282.04,333.56 L282.78,332.82 L283.53,332.07 L284.28,331.32 L285.02,330.58 L285.77,329.83 L286.52,329.09 L287.26,328.34 L288.01,327.59 L288.75,326.85 L289.50,326.10 L290.25,325.35 L290.99,324.61 L291.74,323.86 L292.48,323.12 L293.23,322.37 L293.98,321.62 L294.72,320.88 L295.47,320.13 L296.21,319.39 L296.96,318.64 L297.71,317.89 L298.45,317.15 L299.20,316.40 L299.95,315.65 L300.69,314.91 L301.44,314.16 L302.18,313.42 L302.93,312.67 L303.68,311.92 L304.42,311.18 L305.17,310.43 L305.91,309.69 L306.66,308.94 L307.41,308.19 L308.15,307.45 L308.90,306.70 L309.65,305.96 L310.39,305.21 L311.14,304.46 L311.88,303.72 L312.63,302.97 L313.38,302.22 L314.12,301.48 L314.87,300.73 L315.61,299.99 L316.36,299.24 L317.11,298.49 L317.85,297.75 L318.60,297.00 L319.34,296.26 L320.09,295.51 L320.84,294.76 L321.58,294.02 L322.33,293.27 L323.08,292.52 L323.82,291.78 L324.57,291.03 L325.31,290.29 L326.06,289.54 L326.81,288.79 L327.55,288.05 L328.30,287.30 L329.04,286.56 L329.79,285.81 L330.54,285.06 L331.28,284.32 L332.03,283.57 L332.78,282.82 L333.52,282.08 L334.27,281.33 L335.01,280.59 L335.76,279.84 L336.51,279.09 L337.25,278.35 L338.00,277.60 L338.74,276.86 L339.49,276.11 L340.24,275.36 L340.98,274.62 L341.73,273.87 L342.47,273.13 L343.22,272.38 L343.97,271.63 L344.71,270.89 L345.46,270.14 L346.21,269.39 L346.95,268.65 L347.70,267.90 L348.44,267.16 L349.19,266.41 L349.94,265.66 L350.68,264.92 L351.43,264.17 L352.17,263.43 L352.92,262.68 L353.67,261.93 L354.41,261.19 L355.16,260.44 L355.91,259.69 L356.65,258.95 L357.40,258.20 L358.14,257.46 L358.89,256.71 L359.64,255.96 L360.38,255.22 L361.13,254.47 L361.87,253.73 L362.62,252.98 L363.37,252.23 L364.11,251.49 L364.86,250.74 L365.61,250.00 L366.35,249.25 L367.10,248.50 L367.84,247.76 L368.59,247.01 L369.34,246.26 L370.08,245.52 L370.83,244.77 L371.57,244.03 L372.32,243.28 L373.07,242.53 L373.81,241.79 L374.56,241.04 L375.30,240.30 L376.05,239.55 L376.80,238.80 L377.54,238.06 L378.29,237.31 L379.04,236.56 L379.78,235.82 L380.53,235.07 L381.27,234.33 L382.02,233.58 L382.77,232.83 L383.51,232.09 L384.26,231.34 L385.00,230.60 L385.75,229.85 L386.50,229.10 L387.24,228.36 L387.99,227.61 L388.74,226.86 L389.48,226.12 L390.23,225.37 L390.97,224.63 L391.72,223.88 L392.47,223.13 L393.21,222.39 L393.96,221.64 L394.70,220.90 L395.45,220.15 L396.20,219.40 L396.94,218.66 L397.69,217.91 L398.43,217.17 L399.18,216.42 L399.93,215.67 L400.67,214.93 L401.42,214.18 L402.17,213.43 L402.91,212.69 L403.66,211.94 L404.40,211.20 L405.15,210.45 L405.90,209.70 L406.64,208.96 L407.39,208.21 L408.13,207.47 L408.88,206.72 L409.63,205.97 L410.37,205.23 L411.12,204.48 L411.87,203.73 L412.61,202.99 L413.36,202.24 L414.10,201.50 L414.85,200.75 L415.60,200.00 L416.34,199.26 L417.09,198.51 L417.83,197.77 L418.58,197.02 L419.33,196.27 L420.07,195.53 L420.82,194.78 L421.57,194.04 L422.31,193.29 L423.06,192.54 L423.80,191.80 L424.55,191.05 L425.30,190.30 L426.04,189.56 L426.79,188.81 L427.53,188.07 L428.28,187.32 L429.03,186.57 L429.77,185.83 L430.52,185.08 L431.26,184.34 L432.01,183.59 L432.76,182.84 L433.50,182.10 L434.25,181.35 L435.00,180.60 L435.74,179.86 L436.49,179.11 L437.23,178.37 L437.98,177.62 L438.73,176.87 L439.47,176.13 L440.22,175.38 L440.96,174.64 L441.71,173.89 L442.46,173.14 L443.20,172.40 L443.95,171.65 L444.70,170.90 L445.44,170.16 L446.19,169.41 L446.93,168.67 L447.68,167.92 L448.43,167.17 L449.17,166.43 L449.92,165.68 L450.66,164.94 L451.41,164.19 L452.16,163.44 L452.90,162.70 L453.65,161.95 L454.39,161.21 L455.14,160.46 L455.89,159.71 L456.63,158.97 L457.38,158.22 L458.13,157.47 L458.87,156.73 L459.62,155.98 L460.36,155.24 L461.11,154.49 L461.86,153.74 L462.60,153.00 L463.35,152.25 L464.09,151.51 L464.84,150.76 L465.59,150.01 L466.33,149.27 L467.08,148.52 L467.83,147.77 L468.57,147.03 L469.32,146.28 L470.06,145.54 L470.81,144.79 L471.56,144.04 L472.30,143.30 L473.05,142.55 L473.79,141.81 L474.54,141.06 L475.29,140.31 L476.03,139.57 L476.78,138.82 L477.53,138.08 L478.27,137.33 L479.02,136.58 L479.76,135.84 L480.51,135.09 L481.26,134.34 L482.00,133.60 L482.75,132.85 L483.49,132.11 L484.24,131.36 L484.99,130.61 L485.73,129.87 L486.48,129.12 L487.22,128.38 L487.97,127.63 L488.72,126.88 L489.46,126.14 L490.21,125.39 L490.96,124.64 L491.70,123.90 L492.45,123.15 L493.19,122.41 L493.94,121.66 L494.69,120.91 L495.43,120.17 L496.18,119.42 L496.92,118.68 L497.67,117.93 L498.42,117.18 L499.16,116.44 L499.91,115.69 L500.66,114.95 L501.40,114.20 L502.15,113.45 L502.89,112.71 L503.64,111.96 L504.39,111.21 L505.13,110.47 L505.88,109.72 L506.62,108.98 L507.37,108.23 L508.12,107.48 L508.86,106.74 L509.61,105.99 L510.35,105.25 L511.10,104.50 L511.85,103.75 L512.59,103.01 L513.34,102.26 L514.09,101.51 L514.83,100.77 L515.58,100.02 L516.32,99.28 L517.07,98.53 L517.82,97.78 L518.56,97.04 L519.31,96.29 L520.05,95.55 L520.80,94.80 L521.55,94.05 L522.29,93.31 L523.04,92.56 L523.79,91.81 L524.53,91.07 L525.28,90.32 L526.02,89.58 L526.77,88.83 L527.52,88.08 L528.26,87.34 L529.01,86.59 L529.75,85.85 L530.50,85.10 L531.25,84.35 L531.99,83.61 L532.74,82.86 L533.48,82.12 L534.23,81.37 L534.98,80.62 L535.72,79.88 L536.47,79.13 L537.22,78.38 L537.96,77.64 L538.71,76.89 L539.45,76.15 L540.20,75.40 L540.95,74.65 L541.69,73.91 L542.44,73.16 L543.18,72.42 L543.93,71.67 L544.68,70.92 L545.42,70.18 L546.17,69.43 L546.92,68.68 L547.66,67.94 L548.41,67.19 L549.15,66.45 L549.90,65.70 L550.65,64.95 L551.39,64.21 L552.14,63.46 L552.88,62.72 L553.63,61.97 L554.38,61.22 L555.12,60.48 L555.87,59.73 L556.62,58.99 L557.36,58.24 L558.11,57.49 L558.85,56.75 L559.60,56.00 L560.35,55.25 L561.09,54.51 L561.84,53.76 L562.58,53.02 L563.33,52.27 L564.08,51.52 L564.82,50.78 L565.57,50.03 L566.31,49.29 L567.06,48.54 L567.81,47.79 L568.55,47.05 L569.30,46.30 L570.05,45.55 L570.79,44.81 L571.54,44.06 L572.28,43.32 L573.03,42.57 L573.78,41.82 L574.52,41.08 L575.27,40.33 L576.01,39.59 L576.76,38.84 L577.51,38.09 L578.25,37.35 L579.00,36.60 L579.75,35.85 L580.49,35.11 L581.24,34.36 L581.98,33.62 L582.73,32.87 L583.48,32.12 L584.22,31.38 L584.97,30.63 L585.71,29.89 L586.46,29.14 L587.21,28.39 L587.95,27.65 L588.70,26.90 L589.44,26.16 L590.19,25.41 L590.94,24.66 L591.68,23.92 L592.43,23.17 L593.18,22.42 L593.92,21.68 L594.67,20.93 L595.41,20.19 L596.16,19.44 L596.91,18.69 L597.65,17.95 L598.40,17.20 L599.14,16.46 L599.89,15.71 L600.64,14.96 L601.38,14.22 L602.13,13.47 L602.88,12.72 L603.62,11.98 L604.37,11.23 L605.11,10.49 L605.86,9.74 L606.61,8.99 L607.35,8.25 L608.10,7.50 L608.84,6.76 L609.59,6.01 L610.34,5.26 L611.08,4.52 L611.83,3.77 L612.58,3.03 L613.32,2.28 L614.07,1.53 L614.81,0.79 L615.56,0.04 L616.31,-0.71 L617.05,-1.45 L617.80,-2.20 L618.54,-2.94 L619.29,-3.69 L620.04,-4.44 L620.78,-5.18 L621.53,-5.93 L622.27,-6.67 L623.02,-7.42 L623.77,-8.17 L624.51,-8.91 L625.26,-9.66 L626.01,-10.41 L626.75,-11.15 L627.50,-11.90 L628.24,-12.64 L628.99,-13.39 L629.74,-14.14 L630.48,-14.88 L631.23,-15.63 L631.97,-16.37 L632.72,-17.12 L633.47,-17.87 L634.21,-18.61 L634.96,-19.36 L635.71,-20.11 L636.45,-20.85 L637.20,-21.60 L637.94,-22.34 L638.69,-23.09 L639.44,-23.84 L640.18,-24.58 L640.93,-25.33 L641.67,-26.07 L642.42,-26.82 L643.17,-27.57 L643.91,-28.31 L644.66,-29.06 L645.40,-29.80 L646.15,-30.55 L646.90,-31.30 L647.64,-32.04 L648.39,-32.79 L649.14,-33.54 L649.88,-34.28 L650.63,-35.03 L651.37,-35.77 L652.12,-36.52 L652.87,-37.27 L653.61,-38.01 L654.36,-38.76 L655.10,-39.50 L655.85,-40.25 L656.60,-41.00 L657.34,-41.74 L658.09,-42.49 L658.84,-43.24 L659.58,-43.98 L660.33,-44.73 L661.07,-45.47 L661.82,-46.22 L662.57,-46.97 L663.31,-47.71 L664.06,-48.46 L664.80,-49.20 L665.55,-49.95 L666.30,-50.70 L667.04,-51.44 L667.79,-52.19 L668.54,-52.93 L669.28,-53.68 L670.03,-54.43 L670.77,-55.17 L671.52,-55.92 L672.27,-56.67 L673.01,-57.41 L673.76,-58.16 L674.50,-58.90 L675.25,-59.65 L676.00,-60.40 L676.74,-61.14 L677.49,-61.89 L678.23,-62.63 L678.98,-63.38 L679.73,-64.13 L680.47,-64.87 L681.22,-65.62 L681.97,-66.37 L682.71,-67.11 L683.46,-67.86 L684.20,-68.60 L684.95,-69.35 L685.70,-70.10 L686.44,-70.84 L687.19,-71.59 L687.93,-72.33 L688.68,-73.08 L689.43,-73.83 L690.17,-74.57 L690.92,-75.32 L691.67,-76.06 L692.41,-76.81 L693.16,-77.56 L693.90,-78.30 L694.65,-79.05 L695.40,-79.80 L696.14,-80.54 L696.89,-81.29 L697.63,-82.03 L698.38,-82.78 L699.13,-83.53 L699.87,-84.27 L700.62,-85.02 L701.36,-85.76 L702.11,-86.51 L702.86,-87.26 L703.60,-88.00 L704.35,-88.75 L705.10,-89.50 L705.84,-90.24 L706.59,-90.99 L707.33,-91.73 L708.08,-92.48 L708.83,-93.23 L709.57,-93.97 L710.32,-94.72 L711.06,-95.46 L711.81,-96.21 L712.56,-96.96 L713.30,-97.70 L714.05,-98.45 L714.80,-99.20 L715.54,-99.94 L716.29,-100.69 L717.03,-101.43 L717.78,-102.18 L718.53,-102.93 L719.27,-103.67 L720.02,-104.42 L720.76,-105.16 L721.51,-105.91 L722.26,-106.66 L723.00,-107.40 L723.75,-108.15 L724.49,-108.89 L725.24,-109.64 L725.99,-110.39 L726.73,-111.13 L727.48,-111.88 L728.23,-112.63 L728.97,-113.37 L729.72,-114.12 L730.46,-114.86 L731.21,-115.61 L731.96,-116.36 L732.70,-117.10 L733.45,-117.85 L734.19,-118.59 L734.94,-119.34 L735.69,-120.09 L736.43,-120.83 L737.18,-121.58 L737.93,-122.33 L738.67,-123.07 L739.42,-123.82 L740.16,-124.56 L740.91,-125.31 L741.66,-126.06 L742.40,-126.80 L743.15,-127.55 L743.89,-128.29 L744.64,-129.04 L745.39,-129.79 L746.13,-130.53 L746.88,-131.28 L747.63,-132.02 L748.37,-132.77 L749.12,-133.52 L749.86,-134.26 L750.61,-135.01 L751.36,-135.76 L752.10,-136.50 L752.85,-137.25 L753.59,-137.99 L754.34,-138.74 L755.09,-139.49 L755.83,-140.23 L756.58,-140.98 L757.32,-141.72 L758.07,-142.47 L758.82,-143.22 L759.56,-143.96 L760.31,-144.71 L761.06,-145.46 L761.80,-146.20 L762.55,-146.95 L763.29,-147.69 L764.04,-148.44 L764.79,-149.19 L765.53,-149.93 L766.28,-150.68 L767.02,-151.42 L767.77,-152.17 L768.52,-152.92 L769.26,-153.66 L770.01,-154.41 L770.76,-155.16 L771.50,-155.90 L772.25,-156.65 L772.99,-157.39 L773.74,-158.14 L774.49,-158.89 L775.23,-159.63 L775.98,-160.38 L776.72,-161.12 L777.47,-161.87 L778.22,-162.62 L778.96,-163.36 L779.71,-164.11 L780.45,-164.85 L781.20,-165.60 L781.95,-166.35 L782.69,-167.09 L783.44,-167.84 L784.19,-168.59 L784.93,-169.33 L785.68,-170.08 L786.42,-170.82 L787.17,-171.57 L787.92,-172.32 L788.66,-173.06 L789.41,-173.81 L790.15,-174.55 L790.90,-175.30 L791.65,-176.05 L792.39,-176.79 L793.14,-177.54 L793.89,-178.29 L794.63,-179.03 L795.38,-179.78 L796.12,-180.52 L796.87,-181.27 L797.62,-182.02 L798.36,-182.76 L799.11,-183.51 L799.85,-184.25 L800.60,-185.00 L801.35,-185.75 L802.09,-186.49 L802.84,-187.24 L803.59,-187.98 L804.33,-188.73 L805.08,-189.48 L805.82,-190.22 L806.57,-190.97 L807.32,-191.72 L808.06,-192.46 L808.81,-193.21 L809.55,-193.95 L810.30,-194.70 L811.05,-195.45 L811.79,-196.19 L812.54,-196.94 L813.28,-197.68 L814.03,-198.43 L814.78,-199.18 L815.52,-199.92 L816.27,-200.67 L817.02,-201.42 L817.76,-202.16 L818.51,-202.91 L819.25,-203.65 L820.00,-204.40" style="stroke-width: 2; stroke: rgb(60, 180, 75); stroke-opacity: 0.8;"/></g></g><g class="test-xtl" style="font-family: &quot;Open Sans&quot;, verdana, arial, sans-serif;"><text text-anchor="middle" font-size="11" dominant-baseline="hanging" stroke="none" fill="rgb(50,50,50)" fill-opacity="1" x="17.473261213945015" y="224.04699342912375">-3</text><text text-anchor="middle" font-size="11" dominant-baseline="hanging" stroke="none" fill="rgb(50,50,50)" fill-opacity="1" x="143.454900341157" y="224.04699342912375">-2</text><text text-anchor="middle" font-size="11" dominant-baseline="hanging" stroke="none" fill="rgb(50,50,50)" fill-opacity="1" x="269.436539468369" y="224.04699342912375">-1</text><text text-anchor="middle" font-size="11" dominant-baseline="hanging" stroke="none" fill="rgb(50,50,50)" fill-opacity="1" x="524.534817722793" y="224.04699342912375">1</text><text text-anchor="middle" font-size="11" dominant-baseline="hanging" stroke="none" fill="rgb(50,50,50)" fill-opacity="1" x="650.5164568500049" y="224.04699342912375">2</text><text text-anchor="middle" font-size="11" dominant-baseline="hanging" stroke="none" fill="rgb(50,50,50)" fill-opacity="1" x="776.498095977217" y="224.04699342912375">3</text><text text-anchor="middle" font-size="11" dominant-baseline="hanging" stroke="none" fill="rgb(50,50,50)" fill-opacity="1" x="390.55317859558096" y="222.04699342912375">0</text></g><g class="test-ytl" style="font-family: &quot;Open Sans&quot;, verdana, arial, sans-serif;"><text text-anchor="end" dominant-baseline="middle" font-size="11" stroke="none" fill="rgb(50,50,50)" fill-opacity="1" x="390.55317859558096" y="91.06535430191175">1</text></g><rect class="real" x="1" y="1" width="818" height="268" style="fill: transparent; stroke: none;"/></g></g></g><g/></g><g/><g/><g/></svg>
        <svg xmlns="http://www.w3.org/2000/svg" xmlns:xlink="http://www.w3.org/1999/xlink" width="860" height="310" style="width:860px;height:310px;font-family:ThickerLm-Math, ThickerLm, Asana-Math, Asana;background:#FFF;"><g><g><g><g transform="matrix(1,0,0,1,135.6666717529297,63.00001525878906)"><path transform="matrix(0.025,0,0,-0.025,0,0)" d="M148 -88C148 -53 116 -48 106 -48C81 -48 46 -66 46 -118C46 -171 92 -210 156 -210C262 -210 366 -117 394 -2L490 380C494 394 494 397 494 404C494 425 478 436 461 436C449 436 432 429 422 412C419 407 412 375 408 357C386 270 365 184 343 97C339 83 297 16 234 16C187 16 176 55 176 92C176 137 193 198 227 286C243 327 248 339 248 360C248 407 214 446 161 446C61 446 24 298 24 288C24 273 41 274 41 274C53 274 56 279 61 295C88 389 127 416 158 416C165 416 178 417 178 388C178 364 169 339 162 320C122 214 104 156 104 108C104 16 170 -16 230 -16C265 -16 297 -2 323 20C311 -26 298 -70 262 -117C236 -150 200 -178 156 -178C143 -178 106 -176 87 -145C118 -144 148 -124 148 -88Z" stroke="rgb(0,0,0)" stroke-opacity="1" stroke-width="8" fill="rgb(0,0,0)" fill-opacity="1"></path></g></g><g><g transform="matrix(1,0,0,1,155.4166717529297,63.00001525878906)"><path transform="matrix(0.025,0,0,-0.025,0,0)" d="M726 153C726 166 715 178 702 178L76 178C63 178 52 166 52 153C52 140 63 128 76 128L702 128C715 128 726 140 726 153ZM726 347C726 360 715 372 702 372L76 372C63 372 52 360 52 347C52 334 63 322 76 322L702 322C715 322 726 334 726 347Z" stroke="rgb(0,0,0)" stroke-opacity="1" stroke-width="8" fill="rgb(0,0,0)" fill-opacity="1"></path></g></g><g><g transform="matrix(1,0,0,1,182.37501525878906,63.00001525878906)"><path transform="matrix(0.025,0,0,-0.025,0,0)" d="M532 376C532 432 468 446 434 446C380 446 346 403 330 376C303 435 250 446 221 446C113 446 56 315 56 288C56 273 72 274 72 274C82 274 87 278 89 288C123 392 187 416 219 416C236 416 268 408 268 353C268 323 252 256 215 116C199 55 165 16 124 16C119 16 104 15 86 23C108 32 126 51 126 78C126 108 100 118 84 118C51 118 24 89 24 55C24 5 79 -16 123 -16C180 -16 215 33 227 54C242 19 278 -16 336 -16C443 -16 500 116 500 143C500 157 486 158 484 158C473 158 469 150 467 143C435 38 368 16 338 16C302 16 288 44 288 77C288 98 293 120 304 164L338 301C344 328 367 416 433 416C437 416 453 415 471 408C447 399 430 376 430 353C430 335 443 314 473 314C497 314 532 333 532 376Z" stroke="rgb(0,0,0)" stroke-opacity="1" stroke-width="8" fill="rgb(0,0,0)" fill-opacity="1"></path></g></g><g><g><g><g><g transform="matrix(1,0,0,1,198.12501525878906,53.81251525878906)"><path transform="matrix(0.0175,0,0,-0.0175,0,0)" d="M453 173C453 175 452 178 449 178L424 178C422 178 420 177 420 175C415 145 408 102 399 88C391 83 329 82 307 82L138 81L236 177C392 315 454 370 454 472C454 589 361 670 237 670C121 670 46 576 46 485C46 425 100 424 103 424C121 424 160 438 160 482C160 510 140 538 102 538L96 538C120 597 170 630 224 630C312 630 354 553 354 472C354 394 305 316 250 254L58 40C46 28 46 24 46 0C46 -2 47 -4 50 -4L421 -4C423 -4 425 -3 425 -1Z" stroke="rgb(0,0,0)" stroke-opacity="1" stroke-width="8" fill="rgb(0,0,0)" fill-opacity="1"></path></g></g></g></g></g><g><g transform="matrix(1,0,0,1,213.37501525878906,63.00001525878906)"><path transform="matrix(0.025,0,0,-0.025,0,0)" d="M726 250C726 263 715 274 702 274L414 274L414 563C414 576 402 588 389 588C376 588 364 576 364 563L364 274L76 274C63 274 52 263 52 250C52 237 63 226 76 226L364 226L364 -63C364 -76 376 -88 389 -88C402 -88 414 -76 414 -63L414 226L702 226C715 226 726 237 726 250Z" stroke="rgb(0,0,0)" stroke-opacity="1" stroke-width="8" fill="rgb(0,0,0)" fill-opacity="1"></path></g></g><g><g><g><g><g transform="matrix(1,0,0,1,240.3333282470703,45)"><path transform="matrix(0.025,0,0,-0.025,0,0)" d="M419 -4C421 -4 424 -3 424 0L424 31C424 33 422 36 419 36L387 36C297 36 298 45 298 79L298 640C298 665 296 670 271 670C270 670 269 670 268 669C208 607 121 606 89 606C87 606 84 605 84 602L84 571C84 569 86 566 89 566C109 566 163 566 216 590L216 79C216 46 217 36 127 36L95 36C93 36 90 34 90 31L90 0C90 -2 92 -4 95 -4C130 -1 217 -2 257 -2C297 -2 384 -1 419 -4Z" stroke="rgb(0,0,0)" stroke-opacity="1" stroke-width="8" fill="rgb(0,0,0)" fill-opacity="1"></path></g></g></g></g><g><g><g><g transform="matrix(1,0,0,1,240.3333282470703,83.00001525878906)"><path transform="matrix(0.025,0,0,-0.025,0,0)" d="M296 200L64 200L296 554ZM471 160C473 160 476 162 476 165L476 196C476 198 474 200 471 200L376 200L376 651C376 670 374 682 355 682C345 682 339 680 331 667L24 198L24 196L24 165C24 163 25 160 28 160L290 160L290 78C290 44 291 36 218 36L197 36C195 36 192 34 192 31L192 0C192 -3 194 -4 197 -4C238 -1 290 -2 332 -2C374 -2 427 -1 468 -4C471 -4 472 -3 472 0L472 31C472 33 471 36 468 36L447 36C374 36 376 44 376 78L376 160Z" stroke="rgb(0,0,0)" stroke-opacity="1" stroke-width="8" fill="rgb(0,0,0)" fill-opacity="1"></path></g></g></g></g><line style="fill:none;stroke-width:0.666667px;stroke:rgb(0, 0, 0);" x1="240.3333282470703" y1="57.08333843946457" x2="252.8333282470703" y2="57.08333843946457"></line></g></g></g><g><g><g><g transform="matrix(1,0,0,1,611.6667022705078,70.00001525878906)"><path transform="matrix(0.025,0,0,-0.025,0,0)" d="M148 -88C148 -53 116 -48 106 -48C81 -48 46 -66 46 -118C46 -171 92 -210 156 -210C262 -210 366 -117 394 -2L490 380C494 394 494 397 494 404C494 425 478 436 461 436C449 436 432 429 422 412C419 407 412 375 408 357C386 270 365 184 343 97C339 83 297 16 234 16C187 16 176 55 176 92C176 137 193 198 227 286C243 327 248 339 248 360C248 407 214 446 161 446C61 446 24 298 24 288C24 273 41 274 41 274C53 274 56 279 61 295C88 389 127 416 158 416C165 416 178 417 178 388C178 364 169 339 162 320C122 214 104 156 104 108C104 16 170 -16 230 -16C265 -16 297 -2 323 20C311 -26 298 -70 262 -117C236 -150 200 -178 156 -178C143 -178 106 -176 87 -145C118 -144 148 -124 148 -88Z" stroke="rgb(0,0,0)" stroke-opacity="1" stroke-width="8" fill="rgb(0,0,0)" fill-opacity="1"></path></g></g><g><g transform="matrix(1,0,0,1,631.4167022705078,70.00001525878906)"><path transform="matrix(0.025,0,0,-0.025,0,0)" d="M726 153C726 166 715 178 702 178L76 178C63 178 52 166 52 153C52 140 63 128 76 128L702 128C715 128 726 140 726 153ZM726 347C726 360 715 372 702 372L76 372C63 372 52 360 52 347C52 334 63 322 76 322L702 322C715 322 726 334 726 347Z" stroke="rgb(0,0,0)" stroke-opacity="1" stroke-width="8" fill="rgb(0,0,0)" fill-opacity="1"></path></g></g><g><g transform="matrix(1,0,0,1,658.3750152587891,70.00001525878906)"><path transform="matrix(0.025,0,0,-0.025,0,0)" d="M532 376C532 432 468 446 434 446C380 446 346 403 330 376C303 435 250 446 221 446C113 446 56 315 56 288C56 273 72 274 72 274C82 274 87 278 89 288C123 392 187 416 219 416C236 416 268 408 268 353C268 323 252 256 215 116C199 55 165 16 124 16C119 16 104 15 86 23C108 32 126 51 126 78C126 108 100 118 84 118C51 118 24 89 24 55C24 5 79 -16 123 -16C180 -16 215 33 227 54C242 19 278 -16 336 -16C443 -16 500 116 500 143C500 157 486 158 484 158C473 158 469 150 467 143C435 38 368 16 338 16C302 16 288 44 288 77C288 98 293 120 304 164L338 301C344 328 367 416 433 416C437 416 453 415 471 408C447 399 430 376 430 353C430 335 443 314 473 314C497 314 532 333 532 376Z" stroke="rgb(0,0,0)" stroke-opacity="1" stroke-width="8" fill="rgb(0,0,0)" fill-opacity="1"></path></g></g></g></g></svg>
</svg>
