<svg xmlns="http://www.w3.org/2000/svg" xmlns:xlink="http://www.w3.org/1999/xlink" x="0" y="0" width="861.3333740234375" height="301.3333435058594" style="
        width:861.3333740234375px;
        height:301.3333435058594px;
        background: #FFF;
        fill: none;
">
        <svg xmlns="http://www.w3.org/2000/svg"/>
        
        <svg xmlns="http://www.w3.org/2000/svg" class="role-diagram-draw-area"><g class="shapes-region" style="stroke: black; fill: none;"><g class="composite-shape"><path class="real" d=" M294,153.67 C294,80.4 353.4,21 426.67,21 C499.94,21 559.33,80.4 559.33,153.67 C559.33,226.94 499.94,286.33 426.67,286.33 C353.4,286.33 294,226.94 294,153.67 Z" style="stroke-width: 1; stroke: rgb(0, 0, 0); fill: none; fill-opacity: 1;"/></g><g class="composite-shape"><path class="real" d=" M310.67,89.99 L542.67,89.99 L542.67,217.34 L310.67,217.34 Z" style="stroke-width: 1; stroke: rgb(0, 0, 0); fill: none; fill-opacity: 1;"/></g><g class="arrow-line"><path class="connection real" stroke-dasharray="" d="  M426.67,153.67 L542.67,89.99" style="stroke: rgb(0, 0, 0); stroke-width: 1; fill: none; fill-opacity: 1;"/></g><g class="arrow-line"><path class="connection real" stroke-dasharray="6 6" d="  M161.5,153.67 L691.83,153.67" style="stroke: rgb(0, 0, 0); stroke-width: 1; fill: none; fill-opacity: 1;"/></g><g class="composite-shape"><path class="real" d=" M452.46,139.16 C455.06,141.37 457.32,144.06 459.1,147.2 C460.58,149.82 461.63,152.57 462.27,155.37 L433,162 Z" style="stroke-width: 1; stroke: none; fill: none; fill-opacity: 1;"/><path class="real" d=" M452.46,139.16 C455.06,141.37 457.32,144.06 459.1,147.2 C460.58,149.82 461.63,152.57 462.27,155.37" style="stroke-width: 1; stroke: rgb(0, 0, 0); fill: none; fill-opacity: 1;"/></g><g/></g><g/><g/><g/></svg>
        <svg xmlns="http://www.w3.org/2000/svg" xmlns:xlink="http://www.w3.org/1999/xlink" width="860" height="300" style="width:860px;height:300px;font-family:ThickerLm-Math, ThickerLm, Asana-Math, Asana;background:#FFF;"><g><g><g><g transform="matrix(1,0,0,1,467.6667022705078,148)"><path transform="matrix(0.025,0,0,-0.025,0,0)" d="M342 327C331 281 310 199 274 130C239 62 202 16 162 16C133 16 112 40 112 133C112 175 117 229 143 326ZM384 562C384 514 377 466 353 368L154 368C170 430 191 508 229 576C256 625 293 678 334 678C378 678 384 620 384 562ZM460 500C460 565 442 710 335 710C191 710 38 423 38 194C38 100 66 -16 162 -16C308 -16 460 276 460 500Z" stroke="rgb(0,0,0)" stroke-opacity="1" stroke-width="8" fill="rgb(0,0,0)" fill-opacity="1"></path></g></g></g></g></svg>
</svg>
