<svg xmlns="http://www.w3.org/2000/svg" xmlns:xlink="http://www.w3.org/1999/xlink" x="0" y="0" width="861.3333740234375" height="311.3333435058594" style="
        width:861.3333740234375px;
        height:311.3333435058594px;
        background: #FFF;
        fill: none;
">
        <svg xmlns="http://www.w3.org/2000/svg"/>
        
        <svg xmlns="http://www.w3.org/2000/svg" class="role-diagram-draw-area"><g class="shapes-region" style="stroke: black; fill: none;"><g class="composite-shape" data-amt="diagram/shapes/plot" transform="matrix(1,0,0,1,20,10)"><g><g><g class="test-xgi"><line x1="20.271948260802922" y1="0" x2="20.271948260802922" y2="278.77081298828125" fill="none" stroke="#c3c3c3" stroke-width="0.5"/><line x1="149.6076544605764" y1="0" x2="149.6076544605764" y2="278.77081298828125" fill="none" stroke="#c3c3c3" stroke-width="0.5"/><line x1="278.9433606603498" y1="0" x2="278.9433606603498" y2="278.77081298828125" fill="none" stroke="#c3c3c3" stroke-width="0.5"/><line x1="408.2790668601233" y1="0" x2="408.2790668601233" y2="278.77081298828125" fill="none" stroke="#c3c3c3" stroke-width="0.5"/><line x1="537.6147730598968" y1="0" x2="537.6147730598968" y2="278.77081298828125" fill="none" stroke="#c3c3c3" stroke-width="0.5"/><line x1="666.9504792596701" y1="0" x2="666.9504792596701" y2="278.77081298828125" fill="none" stroke="#c3c3c3" stroke-width="0.5"/><line x1="796.2861854594437" y1="0" x2="796.2861854594437" y2="278.77081298828125" fill="none" stroke="#c3c3c3" stroke-width="0.5"/></g><g class="test-ygi"><line x1="0" y1="209.92203144205064" x2="820" y2="209.92203144205064" fill="none" stroke="#c3c3c3" stroke-width="0.5"/><line x1="0" y1="80.58632524227718" x2="820" y2="80.58632524227718" fill="none" stroke="#c3c3c3" stroke-width="0.5"/></g></g><g><g class="test-xti" style="font-family: Asana-Math, Asana;"><line x1="0" y1="209.92203144205064" x2="816" y2="209.92203144205064" fill="none" stroke="rgb(50,50,50)" stroke-opacity="1" stroke-width="1"/><line x1="20.271948260802922" y1="205.92203144205064" x2="20.271948260802922" y2="213.92203144205064" fill="none" stroke="rgb(50,50,50)" stroke-opacity="1" stroke-width="1"/><line x1="278.9433606603498" y1="205.92203144205064" x2="278.9433606603498" y2="213.92203144205064" fill="none" stroke="rgb(50,50,50)" stroke-opacity="1" stroke-width="1"/><line x1="408.2790668601233" y1="205.92203144205064" x2="408.2790668601233" y2="213.92203144205064" fill="none" stroke="rgb(50,50,50)" stroke-opacity="1" stroke-width="1"/><line x1="537.6147730598968" y1="205.92203144205064" x2="537.6147730598968" y2="213.92203144205064" fill="none" stroke="rgb(50,50,50)" stroke-opacity="1" stroke-width="1"/><line x1="666.9504792596701" y1="205.92203144205064" x2="666.9504792596701" y2="213.92203144205064" fill="none" stroke="rgb(50,50,50)" stroke-opacity="1" stroke-width="1"/><line x1="796.2861854594437" y1="205.92203144205064" x2="796.2861854594437" y2="213.92203144205064" fill="none" stroke="rgb(50,50,50)" stroke-opacity="1" stroke-width="1"/><path d="M811,206.32203144205064 L819,209.92203144205064 L811,213.52203144205063 Z" stroke="none" stroke-width="1" fill="rgb(50,50,50)" fill-opacity="1"/></g><g class="test-yti" style="font-family: Asana-Math, Asana;"><line x1="149.60765446057638" y1="4" x2="149.60765446057638" y2="278.77081298828125" fill="none" stroke="rgb(50,50,50)" stroke-opacity="1" stroke-width="1"/><line x1="145.60765446057638" y1="80.58632524227718" x2="153.60765446057638" y2="80.58632524227718" fill="none" stroke="rgb(50,50,50)" stroke-opacity="1" stroke-width="1"/><path d="M146.0076544605764,9 L149.60765446057638,1 L153.20765446057638,9 Z" stroke="none" stroke-width="1" fill="rgb(50,50,50)" fill-opacity="1"/></g><g class="test-plot-expression"><defs><clipPath id="cpf70pf4aus"><rect x="1" y="1" width="818" height="276.77081298828125"/></clipPath></defs><g clip-path="url(#cpf70pf4aus)"><path d=" M149.97,115.24 L150.72,126.70 L151.46,132.14 L152.21,135.61 L152.96,138.08 L153.70,139.96 L154.45,141.43 L155.20,142.61 L155.94,143.58 L156.69,144.39 L157.43,145.06 L158.18,145.62 L158.93,146.10 L159.67,146.50 L160.42,146.83 L161.16,147.11 L161.91,147.35 L162.66,147.54 L163.40,147.69 L164.15,147.81 L164.90,147.90 L165.64,147.97 L166.39,148.00 L167.13,148.02 L167.88,148.02 L168.63,148.00 L169.37,147.96 L170.12,147.90 L170.86,147.84 L171.61,147.75 L172.36,147.66 L173.10,147.55 L173.85,147.43 L174.60,147.30 L175.34,147.17 L176.09,147.02 L176.83,146.86 L177.58,146.70 L178.33,146.53 L179.07,146.35 L179.82,146.16 L180.56,145.97 L181.31,145.76 L182.06,145.56 L182.80,145.35 L183.55,145.13 L184.29,144.91 L185.04,144.68 L185.79,144.44 L186.53,144.21 L187.28,143.96 L188.03,143.71 L188.77,143.46 L189.52,143.21 L190.26,142.95 L191.01,142.68 L191.76,142.42 L192.50,142.15 L193.25,141.87 L193.99,141.59 L194.74,141.31 L195.49,141.03 L196.23,140.74 L196.98,140.45 L197.73,140.15 L198.47,139.86 L199.22,139.56 L199.96,139.26 L200.71,138.95 L201.46,138.64 L202.20,138.33 L202.95,138.02 L203.69,137.71 L204.44,137.39 L205.19,137.07 L205.93,136.75 L206.68,136.42 L207.42,136.10 L208.17,135.77 L208.92,135.44 L209.66,135.11 L210.41,134.77 L211.16,134.44 L211.90,134.10 L212.65,133.76 L213.39,133.42 L214.14,133.08 L214.89,132.74 L215.63,132.39 L216.38,132.04 L217.12,131.69 L217.87,131.34 L218.62,130.99 L219.36,130.64 L220.11,130.28 L220.86,129.93 L221.60,129.57 L222.35,129.21 L223.09,128.85 L223.84,128.49 L224.59,128.13 L225.33,127.77 L226.08,127.41 L226.82,127.04 L227.57,126.67 L228.32,126.31 L229.06,125.94 L229.81,125.57 L230.56,125.20 L231.30,124.83 L232.05,124.46 L232.79,124.09 L233.54,123.72 L234.29,123.34 L235.03,122.97 L235.78,122.60 L236.52,122.22 L237.27,121.85 L238.02,121.47 L238.76,121.09 L239.51,120.72 L240.25,120.34 L241.00,119.96 L241.75,119.59 L242.49,119.21 L243.24,118.83 L243.99,118.45 L244.73,118.07 L245.48,117.69 L246.22,117.31 L246.97,116.93 L247.72,116.55 L248.46,116.17 L249.21,115.80 L249.95,115.42 L250.70,115.04 L251.45,114.66 L252.19,114.28 L252.94,113.90 L253.69,113.52 L254.43,113.14 L255.18,112.77 L255.92,112.39 L256.67,112.01 L257.42,111.63 L258.16,111.26 L258.91,110.88 L259.65,110.51 L260.40,110.13 L261.15,109.76 L261.89,109.38 L262.64,109.01 L263.38,108.64 L264.13,108.26 L264.88,107.89 L265.62,107.52 L266.37,107.15 L267.12,106.79 L267.86,106.42 L268.61,106.05 L269.35,105.69 L270.10,105.32 L270.85,104.96 L271.59,104.59 L272.34,104.23 L273.08,103.87 L273.83,103.51 L274.58,103.16 L275.32,102.80 L276.07,102.44 L276.82,102.09 L277.56,101.74 L278.31,101.39 L279.05,101.04 L279.80,100.69 L280.55,100.34 L281.29,100.00 L282.04,99.66 L282.78,99.31 L283.53,98.97 L284.28,98.64 L285.02,98.30 L285.77,97.97 L286.52,97.63 L287.26,97.30 L288.01,96.97 L288.75,96.65 L289.50,96.32 L290.25,96.00 L290.99,95.68 L291.74,95.36 L292.48,95.05 L293.23,94.73 L293.98,94.42 L294.72,94.11 L295.47,93.81 L296.21,93.50 L296.96,93.20 L297.71,92.90 L298.45,92.60 L299.20,92.31 L299.95,92.02 L300.69,91.73 L301.44,91.44 L302.18,91.16 L302.93,90.88 L303.68,90.60 L304.42,90.33 L305.17,90.05 L305.91,89.78 L306.66,89.52 L307.41,89.25 L308.15,88.99 L308.90,88.74 L309.65,88.48 L310.39,88.23 L311.14,87.99 L311.88,87.74 L312.63,87.50 L313.38,87.27 L314.12,87.03 L314.87,86.80 L315.61,86.57 L316.36,86.35 L317.11,86.13 L317.85,85.92 L318.60,85.70 L319.34,85.49 L320.09,85.29 L320.84,85.09 L321.58,84.89 L322.33,84.70 L323.08,84.51 L323.82,84.32 L324.57,84.14 L325.31,83.96 L326.06,83.79 L326.81,83.62 L327.55,83.46 L328.30,83.29 L329.04,83.14 L329.79,82.99 L330.54,82.84 L331.28,82.69 L332.03,82.55 L332.78,82.42 L333.52,82.29 L334.27,82.16 L335.01,82.04 L335.76,81.92 L336.51,81.81 L337.25,81.71 L338.00,81.60 L338.74,81.50 L339.49,81.41 L340.24,81.32 L340.98,81.24 L341.73,81.16 L342.47,81.09 L343.22,81.02 L343.97,80.95 L344.71,80.89 L345.46,80.84 L346.21,80.79 L346.95,80.75 L347.70,80.71 L348.44,80.68 L349.19,80.65 L349.94,80.62 L350.68,80.61 L351.43,80.59 L352.17,80.59 L352.92,80.59 L353.67,80.59 L354.41,80.60 L355.16,80.61 L355.91,80.63 L356.65,80.66 L357.40,80.69 L358.14,80.73 L358.89,80.77 L359.64,80.82 L360.38,80.87 L361.13,80.93 L361.87,81.00 L362.62,81.07 L363.37,81.14 L364.11,81.23 L364.86,81.31 L365.61,81.41 L366.35,81.51 L367.10,81.61 L367.84,81.73 L368.59,81.84 L369.34,81.97 L370.08,82.10 L370.83,82.23 L371.57,82.37 L372.32,82.52 L373.07,82.67 L373.81,82.83 L374.56,83.00 L375.30,83.17 L376.05,83.34 L376.80,83.53 L377.54,83.72 L378.29,83.91 L379.04,84.11 L379.78,84.32 L380.53,84.54 L381.27,84.76 L382.02,84.98 L382.77,85.22 L383.51,85.45 L384.26,85.70 L385.00,85.95 L385.75,86.21 L386.50,86.47 L387.24,86.74 L387.99,87.01 L388.74,87.30 L389.48,87.58 L390.23,87.88 L390.97,88.18 L391.72,88.48 L392.47,88.80 L393.21,89.12 L393.96,89.44 L394.70,89.77 L395.45,90.11 L396.20,90.45 L396.94,90.80 L397.69,91.16 L398.43,91.52 L399.18,91.89 L399.93,92.26 L400.67,92.64 L401.42,93.03 L402.17,93.42 L402.91,93.82 L403.66,94.22 L404.40,94.63 L405.15,95.05 L405.90,95.47 L406.64,95.90 L407.39,96.33 L408.13,96.77 L408.88,97.22 L409.63,97.67 L410.37,98.13 L411.12,98.59 L411.87,99.06 L412.61,99.54 L413.36,100.02 L414.10,100.50 L414.85,100.99 L415.60,101.49 L416.34,102.00 L417.09,102.50 L417.83,103.02 L418.58,103.54 L419.33,104.06 L420.07,104.59 L420.82,105.13 L421.57,105.67 L422.31,106.22 L423.06,106.77 L423.80,107.33 L424.55,107.89 L425.30,108.46 L426.04,109.03 L426.79,109.61 L427.53,110.19 L428.28,110.78 L429.03,111.37 L429.77,111.97 L430.52,112.57 L431.26,113.18 L432.01,113.79 L432.76,114.40 L433.50,115.02 L434.25,115.65 L435.00,116.28 L435.74,116.91 L436.49,117.55 L437.23,118.19 L437.98,118.84 L438.73,119.49 L439.47,120.15 L440.22,120.81 L440.96,121.47 L441.71,122.14 L442.46,122.81 L443.20,123.48 L443.95,124.16 L444.70,124.84 L445.44,125.52 L446.19,126.21 L446.93,126.90 L447.68,127.60 L448.43,128.30 L449.17,129.00 L449.92,129.70 L450.66,130.41 L451.41,131.12 L452.16,131.84 L452.90,132.55 L453.65,133.27 L454.39,133.99 L455.14,134.71 L455.89,135.44 L456.63,136.17 L457.38,136.90 L458.13,137.63 L458.87,138.37 L459.62,139.10 L460.36,139.84 L461.11,140.58 L461.86,141.32 L462.60,142.07 L463.35,142.81 L464.09,143.56 L464.84,144.31 L465.59,145.06 L466.33,145.81 L467.08,146.56 L467.83,147.31 L468.57,148.06 L469.32,148.81 L470.06,149.57 L470.81,150.32 L471.56,151.08 L472.30,151.83 L473.05,152.59 L473.79,153.34 L474.54,154.10 L475.29,154.85 L476.03,155.61 L476.78,156.36 L477.53,157.12 L478.27,157.87 L479.02,158.62 L479.76,159.37 L480.51,160.12 L481.26,160.87 L482.00,161.62 L482.75,162.37 L483.49,163.11 L484.24,163.86 L484.99,164.60 L485.73,165.34 L486.48,166.08 L487.22,166.82 L487.97,167.55 L488.72,168.29 L489.46,169.02 L490.21,169.75 L490.96,170.47 L491.70,171.19 L492.45,171.91 L493.19,172.63 L493.94,173.35 L494.69,174.06 L495.43,174.76 L496.18,175.47 L496.92,176.17 L497.67,176.87 L498.42,177.56 L499.16,178.25 L499.91,178.93 L500.66,179.62 L501.40,180.29 L502.15,180.97 L502.89,181.63 L503.64,182.30 L504.39,182.96 L505.13,183.61 L505.88,184.26 L506.62,184.90 L507.37,185.54 L508.12,186.17 L508.86,186.80 L509.61,187.42 L510.35,188.04 L511.10,188.65 L511.85,189.26 L512.59,189.85 L513.34,190.45 L514.09,191.03 L514.83,191.61 L515.58,192.19 L516.32,192.75 L517.07,193.31 L517.82,193.86 L518.56,194.41 L519.31,194.95 L520.05,195.48 L520.80,196.00 L521.55,196.52 L522.29,197.03 L523.04,197.53 L523.79,198.02 L524.53,198.50 L525.28,198.98 L526.02,199.45 L526.77,199.91 L527.52,200.36 L528.26,200.80 L529.01,201.24 L529.75,201.66 L530.50,202.08 L531.25,202.48 L531.99,202.88 L532.74,203.27 L533.48,203.65 L534.23,204.02 L534.98,204.38 L535.72,204.73 L536.47,205.07 L537.22,205.40 L537.96,205.72 L538.71,206.03 L539.45,206.32 L540.20,206.61 L540.95,206.89 L541.69,207.16 L542.44,207.41 L543.18,207.66 L543.93,207.89 L544.68,208.11 L545.42,208.32 L546.17,208.52 L546.92,208.71 L547.66,208.88 L548.41,209.05 L549.15,209.20 L549.90,209.33 L550.65,209.46 L551.39,209.57 L552.14,209.67 L552.88,209.75 L553.63,209.82 L554.38,209.87 L555.12,209.91 L555.87,209.92" style="stroke-width: 2; stroke: rgb(74, 144, 226); stroke-opacity: 0.8;"/><path d=" M352.77, 278.77 L352.77, 278.27 L352.77, 277.77 L352.77, 277.27 L352.77, 276.77 L352.77, 276.27 L352.77, 275.77 L352.77, 275.26 L352.77, 274.76 L352.77, 274.26 L352.77, 273.76 L352.77, 273.26 L352.77, 272.76 L352.77, 272.26 L352.77, 271.76 L352.77, 271.26 L352.77, 270.76 L352.77, 270.26 L352.77, 269.75 L352.77, 269.25 L352.77, 268.75 L352.77, 268.25 L352.77, 267.75 L352.77, 267.25 L352.77, 266.75 L352.77, 266.25 L352.77, 265.75 L352.77, 265.25 L352.77, 264.75 L352.77, 264.24 L352.77, 263.74 L352.77, 263.24 L352.77, 262.74 L352.77, 262.24 L352.77, 261.74 L352.77, 261.24 L352.77, 260.74 L352.77, 260.24 L352.77, 259.74 L352.77, 259.24 L352.77, 258.73 L352.77, 258.23 L352.77, 257.73 L352.77, 257.23 L352.77, 256.73 L352.77, 256.23 L352.77, 255.73 L352.77, 255.23 L352.77, 254.73 L352.77, 254.23 L352.77, 253.73 L352.77, 253.22 L352.77, 252.72 L352.77, 252.22 L352.77, 251.72 L352.77, 251.22 L352.77, 250.72 L352.77, 250.22 L352.77, 249.72 L352.77, 249.22 L352.77, 248.72 L352.77, 248.22 L352.77, 247.72 L352.77, 247.21 L352.77, 246.71 L352.77, 246.21 L352.77, 245.71 L352.77, 245.21 L352.77, 244.71 L352.77, 244.21 L352.77, 243.71 L352.77, 243.21 L352.77, 242.71 L352.77, 242.21 L352.77, 241.70 L352.77, 241.20 L352.77, 240.70 L352.77, 240.20 L352.77, 239.70 L352.77, 239.20 L352.77, 238.70 L352.77, 238.20 L352.77, 237.70 L352.77, 237.20 L352.77, 236.70 L352.77, 236.19 L352.77, 235.69 L352.77, 235.19 L352.77, 234.69 L352.77, 234.19 L352.77, 233.69 L352.77, 233.19 L352.77, 232.69 L352.77, 232.19 L352.77, 231.69 L352.77, 231.19 L352.77, 230.68 L352.77, 230.18 L352.77, 229.68 L352.77, 229.18 L352.77, 228.68 L352.77, 228.18 L352.77, 227.68 L352.77, 227.18 L352.77, 226.68 L352.77, 226.18 L352.77, 225.68 L352.77, 225.17 L352.77, 224.67 L352.77, 224.17 L352.77, 223.67 L352.77, 223.17 L352.77, 222.67 L352.77, 222.17 L352.77, 221.67 L352.77, 221.17 L352.77, 220.67 L352.77, 220.17 L352.77, 219.66 L352.77, 219.16 L352.77, 218.66 L352.77, 218.16 L352.77, 217.66 L352.77, 217.16 L352.77, 216.66 L352.77, 216.16 L352.77, 215.66 L352.77, 215.16 L352.77, 214.66 L352.77, 214.15 L352.77, 213.65 L352.77, 213.15 L352.77, 212.65 L352.77, 212.15 L352.77, 211.65 L352.77, 211.15 L352.77, 210.65 L352.77, 210.15 L352.77, 209.65 L352.77, 209.15 L352.77, 208.65 L352.77, 208.14 L352.77, 207.64 L352.77, 207.14 L352.77, 206.64 L352.77, 206.14 L352.77, 205.64 L352.77, 205.14 L352.77, 204.64 L352.77, 204.14 L352.77, 203.64 L352.77, 203.14 L352.77, 202.63 L352.77, 202.13 L352.77, 201.63 L352.77, 201.13 L352.77, 200.63 L352.77, 200.13 L352.77, 199.63 L352.77, 199.13 L352.77, 198.63 L352.77, 198.13 L352.77, 197.63 L352.77, 197.12 L352.77, 196.62 L352.77, 196.12 L352.77, 195.62 L352.77, 195.12 L352.77, 194.62 L352.77, 194.12 L352.77, 193.62 L352.77, 193.12 L352.77, 192.62 L352.77, 192.12 L352.77, 191.61 L352.77, 191.11 L352.77, 190.61 L352.77, 190.11 L352.77, 189.61 L352.77, 189.11 L352.77, 188.61 L352.77, 188.11 L352.77, 187.61 L352.77, 187.11 L352.77, 186.61 L352.77, 186.10 L352.77, 185.60 L352.77, 185.10 L352.77, 184.60 L352.77, 184.10 L352.77, 183.60 L352.77, 183.10 L352.77, 182.60 L352.77, 182.10 L352.77, 181.60 L352.77, 181.10 L352.77, 180.59 L352.77, 180.09 L352.77, 179.59 L352.77, 179.09 L352.77, 178.59 L352.77, 178.09 L352.77, 177.59 L352.77, 177.09 L352.77, 176.59 L352.77, 176.09 L352.77, 175.59 L352.77, 175.08 L352.77, 174.58 L352.77, 174.08 L352.77, 173.58 L352.77, 173.08 L352.77, 172.58 L352.77, 172.08 L352.77, 171.58 L352.77, 171.08 L352.77, 170.58 L352.77, 170.08 L352.77, 169.57 L352.77, 169.07 L352.77, 168.57 L352.77, 168.07 L352.77, 167.57 L352.77, 167.07 L352.77, 166.57 L352.77, 166.07 L352.77, 165.57 L352.77, 165.07 L352.77, 164.57 L352.77, 164.07 L352.77, 163.56 L352.77, 163.06 L352.77, 162.56 L352.77, 162.06 L352.77, 161.56 L352.77, 161.06 L352.77, 160.56 L352.77, 160.06 L352.77, 159.56 L352.77, 159.06 L352.77, 158.56 L352.77, 158.05 L352.77, 157.55 L352.77, 157.05 L352.77, 156.55 L352.77, 156.05 L352.77, 155.55 L352.77, 155.05 L352.77, 154.55 L352.77, 154.05 L352.77, 153.55 L352.77, 153.05 L352.77, 152.54 L352.77, 152.04 L352.77, 151.54 L352.77, 151.04 L352.77, 150.54 L352.77, 150.04 L352.77, 149.54 L352.77, 149.04 L352.77, 148.54 L352.77, 148.04 L352.77, 147.54 L352.77, 147.03 L352.77, 146.53 L352.77, 146.03 L352.77, 145.53 L352.77, 145.03 L352.77, 144.53 L352.77, 144.03 L352.77, 143.53 L352.77, 143.03 L352.77, 142.53 L352.77, 142.03 L352.77, 141.52 L352.77, 141.02 L352.77, 140.52 L352.77, 140.02 L352.77, 139.52 L352.77, 139.02 L352.77, 138.52 L352.77, 138.02 L352.77, 137.52 L352.77, 137.02 L352.77, 136.52 L352.77, 136.01 L352.77, 135.51 L352.77, 135.01 L352.77, 134.51 L352.77, 134.01 L352.77, 133.51 L352.77, 133.01 L352.77, 132.51 L352.77, 132.01 L352.77, 131.51 L352.77, 131.01 L352.77, 130.50 L352.77, 130.00 L352.77, 129.50 L352.77, 129.00 L352.77, 128.50 L352.77, 128.00 L352.77, 127.50 L352.77, 127.00 L352.77, 126.50 L352.77, 126.00 L352.77, 125.50 L352.77, 125.00 L352.77, 124.49 L352.77, 123.99 L352.77, 123.49 L352.77, 122.99 L352.77, 122.49 L352.77, 121.99 L352.77, 121.49 L352.77, 120.99 L352.77, 120.49 L352.77, 119.99 L352.77, 119.49 L352.77, 118.98 L352.77, 118.48 L352.77, 117.98 L352.77, 117.48 L352.77, 116.98 L352.77, 116.48 L352.77, 115.98 L352.77, 115.48 L352.77, 114.98 L352.77, 114.48 L352.77, 113.98 L352.77, 113.47 L352.77, 112.97 L352.77, 112.47 L352.77, 111.97 L352.77, 111.47 L352.77, 110.97 L352.77, 110.47 L352.77, 109.97 L352.77, 109.47 L352.77, 108.97 L352.77, 108.47 L352.77, 107.96 L352.77, 107.46 L352.77, 106.96 L352.77, 106.46 L352.77, 105.96 L352.77, 105.46 L352.77, 104.96 L352.77, 104.46 L352.77, 103.96 L352.77, 103.46 L352.77, 102.96 L352.77, 102.45 L352.77, 101.95 L352.77, 101.45 L352.77, 100.95 L352.77, 100.45 L352.77, 99.95 L352.77, 99.45 L352.77, 98.95 L352.77, 98.45 L352.77, 97.95 L352.77, 97.45 L352.77, 96.94 L352.77, 96.44 L352.77, 95.94 L352.77, 95.44 L352.77, 94.94 L352.77, 94.44 L352.77, 93.94 L352.77, 93.44 L352.77, 92.94 L352.77, 92.44 L352.77, 91.94 L352.77, 91.43 L352.77, 90.93 L352.77, 90.43 L352.77, 89.93 L352.77, 89.43 L352.77, 88.93 L352.77, 88.43 L352.77, 87.93 L352.77, 87.43 L352.77, 86.93 L352.77, 86.43 L352.77, 85.92 L352.77, 85.42 L352.77, 84.92 L352.77, 84.42 L352.77, 83.92 L352.77, 83.42 L352.77, 82.92 L352.77, 82.42 L352.77, 81.92 L352.77, 81.42 L352.77, 80.92 L352.77, 80.42 L352.77, 79.91 L352.77, 79.41 L352.77, 78.91 L352.77, 78.41 L352.77, 77.91 L352.77, 77.41 L352.77, 76.91 L352.77, 76.41 L352.77, 75.91 L352.77, 75.41 L352.77, 74.91 L352.77, 74.40 L352.77, 73.90 L352.77, 73.40 L352.77, 72.90 L352.77, 72.40 L352.77, 71.90 L352.77, 71.40 L352.77, 70.90 L352.77, 70.40 L352.77, 69.90 L352.77, 69.40 L352.77, 68.89 L352.77, 68.39 L352.77, 67.89 L352.77, 67.39 L352.77, 66.89 L352.77, 66.39 L352.77, 65.89 L352.77, 65.39 L352.77, 64.89 L352.77, 64.39 L352.77, 63.89 L352.77, 63.38 L352.77, 62.88 L352.77, 62.38 L352.77, 61.88 L352.77, 61.38 L352.77, 60.88 L352.77, 60.38 L352.77, 59.88 L352.77, 59.38 L352.77, 58.88 L352.77, 58.38 L352.77, 57.87 L352.77, 57.37 L352.77, 56.87 L352.77, 56.37 L352.77, 55.87 L352.77, 55.37 L352.77, 54.87 L352.77, 54.37 L352.77, 53.87 L352.77, 53.37 L352.77, 52.87 L352.77, 52.36 L352.77, 51.86 L352.77, 51.36 L352.77, 50.86 L352.77, 50.36 L352.77, 49.86 L352.77, 49.36 L352.77, 48.86 L352.77, 48.36 L352.77, 47.86 L352.77, 47.36 L352.77, 46.85 L352.77, 46.35 L352.77, 45.85 L352.77, 45.35 L352.77, 44.85 L352.77, 44.35 L352.77, 43.85 L352.77, 43.35 L352.77, 42.85 L352.77, 42.35 L352.77, 41.85 L352.77, 41.34 L352.77, 40.84 L352.77, 40.34 L352.77, 39.84 L352.77, 39.34 L352.77, 38.84 L352.77, 38.34 L352.77, 37.84 L352.77, 37.34 L352.77, 36.84 L352.77, 36.34 L352.77, 35.84 L352.77, 35.33 L352.77, 34.83 L352.77, 34.33 L352.77, 33.83 L352.77, 33.33 L352.77, 32.83 L352.77, 32.33 L352.77, 31.83 L352.77, 31.33 L352.77, 30.83 L352.77, 30.33 L352.77, 29.82 L352.77, 29.32 L352.77, 28.82 L352.77, 28.32 L352.77, 27.82 L352.77, 27.32 L352.77, 26.82 L352.77, 26.32 L352.77, 25.82 L352.77, 25.32 L352.77, 24.82 L352.77, 24.31 L352.77, 23.81 L352.77, 23.31 L352.77, 22.81 L352.77, 22.31 L352.77, 21.81 L352.77, 21.31 L352.77, 20.81 L352.77, 20.31 L352.77, 19.81 L352.77, 19.31 L352.77, 18.80 L352.77, 18.30 L352.77, 17.80 L352.77, 17.30 L352.77, 16.80 L352.77, 16.30 L352.77, 15.80 L352.77, 15.30 L352.77, 14.80 L352.77, 14.30 L352.77, 13.80 L352.77, 13.29 L352.77, 12.79 L352.77, 12.29 L352.77, 11.79 L352.77, 11.29 L352.77, 10.79 L352.77, 10.29 L352.77, 9.79 L352.77, 9.29 L352.77, 8.79 L352.77, 8.29 L352.77, 7.78 L352.77, 7.28 L352.77, 6.78 L352.77, 6.28 L352.77, 5.78 L352.77, 5.28 L352.77, 4.78 L352.77, 4.28 L352.77, 3.78 L352.77, 3.28 L352.77, 2.78 L352.77, 2.27 L352.77, 1.77 L352.77, 1.27 L352.77, 0.77 L352.77, 0.27 L352.77, 0.00" style="stroke-width: 2; stroke: rgb(0, 0, 0); stroke-opacity: 1; stroke-dasharray: 7.5, 6;"/></g></g><g class="test-xtl" style="font-family: &quot;Open Sans&quot;, verdana, arial, sans-serif;"><text text-anchor="middle" font-size="11" dominant-baseline="hanging" stroke="none" fill="rgb(50,50,50)" fill-opacity="1" x="17.136948260802924" y="216.92203144205064">-1</text><text text-anchor="middle" font-size="11" dominant-baseline="hanging" stroke="none" fill="rgb(50,50,50)" fill-opacity="1" x="278.9433606603498" y="216.92203144205064">1</text><text text-anchor="middle" font-size="11" dominant-baseline="hanging" stroke="none" fill="rgb(50,50,50)" fill-opacity="1" x="408.2790668601233" y="216.92203144205064">2</text><text text-anchor="middle" font-size="11" dominant-baseline="hanging" stroke="none" fill="rgb(50,50,50)" fill-opacity="1" x="537.6147730598968" y="216.92203144205064">3</text><text text-anchor="middle" font-size="11" dominant-baseline="hanging" stroke="none" fill="rgb(50,50,50)" fill-opacity="1" x="666.9504792596701" y="216.92203144205064">4</text><text text-anchor="middle" font-size="11" dominant-baseline="hanging" stroke="none" fill="rgb(50,50,50)" fill-opacity="1" x="796.2861854594437" y="216.92203144205064">5</text><text text-anchor="middle" font-size="11" dominant-baseline="hanging" stroke="none" fill="rgb(50,50,50)" fill-opacity="1" x="141.6076544605764" y="214.92203144205064">0</text></g><g class="test-ytl" style="font-family: &quot;Open Sans&quot;, verdana, arial, sans-serif;"><text text-anchor="end" dominant-baseline="middle" font-size="11" stroke="none" fill="rgb(50,50,50)" fill-opacity="1" x="141.60765446057638" y="80.58632524227718">1</text></g><rect class="real" x="1" y="1" width="818" height="276.77081298828125" style="fill: transparent; stroke: none;"/></g></g></g><g/></g><g/><g/><g/></svg>
        <svg xmlns="http://www.w3.org/2000/svg" xmlns:xlink="http://www.w3.org/1999/xlink" width="860" height="310" style="width:860px;height:310px;font-family:ThickerLm-Math, ThickerLm, Asana-Math, Asana;background:#FFF;"></svg>
</svg>
