<svg xmlns="http://www.w3.org/2000/svg" xmlns:xlink="http://www.w3.org/1999/xlink" x="0" y="0" width="861.3333740234375" height="235" style="
        width:861.3333740234375px;
        height:235px;
        background: #FFF;
        fill: none;
">
        <svg xmlns="http://www.w3.org/2000/svg"/>
        
        <svg xmlns="http://www.w3.org/2000/svg" class="role-diagram-draw-area"><g class="shapes-region" style="stroke: black; fill: none;"><g class="arrow-line"><path class="connection real" stroke-dasharray="" d="  M38,44.06 L847.33,44.06" style="stroke: rgb(0, 0, 0); stroke-width: 6; fill: none; fill-opacity: 1;"/></g><g class="arrow-line"><path class="connection real" stroke-dasharray="" d="  M285,45 L285,211.06" style="stroke: rgb(0, 0, 0); stroke-width: 1; fill: none; fill-opacity: 1;"/></g><g class="arrow-line"><path class="connection real" stroke-dasharray="" d="  M561,45 L561,211.06" style="stroke: rgb(0, 0, 0); stroke-width: 1; fill: none; fill-opacity: 1;"/></g><g class="arrow-line"><path class="connection real" stroke-dasharray="" d="  M285,211.06 L561,211.06" style="stroke: rgb(0, 0, 0); stroke-width: 1; fill: none; fill-opacity: 1;"/></g><g class="composite-shape"><path class="real" d=" M285,45 L561,45 L561,211.06 L285,211.06 Z" style="stroke-width: 1; stroke: rgb(0, 0, 0); fill: rgb(184, 233, 134); fill-opacity: 1;"/></g><g/></g><g/><g/><g/></svg>
        <svg xmlns="http://www.w3.org/2000/svg" xmlns:xlink="http://www.w3.org/1999/xlink" width="860" height="233.6666717529297" style="width:860px;height:233.6666717529297px;font-family:ThickerLm-Math, ThickerLm, Asana-Math, Asana;background:#FFF;"><g><g><g><g transform="matrix(1,0,0,1,400.6667022705078,32.666656494140625)"><path transform="matrix(0.023,0,0,-0.023,0,0)" d="M14 694L218 0L298 0L410 388C411 390 465 580 469 624C477 572 477 572 532 369L639 0L726 0L929 694L857 694L740 289C737 278 690 114 687 70L683 96L664 175L635 283L517 694L435 694L320 290C302 224 272 115 268 70C263 114 246 179 217 287L101 694ZM960 113C960 67 990 -11 1074 -11C1184 -11 1239 34 1240 35L1240 0L1316 0L1316 305C1311 389 1245 461 1150 461C1087 461 1041 445 993 417L999 350C1032 373 1074 401 1149 401C1162 401 1188 400 1212 371C1237 341 1237 307 1238 279L1238 245C1135 244 960 219 960 113ZM1033 114C1033 177 1166 192 1238 193L1238 130C1238 65 1169 51 1126 51C1072 51 1033 78 1033 114ZM1477 0L1552 0L1552 722L1477 722ZM1716 0L1791 0L1791 722L1716 722Z" stroke="rgb(0,0,0)" stroke-opacity="1" stroke-width="8" fill="rgb(0,0,0)" fill-opacity="1"></path></g></g></g></g></svg>
</svg>
