<svg xmlns="http://www.w3.org/2000/svg" xmlns:xlink="http://www.w3.org/1999/xlink" x="0" y="0" width="861.3333740234375" height="280.66668701171875" style="
        width:861.3333740234375px;
        height:280.66668701171875px;
        background: #FFF;
        fill: none;
">
        <svg xmlns="http://www.w3.org/2000/svg"/>
        
        <svg xmlns="http://www.w3.org/2000/svg" class="role-diagram-draw-area"><g class="shapes-region" style="stroke: black; fill: none;"><g class="composite-shape"><path class="real" d=" M148.36,141.81 C148.36,81.71 197.07,33 257.17,33 C317.26,33 365.97,81.71 365.97,141.81 C365.97,201.9 317.26,250.61 257.17,250.61 C197.07,250.61 148.36,201.9 148.36,141.81 Z" style="stroke-width: 1; stroke: rgb(0, 0, 0); fill: none; fill-opacity: 1;"/></g><g class="composite-shape"><path class="real" d=" M257.17,33 L337.79,213.61 L176.54,213.61 Z" style="stroke-width: 1; stroke: rgb(0, 0, 0); fill: none; fill-opacity: 1;"/></g><g class="arrow-line"><path class="connection real" stroke-dasharray="" d="  M257.17,33 L257.17,213.61" style="stroke: rgb(0, 0, 0); stroke-width: 1; fill: none; fill-opacity: 1;"/></g><g class="arrow-line"><path class="connection real" stroke-dasharray="" d="  M257.17,141.81 L176.54,213.61" style="stroke: rgb(0, 0, 0); stroke-width: 1; fill: none; fill-opacity: 1;"/></g><g class="composite-shape"><path class="real" d=" M197.82,193.46 C198.52,194.17 199.19,194.92 199.83,195.71 C203.89,200.71 206.08,206.62 206.48,212.59 L176.54,214.61 Z" style="stroke-width: 1; stroke: none; fill: none; fill-opacity: 1;"/><path class="real" d=" M197.82,193.46 C198.52,194.17 199.19,194.92 199.83,195.71 C203.89,200.71 206.08,206.62 206.48,212.59" style="stroke-width: 1; stroke: rgb(0, 0, 0); fill: none; fill-opacity: 1;"/></g><g/></g><g/><g/><g/></svg>
        <svg xmlns="http://www.w3.org/2000/svg" xmlns:xlink="http://www.w3.org/1999/xlink" width="860" height="279.3333435058594" style="width:860px;height:279.3333435058594px;font-family:ThickerLm-Math, ThickerLm, Asana-Math, Asana;background:#FFF;"><g><g><g><g transform="matrix(1,0,0,1,210.6666717529297,207)"><path transform="matrix(0.025,0,0,-0.025,0,0)" d="M342 327C331 281 310 199 274 130C239 62 202 16 162 16C133 16 112 40 112 133C112 175 117 229 143 326ZM384 562C384 514 377 466 353 368L154 368C170 430 191 508 229 576C256 625 293 678 334 678C378 678 384 620 384 562ZM460 500C460 565 442 710 335 710C191 710 38 423 38 194C38 100 66 -16 162 -16C308 -16 460 276 460 500Z" stroke="rgb(0,0,0)" stroke-opacity="1" stroke-width="8" fill="rgb(0,0,0)" fill-opacity="1"></path></g></g></g></g><g><g><g><g transform="matrix(1,0,0,1,461.6667022705078,99)"><path transform="matrix(0.025,0,0,-0.025,0,0)" d="M440 377C440 415 406 446 353 446C292 446 249 405 227 376C215 417 180 446 134 446C85 446 65 405 56 387C37 352 24 293 24 288C24 273 41 274 41 274C53 274 56 278 62 300C79 372 100 416 131 416C145 416 158 411 158 374C158 354 155 343 142 291L84 60C80 45 74 22 74 16C74 -5 91 -16 108 -16C124 -16 139 -5 149 15C152 21 185 155 189 174C200 217 208 262 221 304C225 316 253 363 276 384C284 391 312 416 353 416C366 416 376 413 383 410C358 401 338 378 338 353C338 335 351 314 381 314C410 314 440 339 440 377Z" stroke="rgb(0,0,0)" stroke-opacity="1" stroke-width="8" fill="rgb(0,0,0)" fill-opacity="1"></path></g></g><g><g transform="matrix(1,0,0,1,480.4479522705078,99)"><path transform="matrix(0.025,0,0,-0.025,0,0)" d="M726 153C726 166 715 178 702 178L76 178C63 178 52 166 52 153C52 140 63 128 76 128L702 128C715 128 726 140 726 153ZM726 347C726 360 715 372 702 372L76 372C63 372 52 360 52 347C52 334 63 322 76 322L702 322C715 322 726 334 726 347Z" stroke="rgb(0,0,0)" stroke-opacity="1" stroke-width="8" fill="rgb(0,0,0)" fill-opacity="1"></path></g></g><g><g transform="matrix(1,0,0,1,507.40626525878906,99)"><path transform="matrix(0.025,0,0,-0.025,0,0)" d="M760 93C760 109 743 110 743 110C730 110 728 98 726 92C701 19 660 4 639 4C610 4 604 22 604 61C604 91 609 142 613 174C615 188 618 208 618 222C618 291 566 325 534 339C632 364 744 433 744 533C744 623 650 688 518 688L233 688C213 688 200 686 200 663C200 647 215 648 232 648C232 648 252 648 269 646C288 644 292 643 292 634C292 631 292 628 289 616L155 79C145 42 147 36 68 36C50 36 36 34 36 11C36 -5 55 -5 55 -5L181 -2L308 -4C316 -4 332 -3 332 20C332 36 317 36 300 36C260 36 240 37 240 49C240 54 241 58 242 65L308 326L423 326C511 326 528 273 528 240C528 226 520 195 514 172C507 144 498 107 498 86C498 -26 623 -26 635 -26C724 -26 760 77 760 93ZM642 553C642 520 626 452 588 414C563 389 511 358 422 358L316 357L379 613C385 637 387 645 403 647C411 648 444 648 464 648C536 648 642 647 642 553Z" stroke="rgb(0,0,0)" stroke-opacity="1" stroke-width="8" fill="rgb(0,0,0)" fill-opacity="1"></path></g></g><g><g><g transform="matrix(1,0,0,1,531.3854522705078,99)"><path transform="matrix(0.025,0,0,-0.025,0,0)" d="M420 119C420 133 404 134 402 134C391 134 387 127 385 120C357 29 294 18 258 18C208 18 122 59 122 218C122 379 202 418 252 418C260 418 315 417 349 389C314 382 308 354 308 340C308 312 328 290 358 290C386 290 408 309 408 341C408 413 329 452 251 452C123 452 30 342 30 216C30 86 130 -16 249 -16C386 -16 420 107 420 119ZM828 222C828 186 827 133 806 90C785 46 742 18 694 18C652 18 610 38 584 83C560 125 560 186 560 222C560 261 560 314 583 357C609 401 654 422 693 422C735 422 777 401 802 359C827 317 828 260 828 222ZM920 214C920 344 818 452 694 452C566 452 468 341 468 214C468 82 574 -16 693 -16C816 -16 920 85 920 214ZM1231 426C1193 452 1152 452 1137 452C1013 452 972 383 972 325C972 289 989 260 1017 237C1050 210 1079 204 1151 190C1174 186 1252 170 1252 102C1252 54 1219 16 1143 16C1062 16 1027 70 1008 154C1005 167 1003 174 990 174C973 174 972 162 972 145L972 13C972 -3 973 -16 988 -16C1001 -16 1016 7 1033 26C1077 -14 1122 -16 1143 -16C1260 -16 1308 54 1308 128C1308 183 1277 214 1265 226C1231 259 1191 267 1149 275C1092 286 1030 300 1030 353C1030 385 1053 424 1137 424C1243 424 1248 339 1250 308C1251 294 1266 294 1266 294C1283 294 1284 305 1284 323L1284 424C1284 440 1283 452 1268 452C1258 452 1242 436 1231 426Z" stroke="rgb(0,0,0)" stroke-opacity="1" stroke-width="8" fill="rgb(0,0,0)" fill-opacity="1"></path></g></g></g><g><g transform="matrix(1,0,0,1,569.8437652587891,99)"><path transform="matrix(0.025,0,0,-0.025,0,0)" d="M342 327C331 281 310 199 274 130C239 62 202 16 162 16C133 16 112 40 112 133C112 175 117 229 143 326ZM384 562C384 514 377 466 353 368L154 368C170 430 191 508 229 576C256 625 293 678 334 678C378 678 384 620 384 562ZM460 500C460 565 442 710 335 710C191 710 38 423 38 194C38 100 66 -16 162 -16C308 -16 460 276 460 500Z" stroke="rgb(0,0,0)" stroke-opacity="1" stroke-width="8" fill="rgb(0,0,0)" fill-opacity="1"></path></g></g></g></g><g><g><g><g transform="matrix(1,0,0,1,452.6667022705078,188)"><path transform="matrix(0.025,0,0,-0.025,0,0)" d="M550 143C550 157 536 158 534 158C521 158 520 150 515 136C497 83 470 16 417 16C403 16 398 22 398 44C398 68 406 91 415 113C431 156 476 275 476 335C476 402 434 446 357 446C299 446 255 421 218 382L291 682C291 683 292 698 274 698C250 698 178 690 152 688C144 687 128 685 128 664C128 647 143 648 157 648C205 648 202 635 202 635L200 616L55 40C51 26 50 23 50 17C50 -10 74 -16 84 -16C101 -16 121 -2 125 14C139 69 152 125 166 180C172 201 176 226 183 247C185 254 193 284 194 292C197 300 229 355 261 381C283 397 312 416 354 416C393 416 404 386 404 350C404 298 366 189 342 128C334 105 328 92 328 71C328 22 366 -16 415 -16C514 -16 550 134 550 143Z" stroke="rgb(0,0,0)" stroke-opacity="1" stroke-width="8" fill="rgb(0,0,0)" fill-opacity="1"></path></g></g><g><g transform="matrix(1,0,0,1,474.5729522705078,188)"><path transform="matrix(0.025,0,0,-0.025,0,0)" d="M726 153C726 166 715 178 702 178L76 178C63 178 52 166 52 153C52 140 63 128 76 128L702 128C715 128 726 140 726 153ZM726 347C726 360 715 372 702 372L76 372C63 372 52 360 52 347C52 334 63 322 76 322L702 322C715 322 726 334 726 347Z" stroke="rgb(0,0,0)" stroke-opacity="1" stroke-width="8" fill="rgb(0,0,0)" fill-opacity="1"></path></g></g><g><g transform="matrix(1,0,0,1,501.53126525878906,188)"><path transform="matrix(0.025,0,0,-0.025,0,0)" d="M760 93C760 109 743 110 743 110C730 110 728 98 726 92C701 19 660 4 639 4C610 4 604 22 604 61C604 91 609 142 613 174C615 188 618 208 618 222C618 291 566 325 534 339C632 364 744 433 744 533C744 623 650 688 518 688L233 688C213 688 200 686 200 663C200 647 215 648 232 648C232 648 252 648 269 646C288 644 292 643 292 634C292 631 292 628 289 616L155 79C145 42 147 36 68 36C50 36 36 34 36 11C36 -5 55 -5 55 -5L181 -2L308 -4C316 -4 332 -3 332 20C332 36 317 36 300 36C260 36 240 37 240 49C240 54 241 58 242 65L308 326L423 326C511 326 528 273 528 240C528 226 520 195 514 172C507 144 498 107 498 86C498 -26 623 -26 635 -26C724 -26 760 77 760 93ZM642 553C642 520 626 452 588 414C563 389 511 358 422 358L316 357L379 613C385 637 387 645 403 647C411 648 444 648 464 648C536 648 642 647 642 553Z" stroke="rgb(0,0,0)" stroke-opacity="1" stroke-width="8" fill="rgb(0,0,0)" fill-opacity="1"></path></g></g><g><g transform="matrix(1,0,0,1,520.5104522705078,188.66668701171875)"><path transform="matrix(0.025,0,0,-0.025,0,0)" d="M336 -238C336 -233 334 -228 331 -226C229 -149 160 49 160 208L160 292C160 451 229 649 331 726C334 728 336 733 336 738C336 746 330 752 322 752C318 752 315 751 313 750C202 666 96 465 96 292L96 208C96 35 202 -166 313 -250C315 -251 318 -252 322 -252C330 -252 336 -246 336 -238Z" stroke="rgb(0,0,0)" stroke-opacity="1" stroke-width="8" fill="rgb(0,0,0)" fill-opacity="1"></path></g></g><g><g transform="matrix(1,0,0,1,530.2395782470703,188)"><path transform="matrix(0.025,0,0,-0.025,0,0)" d="M419 -4C421 -4 424 -3 424 0L424 31C424 33 422 36 419 36L387 36C297 36 298 45 298 79L298 640C298 665 296 670 271 670C270 670 269 670 268 669C208 607 121 606 89 606C87 606 84 605 84 602L84 571C84 569 86 566 89 566C109 566 163 566 216 590L216 79C216 46 217 36 127 36L95 36C93 36 90 34 90 31L90 0C90 -2 92 -4 95 -4C130 -1 217 -2 257 -2C297 -2 384 -1 419 -4Z" stroke="rgb(0,0,0)" stroke-opacity="1" stroke-width="8" fill="rgb(0,0,0)" fill-opacity="1"></path></g></g><g><g transform="matrix(1,0,0,1,547.7395782470703,188)"><path transform="matrix(0.025,0,0,-0.025,0,0)" d="M726 250C726 263 715 274 702 274L414 274L414 563C414 576 402 588 389 588C376 588 364 576 364 563L364 274L76 274C63 274 52 263 52 250C52 237 63 226 76 226L364 226L364 -63C364 -76 376 -88 389 -88C402 -88 414 -76 414 -63L414 226L702 226C715 226 726 237 726 250Z" stroke="rgb(0,0,0)" stroke-opacity="1" stroke-width="8" fill="rgb(0,0,0)" fill-opacity="1"></path></g></g><g><g><g transform="matrix(1,0,0,1,572.1979522705078,188)"><path transform="matrix(0.025,0,0,-0.025,0,0)" d="M287 426C249 452 208 452 193 452C69 452 28 383 28 325C28 289 45 260 73 237C106 210 135 204 207 190C230 186 308 170 308 102C308 54 275 16 199 16C118 16 83 70 64 154C61 167 59 174 46 174C29 174 28 162 28 145L28 13C28 -3 29 -16 44 -16C57 -16 72 7 89 26C133 -14 178 -16 199 -16C316 -16 364 54 364 128C364 183 333 214 321 226C287 259 247 267 205 275C148 286 86 300 86 353C86 385 109 424 193 424C299 424 304 339 306 308C307 294 322 294 322 294C339 294 340 305 340 323L340 424C340 440 339 452 324 452C314 452 298 436 287 426ZM590 604C590 633 566 662 533 662C496 662 474 631 474 604C474 575 499 546 532 546C569 546 590 577 590 604ZM641 -4C643 -4 646 -3 646 0L646 31C646 33 644 36 641 36C575 36 576 38 576 75L576 442C576 445 574 446 571 446L431 435C429 435 426 433 426 431L426 400C426 398 428 396 431 396C495 396 500 392 500 345L500 76C500 34 495 36 427 36C425 36 422 34 422 31L422 0C422 -2 424 -4 427 -4L537 -2C572 -2 607 -3 641 -4ZM817 -2L929 -4C931 -4 934 -3 934 0L934 31C934 33 932 36 929 36C861 36 856 34 856 76L856 260C856 362 925 416 986 416C1045 416 1056 366 1056 309L1056 76C1056 34 1050 36 982 36C980 36 978 34 978 31L978 0C978 -2 979 -4 982 -4L1095 -2L1207 -4C1209 -4 1212 -3 1212 0L1212 31C1212 33 1210 36 1207 36C1153 36 1135 36 1134 61L1134 252C1134 338 1133 371 1101 408C1086 426 1052 446 993 446C925 446 879 410 850 356L850 442C850 445 848 446 845 446L704 435C702 435 700 433 700 431L700 400C700 398 701 396 704 396C773 396 778 391 778 344L778 76C778 34 772 36 704 36C702 36 700 34 700 31L700 0C700 -2 701 -4 704 -4Z" stroke="rgb(0,0,0)" stroke-opacity="1" stroke-width="8" fill="rgb(0,0,0)" fill-opacity="1"></path></g></g></g><g><g transform="matrix(1,0,0,1,607.9062652587891,188)"><path transform="matrix(0.025,0,0,-0.025,0,0)" d="M342 327C331 281 310 199 274 130C239 62 202 16 162 16C133 16 112 40 112 133C112 175 117 229 143 326ZM384 562C384 514 377 466 353 368L154 368C170 430 191 508 229 576C256 625 293 678 334 678C378 678 384 620 384 562ZM460 500C460 565 442 710 335 710C191 710 38 423 38 194C38 100 66 -16 162 -16C308 -16 460 276 460 500Z" stroke="rgb(0,0,0)" stroke-opacity="1" stroke-width="8" fill="rgb(0,0,0)" fill-opacity="1"></path></g></g><g><g transform="matrix(1,0,0,1,619.6354522705078,188.66668701171875)"><path transform="matrix(0.025,0,0,-0.025,0,0)" d="M292 208L292 292C292 465 187 666 76 750C74 751 71 752 67 752C59 752 52 746 52 738C52 733 55 728 58 726C160 649 230 451 230 292L230 208C230 49 160 -149 58 -226C55 -228 52 -233 52 -238C52 -246 59 -252 67 -252C71 -252 74 -251 76 -250C187 -166 292 35 292 208Z" stroke="rgb(0,0,0)" stroke-opacity="1" stroke-width="8" fill="rgb(0,0,0)" fill-opacity="1"></path></g></g></g></g></svg>
</svg>
