<svg xmlns="http://www.w3.org/2000/svg" xmlns:xlink="http://www.w3.org/1999/xlink" x="0" y="0" width="861.3333740234375" height="268.3333435058594" style="
        width:861.3333740234375px;
        height:268.3333435058594px;
        background: #FFF;
        fill: none;
">
        <svg xmlns="http://www.w3.org/2000/svg"/>
        
        <svg xmlns="http://www.w3.org/2000/svg" class="role-diagram-draw-area"><g class="shapes-region" style="stroke: black; fill: none;"><g class="arrow-line"><path class="connection real" stroke-dasharray="" d="  M38,44.06 L847.33,44.06" style="stroke: rgb(0, 0, 0); stroke-width: 6; fill: none; fill-opacity: 1;"/></g><g class="arrow-line"><path class="connection real" stroke-dasharray="" d="  M285,45 L285,211.06" style="stroke: rgb(0, 0, 0); stroke-width: 1; fill: none; fill-opacity: 1;"/></g><g class="arrow-line"><path class="connection real" stroke-dasharray="" d="  M561,45 L561,211.06" style="stroke: rgb(0, 0, 0); stroke-width: 1; fill: none; fill-opacity: 1;"/></g><g class="arrow-line"><path class="connection real" stroke-dasharray="" d="  M285,211.06 L561,211.06" style="stroke: rgb(0, 0, 0); stroke-width: 1; fill: none; fill-opacity: 1;"/></g><g class="composite-shape"><path class="real" d=" M285,45 L561,45 L561,211.06 L285,211.06 Z" style="stroke-width: 1; stroke: rgb(0, 0, 0); fill: rgb(184, 233, 134); fill-opacity: 1;"/></g><g/></g><g/><g/><g/></svg>
        <svg xmlns="http://www.w3.org/2000/svg" xmlns:xlink="http://www.w3.org/1999/xlink" width="860" height="267" style="width:860px;height:267px;font-family:ThickerLm-Math, ThickerLm, Asana-Math, Asana;background:#FFF;"><g><g><g><g transform="matrix(1,0,0,1,400.6667022705078,32.66667175292969)"><path transform="matrix(0.023,0,0,-0.023,0,0)" d="M14 694L218 0L298 0L410 388C411 390 465 580 469 624C477 572 477 572 532 369L639 0L726 0L929 694L857 694L740 289C737 278 690 114 687 70L683 96L664 175L635 283L517 694L435 694L320 290C302 224 272 115 268 70C263 114 246 179 217 287L101 694ZM960 113C960 67 990 -11 1074 -11C1184 -11 1239 34 1240 35L1240 0L1316 0L1316 305C1311 389 1245 461 1150 461C1087 461 1041 445 993 417L999 350C1032 373 1074 401 1149 401C1162 401 1188 400 1212 371C1237 341 1237 307 1238 279L1238 245C1135 244 960 219 960 113ZM1033 114C1033 177 1166 192 1238 193L1238 130C1238 65 1169 51 1126 51C1072 51 1033 78 1033 114ZM1477 0L1552 0L1552 722L1477 722ZM1716 0L1791 0L1791 722L1716 722Z" stroke="rgb(0,0,0)" stroke-opacity="1" stroke-width="8" fill="rgb(0,0,0)" fill-opacity="1"></path></g></g></g></g><g><g><g><g transform="matrix(1,0,0,1,254.6666717529297,132.00001525878906)"><path transform="matrix(0.025,0,0,-0.025,0,0)" d="M532 376C532 432 468 446 434 446C380 446 346 403 330 376C303 435 250 446 221 446C113 446 56 315 56 288C56 273 72 274 72 274C82 274 87 278 89 288C123 392 187 416 219 416C236 416 268 408 268 353C268 323 252 256 215 116C199 55 165 16 124 16C119 16 104 15 86 23C108 32 126 51 126 78C126 108 100 118 84 118C51 118 24 89 24 55C24 5 79 -16 123 -16C180 -16 215 33 227 54C242 19 278 -16 336 -16C443 -16 500 116 500 143C500 157 486 158 484 158C473 158 469 150 467 143C435 38 368 16 338 16C302 16 288 44 288 77C288 98 293 120 304 164L338 301C344 328 367 416 433 416C437 416 453 415 471 408C447 399 430 376 430 353C430 335 443 314 473 314C497 314 532 333 532 376Z" stroke="rgb(0,0,0)" stroke-opacity="1" stroke-width="8" fill="rgb(0,0,0)" fill-opacity="1"></path></g></g></g></g><g><g><g><g transform="matrix(1,0,0,1,578.6667022705078,130.00001525878906)"><path transform="matrix(0.025,0,0,-0.025,0,0)" d="M532 376C532 432 468 446 434 446C380 446 346 403 330 376C303 435 250 446 221 446C113 446 56 315 56 288C56 273 72 274 72 274C82 274 87 278 89 288C123 392 187 416 219 416C236 416 268 408 268 353C268 323 252 256 215 116C199 55 165 16 124 16C119 16 104 15 86 23C108 32 126 51 126 78C126 108 100 118 84 118C51 118 24 89 24 55C24 5 79 -16 123 -16C180 -16 215 33 227 54C242 19 278 -16 336 -16C443 -16 500 116 500 143C500 157 486 158 484 158C473 158 469 150 467 143C435 38 368 16 338 16C302 16 288 44 288 77C288 98 293 120 304 164L338 301C344 328 367 416 433 416C437 416 453 415 471 408C447 399 430 376 430 353C430 335 443 314 473 314C497 314 532 333 532 376Z" stroke="rgb(0,0,0)" stroke-opacity="1" stroke-width="8" fill="rgb(0,0,0)" fill-opacity="1"></path></g></g></g></g><g><g><g><g transform="matrix(1,0,0,1,395.6667022705078,243.00001525878906)"><path transform="matrix(0.025,0,0,-0.025,0,0)" d="M647 247L648 247C648 253 643 262 631 262C619 262 616 254 610 239C576 147 533 36 363 36L269 36C255 36 254 35 248 36C238 38 238 36 238 42C238 45 238 46 243 64L378 604C387 638 386 648 480 648C509 648 522 648 522 671C522 687 506 688 502 688L354 685L221 688C214 688 198 686 198 663C198 647 213 648 230 648C230 648 250 648 267 646C286 644 290 643 290 634C290 631 290 628 287 616L153 79C143 42 145 36 66 36C49 36 34 34 34 11C34 -5 50 -4 66 -4L529 -4C553 -4 558 -3 564 15L643 231C647 241 647 246 647 247Z" stroke="rgb(0,0,0)" stroke-opacity="1" stroke-width="8" fill="rgb(0,0,0)" fill-opacity="1"></path></g></g><g><g transform="matrix(1,0,0,1,417.6979522705078,243.00001525878906)"><path transform="matrix(0.025,0,0,-0.025,0,0)" d="M726 250C726 263 715 274 702 274L76 274C63 274 52 263 52 250C52 237 63 226 76 226L702 226C715 226 726 237 726 250Z" stroke="rgb(0,0,0)" stroke-opacity="1" stroke-width="8" fill="rgb(0,0,0)" fill-opacity="1"></path></g></g><g><g transform="matrix(1,0,0,1,442.15626525878906,243.00001525878906)"><path transform="matrix(0.025,0,0,-0.025,0,0)" d="M453 173C453 175 452 178 449 178L424 178C422 178 420 177 420 175C415 145 408 102 399 88C391 83 329 82 307 82L138 81L236 177C392 315 454 370 454 472C454 589 361 670 237 670C121 670 46 576 46 485C46 425 100 424 103 424C121 424 160 438 160 482C160 510 140 538 102 538L96 538C120 597 170 630 224 630C312 630 354 553 354 472C354 394 305 316 250 254L58 40C46 28 46 24 46 0C46 -2 47 -4 50 -4L421 -4C423 -4 425 -3 425 -1ZM1032 376C1032 432 968 446 934 446C880 446 846 403 830 376C803 435 750 446 721 446C613 446 556 315 556 288C556 273 572 274 572 274C582 274 587 278 589 288C623 392 687 416 719 416C736 416 768 408 768 353C768 323 752 256 715 116C699 55 665 16 624 16C619 16 604 15 586 23C608 32 626 51 626 78C626 108 600 118 584 118C551 118 524 89 524 55C524 5 579 -16 623 -16C680 -16 715 33 727 54C742 19 778 -16 836 -16C943 -16 1000 116 1000 143C1000 157 986 158 984 158C973 158 969 150 967 143C935 38 868 16 838 16C802 16 788 44 788 77C788 98 793 120 804 164L838 301C844 328 867 416 933 416C937 416 953 415 971 408C947 399 930 376 930 353C930 335 943 314 973 314C997 314 1032 333 1032 376Z" stroke="rgb(0,0,0)" stroke-opacity="1" stroke-width="8" fill="rgb(0,0,0)" fill-opacity="1"></path></g></g></g></g></svg>
</svg>
