<svg xmlns="http://www.w3.org/2000/svg" xmlns:xlink="http://www.w3.org/1999/xlink" x="0" y="0" width="861.3333740234375" height="311.3333435058594" style="
        width:861.3333740234375px;
        height:311.3333435058594px;
        background: #FFF;
        fill: none;
">
        <svg xmlns="http://www.w3.org/2000/svg"/>
        
        <svg xmlns="http://www.w3.org/2000/svg" class="role-diagram-draw-area"><g class="shapes-region" style="stroke: black; fill: none;"><g class="composite-shape" data-amt="diagram/shapes/plot" transform="matrix(1,0,0,1,20,10)"><g><g><g class="test-xgi"><line x1="8.332171610416314" y1="0" x2="8.332171610416314" y2="270" fill="none" stroke="#c3c3c3" stroke-width="0.5"/><line x1="96.57882623555322" y1="0" x2="96.57882623555322" y2="270" fill="none" stroke="#c3c3c3" stroke-width="0.5"/><line x1="184.82548086069013" y1="0" x2="184.82548086069013" y2="270" fill="none" stroke="#c3c3c3" stroke-width="0.5"/><line x1="273.07213548582706" y1="0" x2="273.07213548582706" y2="270" fill="none" stroke="#c3c3c3" stroke-width="0.5"/><line x1="361.3187901109639" y1="0" x2="361.3187901109639" y2="270" fill="none" stroke="#c3c3c3" stroke-width="0.5"/><line x1="449.56544473610086" y1="0" x2="449.56544473610086" y2="270" fill="none" stroke="#c3c3c3" stroke-width="0.5"/><line x1="537.8120993612376" y1="0" x2="537.8120993612376" y2="270" fill="none" stroke="#c3c3c3" stroke-width="0.5"/><line x1="626.0587539863747" y1="0" x2="626.0587539863747" y2="270" fill="none" stroke="#c3c3c3" stroke-width="0.5"/><line x1="714.3054086115116" y1="0" x2="714.3054086115116" y2="270" fill="none" stroke="#c3c3c3" stroke-width="0.5"/><line x1="802.5520632366485" y1="0" x2="802.5520632366485" y2="270" fill="none" stroke="#c3c3c3" stroke-width="0.5"/></g><g class="test-ygi"><line x1="0" y1="232.01943468776912" x2="820" y2="232.01943468776912" fill="none" stroke="#c3c3c3" stroke-width="0.5"/><line x1="0" y1="143.77278006263222" x2="820" y2="143.77278006263222" fill="none" stroke="#c3c3c3" stroke-width="0.5"/><line x1="0" y1="55.526125437495296" x2="820" y2="55.526125437495296" fill="none" stroke="#c3c3c3" stroke-width="0.5"/></g></g><g><g class="test-xti" style="font-family: Asana-Math, Asana;"><line x1="0" y1="232.01943468776912" x2="816" y2="232.01943468776912" fill="none" stroke="rgb(50,50,50)" stroke-opacity="1" stroke-width="1"/><line x1="8.332171610416314" y1="228.01943468776912" x2="8.332171610416314" y2="236.01943468776912" fill="none" stroke="rgb(50,50,50)" stroke-opacity="1" stroke-width="1"/><line x1="96.57882623555322" y1="228.01943468776912" x2="96.57882623555322" y2="236.01943468776912" fill="none" stroke="rgb(50,50,50)" stroke-opacity="1" stroke-width="1"/><line x1="184.82548086069013" y1="228.01943468776912" x2="184.82548086069013" y2="236.01943468776912" fill="none" stroke="rgb(50,50,50)" stroke-opacity="1" stroke-width="1"/><line x1="273.07213548582706" y1="228.01943468776912" x2="273.07213548582706" y2="236.01943468776912" fill="none" stroke="rgb(50,50,50)" stroke-opacity="1" stroke-width="1"/><line x1="449.56544473610086" y1="228.01943468776912" x2="449.56544473610086" y2="236.01943468776912" fill="none" stroke="rgb(50,50,50)" stroke-opacity="1" stroke-width="1"/><line x1="537.8120993612376" y1="228.01943468776912" x2="537.8120993612376" y2="236.01943468776912" fill="none" stroke="rgb(50,50,50)" stroke-opacity="1" stroke-width="1"/><line x1="626.0587539863747" y1="228.01943468776912" x2="626.0587539863747" y2="236.01943468776912" fill="none" stroke="rgb(50,50,50)" stroke-opacity="1" stroke-width="1"/><line x1="714.3054086115116" y1="228.01943468776912" x2="714.3054086115116" y2="236.01943468776912" fill="none" stroke="rgb(50,50,50)" stroke-opacity="1" stroke-width="1"/><line x1="802.5520632366485" y1="228.01943468776912" x2="802.5520632366485" y2="236.01943468776912" fill="none" stroke="rgb(50,50,50)" stroke-opacity="1" stroke-width="1"/><path d="M811,228.41943468776913 L819,232.01943468776912 L811,235.61943468776911 Z" stroke="none" stroke-width="1" fill="rgb(50,50,50)" fill-opacity="1"/></g><g class="test-yti" style="font-family: Asana-Math, Asana;"><line x1="361.31879011096396" y1="4" x2="361.31879011096396" y2="270" fill="none" stroke="rgb(50,50,50)" stroke-opacity="1" stroke-width="1"/><line x1="357.31879011096396" y1="143.77278006263222" x2="365.31879011096396" y2="143.77278006263222" fill="none" stroke="rgb(50,50,50)" stroke-opacity="1" stroke-width="1"/><line x1="357.31879011096396" y1="55.526125437495296" x2="365.31879011096396" y2="55.526125437495296" fill="none" stroke="rgb(50,50,50)" stroke-opacity="1" stroke-width="1"/><path d="M357.71879011096394,9 L361.31879011096396,1 L364.918790110964,9 Z" stroke="none" stroke-width="1" fill="rgb(50,50,50)" fill-opacity="1"/></g><g class="test-plot-expression"><defs><clipPath id="cp3dq4n50lb"><rect x="1" y="1" width="818" height="268"/></clipPath></defs><g clip-path="url(#cp3dq4n50lb)"><path d=" M0.00,312.96 L0.75,312.29 L1.49,311.63 L2.24,310.96 L2.98,310.29 L3.73,309.63 L4.48,308.95 L5.22,308.28 L5.97,307.61 L6.72,306.93 L7.46,306.26 L8.21,305.58 L8.95,304.90 L9.70,304.22 L10.45,303.54 L11.19,302.86 L11.94,302.17 L12.68,301.49 L13.43,300.80 L14.18,300.11 L14.92,299.42 L15.67,298.73 L16.41,298.04 L17.16,297.35 L17.91,296.66 L18.65,295.96 L19.40,295.27 L20.15,294.57 L20.89,293.87 L21.64,293.17 L22.38,292.47 L23.13,291.77 L23.88,291.07 L24.62,290.36 L25.37,289.66 L26.11,288.95 L26.86,288.25 L27.61,287.54 L28.35,286.83 L29.10,286.12 L29.85,285.41 L30.59,284.70 L31.34,283.98 L32.08,283.27 L32.83,282.56 L33.58,281.84 L34.32,281.12 L35.07,280.41 L35.81,279.69 L36.56,278.97 L37.31,278.25 L38.05,277.53 L38.80,276.81 L39.55,276.09 L40.29,275.36 L41.04,274.64 L41.78,273.92 L42.53,273.19 L43.28,272.46 L44.02,271.74 L44.77,271.01 L45.51,270.28 L46.26,269.55 L47.01,268.82 L47.75,268.09 L48.50,267.36 L49.24,266.63 L49.99,265.90 L50.74,265.17 L51.48,264.43 L52.23,263.70 L52.98,262.97 L53.72,262.23 L54.47,261.50 L55.21,260.76 L55.96,260.02 L56.71,259.29 L57.45,258.55 L58.20,257.81 L58.94,257.07 L59.69,256.33 L60.44,255.60 L61.18,254.86 L61.93,254.12 L62.68,253.38 L63.42,252.63 L64.17,251.89 L64.91,251.15 L65.66,250.41 L66.41,249.67 L67.15,248.93 L67.90,248.18 L68.64,247.44 L69.39,246.70 L70.14,245.95 L70.88,245.21 L71.63,244.46 L72.37,243.72 L73.12,242.98 L73.87,242.23 L74.61,241.49 L75.36,240.74 L76.11,239.99 L76.85,239.25 L77.60,238.50 L78.34,237.76 L79.09,237.01 L79.84,236.27 L80.58,235.52 L81.33,234.77 L82.07,234.03 L82.82,233.28 L83.57,232.54 L84.31,231.79 L85.06,231.04 L85.81,230.30 L86.55,229.55 L87.30,228.81 L88.04,228.06 L88.79,227.31 L89.54,226.57 L90.28,225.82 L91.03,225.08 L91.77,224.33 L92.52,223.59 L93.27,222.84 L94.01,222.10 L94.76,221.35 L95.51,220.61 L96.25,219.86 L97.00,219.12 L97.74,218.37 L98.49,217.63 L99.24,216.89 L99.98,216.14 L100.73,215.40 L101.47,214.66 L102.22,213.91 L102.97,213.17 L103.71,212.43 L104.46,211.69 L105.20,210.95 L105.95,210.21 L106.70,209.47 L107.44,208.73 L108.19,207.99 L108.94,207.25 L109.68,206.51 L110.43,205.77 L111.17,205.04 L111.92,204.30 L112.67,203.56 L113.41,202.83 L114.16,202.09 L114.90,201.36 L115.65,200.62 L116.40,199.89 L117.14,199.15 L117.89,198.42 L118.64,197.69 L119.38,196.96 L120.13,196.23 L120.87,195.50 L121.62,194.77 L122.37,194.04 L123.11,193.31 L123.86,192.58 L124.60,191.85 L125.35,191.13 L126.10,190.40 L126.84,189.68 L127.59,188.95 L128.33,188.23 L129.08,187.51 L129.83,186.79 L130.57,186.07 L131.32,185.35 L132.07,184.63 L132.81,183.91 L133.56,183.19 L134.30,182.47 L135.05,181.76 L135.80,181.04 L136.54,180.33 L137.29,179.62 L138.03,178.90 L138.78,178.19 L139.53,177.48 L140.27,176.77 L141.02,176.07 L141.77,175.36 L142.51,174.65 L143.26,173.95 L144.00,173.24 L144.75,172.54 L145.50,171.84 L146.24,171.14 L146.99,170.44 L147.73,169.74 L148.48,169.04 L149.23,168.35 L149.97,167.65 L150.72,166.96 L151.46,166.26 L152.21,165.57 L152.96,164.88 L153.70,164.19 L154.45,163.50 L155.20,162.82 L155.94,162.13 L156.69,161.45 L157.43,160.76 L158.18,160.08 L158.93,159.40 L159.67,158.72 L160.42,158.04 L161.16,157.37 L161.91,156.69 L162.66,156.02 L163.40,155.34 L164.15,154.67 L164.90,154.00 L165.64,153.33 L166.39,152.67 L167.13,152.00 L167.88,151.34 L168.63,150.67 L169.37,150.01 L170.12,149.35 L170.86,148.69 L171.61,148.04 L172.36,147.38 L173.10,146.73 L173.85,146.07 L174.60,145.42 L175.34,144.77 L176.09,144.13 L176.83,143.48 L177.58,142.84 L178.33,142.19 L179.07,141.55 L179.82,140.91 L180.56,140.27 L181.31,139.64 L182.06,139.00 L182.80,138.37 L183.55,137.74 L184.29,137.11 L185.04,136.48 L185.79,135.85 L186.53,135.23 L187.28,134.60 L188.03,133.98 L188.77,133.36 L189.52,132.75 L190.26,132.13 L191.01,131.52 L191.76,130.90 L192.50,130.29 L193.25,129.68 L193.99,129.08 L194.74,128.47 L195.49,127.87 L196.23,127.27 L196.98,126.67 L197.73,126.07 L198.47,125.47 L199.22,124.88 L199.96,124.29 L200.71,123.70 L201.46,123.11 L202.20,122.52 L202.95,121.94 L203.69,121.36 L204.44,120.78 L205.19,120.20 L205.93,119.62 L206.68,119.05 L207.42,118.48 L208.17,117.91 L208.92,117.34 L209.66,116.77 L210.41,116.21 L211.16,115.64 L211.90,115.09 L212.65,114.53 L213.39,113.97 L214.14,113.42 L214.89,112.87 L215.63,112.32 L216.38,111.77 L217.12,111.22 L217.87,110.68 L218.62,110.14 L219.36,109.60 L220.11,109.07 L220.86,108.53 L221.60,108.00 L222.35,107.47 L223.09,106.94 L223.84,106.42 L224.59,105.89 L225.33,105.37 L226.08,104.85 L226.82,104.34 L227.57,103.82 L228.32,103.31 L229.06,102.80 L229.81,102.30 L230.56,101.79 L231.30,101.29 L232.05,100.79 L232.79,100.29 L233.54,99.80 L234.29,99.30 L235.03,98.81 L235.78,98.32 L236.52,97.84 L237.27,97.35 L238.02,96.87 L238.76,96.39 L239.51,95.92 L240.25,95.44 L241.00,94.97 L241.75,94.50 L242.49,94.04 L243.24,93.57 L243.99,93.11 L244.73,92.65 L245.48,92.20 L246.22,91.74 L246.97,91.29 L247.72,90.84 L248.46,90.40 L249.21,89.95 L249.95,89.51 L250.70,89.07 L251.45,88.64 L252.19,88.20 L252.94,87.77 L253.69,87.34 L254.43,86.92 L255.18,86.49 L255.92,86.07 L256.67,85.65 L257.42,85.24 L258.16,84.82 L258.91,84.41 L259.65,84.01 L260.40,83.60 L261.15,83.20 L261.89,82.80 L262.64,82.40 L263.38,82.01 L264.13,81.62 L264.88,81.23 L265.62,80.84 L266.37,80.46 L267.12,80.08 L267.86,79.70 L268.61,79.32 L269.35,78.95 L270.10,78.58 L270.85,78.21 L271.59,77.85 L272.34,77.49 L273.08,77.13 L273.83,76.77 L274.58,76.42 L275.32,76.07 L276.07,75.72 L276.82,75.37 L277.56,75.03 L278.31,74.69 L279.05,74.35 L279.80,74.02 L280.55,73.69 L281.29,73.36 L282.04,73.04 L282.78,72.71 L283.53,72.39 L284.28,72.08 L285.02,71.76 L285.77,71.45 L286.52,71.14 L287.26,70.84 L288.01,70.53 L288.75,70.23 L289.50,69.94 L290.25,69.64 L290.99,69.35 L291.74,69.07 L292.48,68.78 L293.23,68.50 L293.98,68.22 L294.72,67.94 L295.47,67.67 L296.21,67.40 L296.96,67.13 L297.71,66.87 L298.45,66.60 L299.20,66.35 L299.95,66.09 L300.69,65.84 L301.44,65.59 L302.18,65.34 L302.93,65.10 L303.68,64.86 L304.42,64.62 L305.17,64.38 L305.91,64.15 L306.66,63.92 L307.41,63.70 L308.15,63.47 L308.90,63.25 L309.65,63.04 L310.39,62.82 L311.14,62.61 L311.88,62.40 L312.63,62.20 L313.38,62.00 L314.12,61.80 L314.87,61.60 L315.61,61.41 L316.36,61.22 L317.11,61.03 L317.85,60.85 L318.60,60.67 L319.34,60.49 L320.09,60.32 L320.84,60.15 L321.58,59.98 L322.33,59.82 L323.08,59.65 L323.82,59.49 L324.57,59.34 L325.31,59.19 L326.06,59.04 L326.81,58.89 L327.55,58.75 L328.30,58.61 L329.04,58.47 L329.79,58.33 L330.54,58.20 L331.28,58.08 L332.03,57.95 L332.78,57.83 L333.52,57.71 L334.27,57.60 L335.01,57.48 L335.76,57.37 L336.51,57.27 L337.25,57.16 L338.00,57.06 L338.74,56.97 L339.49,56.87 L340.24,56.78 L340.98,56.70 L341.73,56.61 L342.47,56.53 L343.22,56.45 L343.97,56.38 L344.71,56.31 L345.46,56.24 L346.21,56.17 L346.95,56.11 L347.70,56.05 L348.44,56.00 L349.19,55.94 L349.94,55.89 L350.68,55.85 L351.43,55.80 L352.17,55.76 L352.92,55.73 L353.67,55.69 L354.41,55.66 L355.16,55.63 L355.91,55.61 L356.65,55.59 L357.40,55.57 L358.14,55.55 L358.89,55.54 L359.64,55.53 L360.38,55.53 L361.13,55.53 L361.87,55.53 L362.62,55.53 L363.37,55.54 L364.11,55.55 L364.86,55.56 L365.61,55.58 L366.35,55.60 L367.10,55.62 L367.84,55.65 L368.59,55.68 L369.34,55.71 L370.08,55.74 L370.83,55.78 L371.57,55.82 L372.32,55.87 L373.07,55.92 L373.81,55.97 L374.56,56.02 L375.30,56.08 L376.05,56.14 L376.80,56.20 L377.54,56.27 L378.29,56.34 L379.04,56.41 L379.78,56.49 L380.53,56.57 L381.27,56.65 L382.02,56.74 L382.77,56.83 L383.51,56.92 L384.26,57.01 L385.00,57.11 L385.75,57.21 L386.50,57.32 L387.24,57.43 L387.99,57.54 L388.74,57.65 L389.48,57.77 L390.23,57.89 L390.97,58.01 L391.72,58.14 L392.47,58.27 L393.21,58.40 L393.96,58.54 L394.70,58.67 L395.45,58.82 L396.20,58.96 L396.94,59.11 L397.69,59.26 L398.43,59.41 L399.18,59.57 L399.93,59.73 L400.67,59.90 L401.42,60.06 L402.17,60.23 L402.91,60.40 L403.66,60.58 L404.40,60.76 L405.15,60.94 L405.90,61.13 L406.64,61.31 L407.39,61.50 L408.13,61.70 L408.88,61.90 L409.63,62.10 L410.37,62.30 L411.12,62.51 L411.87,62.71 L412.61,62.93 L413.36,63.14 L414.10,63.36 L414.85,63.58 L415.60,63.81 L416.34,64.03 L417.09,64.26 L417.83,64.50 L418.58,64.73 L419.33,64.97 L420.07,65.22 L420.82,65.46 L421.57,65.71 L422.31,65.96 L423.06,66.21 L423.80,66.47 L424.55,66.73 L425.30,67.00 L426.04,67.26 L426.79,67.53 L427.53,67.80 L428.28,68.08 L429.03,68.35 L429.77,68.64 L430.52,68.92 L431.26,69.21 L432.01,69.50 L432.76,69.79 L433.50,70.08 L434.25,70.38 L435.00,70.68 L435.74,70.99 L436.49,71.29 L437.23,71.60 L437.98,71.92 L438.73,72.23 L439.47,72.55 L440.22,72.87 L440.96,73.19 L441.71,73.52 L442.46,73.85 L443.20,74.18 L443.95,74.52 L444.70,74.86 L445.44,75.20 L446.19,75.54 L446.93,75.89 L447.68,76.24 L448.43,76.59 L449.17,76.94 L449.92,77.30 L450.66,77.66 L451.41,78.02 L452.16,78.39 L452.90,78.76 L453.65,79.13 L454.39,79.51 L455.14,79.88 L455.89,80.26 L456.63,80.64 L457.38,81.03 L458.13,81.42 L458.87,81.81 L459.62,82.20 L460.36,82.60 L461.11,82.99 L461.86,83.40 L462.60,83.80 L463.35,84.21 L464.09,84.61 L464.84,85.03 L465.59,85.44 L466.33,85.86 L467.08,86.28 L467.83,86.70 L468.57,87.12 L469.32,87.55 L470.06,87.98 L470.81,88.41 L471.56,88.85 L472.30,89.29 L473.05,89.73 L473.79,90.17 L474.54,90.61 L475.29,91.06 L476.03,91.51 L476.78,91.96 L477.53,92.42 L478.27,92.88 L479.02,93.34 L479.76,93.80 L480.51,94.27 L481.26,94.73 L482.00,95.20 L482.75,95.68 L483.49,96.15 L484.24,96.63 L484.99,97.11 L485.73,97.59 L486.48,98.08 L487.22,98.56 L487.97,99.05 L488.72,99.54 L489.46,100.04 L490.21,100.53 L490.96,101.03 L491.70,101.53 L492.45,102.04 L493.19,102.54 L493.94,103.05 L494.69,103.56 L495.43,104.08 L496.18,104.59 L496.92,105.11 L497.67,105.63 L498.42,106.15 L499.16,106.67 L499.91,107.20 L500.66,107.73 L501.40,108.26 L502.15,108.79 L502.89,109.33 L503.64,109.87 L504.39,110.41 L505.13,110.95 L505.88,111.49 L506.62,112.04 L507.37,112.59 L508.12,113.14 L508.86,113.69 L509.61,114.24 L510.35,114.80 L511.10,115.36 L511.85,115.92 L512.59,116.48 L513.34,117.05 L514.09,117.61 L514.83,118.18 L515.58,118.76 L516.32,119.33 L517.07,119.90 L517.82,120.48 L518.56,121.06 L519.31,121.64 L520.05,122.22 L520.80,122.81 L521.55,123.40 L522.29,123.99 L523.04,124.58 L523.79,125.17 L524.53,125.76 L525.28,126.36 L526.02,126.96 L526.77,127.56 L527.52,128.16 L528.26,128.77 L529.01,129.37 L529.75,129.98 L530.50,130.59 L531.25,131.20 L531.99,131.82 L532.74,132.43 L533.48,133.05 L534.23,133.67 L534.98,134.29 L535.72,134.91 L536.47,135.53 L537.22,136.16 L537.96,136.79 L538.71,137.41 L539.45,138.05 L540.20,138.68 L540.95,139.31 L541.69,139.95 L542.44,140.59 L543.18,141.22 L543.93,141.86 L544.68,142.51 L545.42,143.15 L546.17,143.80 L546.92,144.44 L547.66,145.09 L548.41,145.74 L549.15,146.39 L549.90,147.05 L550.65,147.70 L551.39,148.36 L552.14,149.02 L552.88,149.67 L553.63,150.34 L554.38,151.00 L555.12,151.66 L555.87,152.33 L556.62,152.99 L557.36,153.66 L558.11,154.33 L558.85,155.00 L559.60,155.67 L560.35,156.35 L561.09,157.02 L561.84,157.70 L562.58,158.37 L563.33,159.05 L564.08,159.73 L564.82,160.41 L565.57,161.10 L566.31,161.78 L567.06,162.47 L567.81,163.15 L568.55,163.84 L569.30,164.53 L570.05,165.22 L570.79,165.91 L571.54,166.60 L572.28,167.30 L573.03,167.99 L573.78,168.69 L574.52,169.38 L575.27,170.08 L576.01,170.78 L576.76,171.48 L577.51,172.18 L578.25,172.88 L579.00,173.59 L579.75,174.29 L580.49,175.00 L581.24,175.71 L581.98,176.41 L582.73,177.12 L583.48,177.83 L584.22,178.54 L584.97,179.25 L585.71,179.97 L586.46,180.68 L587.21,181.39 L587.95,182.11 L588.70,182.82 L589.44,183.54 L590.19,184.26 L590.94,184.98 L591.68,185.70 L592.43,186.42 L593.18,187.14 L593.92,187.86 L594.67,188.58 L595.41,189.31 L596.16,190.03 L596.91,190.76 L597.65,191.48 L598.40,192.21 L599.14,192.94 L599.89,193.66 L600.64,194.39 L601.38,195.12 L602.13,195.85 L602.88,196.58 L603.62,197.31 L604.37,198.05 L605.11,198.78 L605.86,199.51 L606.61,200.25 L607.35,200.98 L608.10,201.71 L608.84,202.45 L609.59,203.19 L610.34,203.92 L611.08,204.66 L611.83,205.40 L612.58,206.13 L613.32,206.87 L614.07,207.61 L614.81,208.35 L615.56,209.09 L616.31,209.83 L617.05,210.57 L617.80,211.31 L618.54,212.05 L619.29,212.79 L620.04,213.54 L620.78,214.28 L621.53,215.02 L622.27,215.76 L623.02,216.51 L623.77,217.25 L624.51,217.99 L625.26,218.74 L626.01,219.48 L626.75,220.23 L627.50,220.97 L628.24,221.72 L628.99,222.46 L629.74,223.21 L630.48,223.95 L631.23,224.70 L631.97,225.44 L632.72,226.19 L633.47,226.93 L634.21,227.68 L634.96,228.42 L635.71,229.17 L636.45,229.92 L637.20,230.66 L637.94,231.41 L638.69,232.16 L639.44,232.90 L640.18,233.65 L640.93,234.39 L641.67,235.14 L642.42,235.89 L643.17,236.63 L643.91,237.38 L644.66,238.12 L645.40,238.87 L646.15,239.61 L646.90,240.36 L647.64,241.10 L648.39,241.85 L649.14,242.59 L649.88,243.34 L650.63,244.08 L651.37,244.83 L652.12,245.57 L652.87,246.32 L653.61,247.06 L654.36,247.80 L655.10,248.55 L655.85,249.29 L656.60,250.03 L657.34,250.77 L658.09,251.51 L658.84,252.26 L659.58,253.00 L660.33,253.74 L661.07,254.48 L661.82,255.22 L662.57,255.96 L663.31,256.70 L664.06,257.44 L664.80,258.17 L665.55,258.91 L666.30,259.65 L667.04,260.38 L667.79,261.12 L668.54,261.86 L669.28,262.59 L670.03,263.33 L670.77,264.06 L671.52,264.79 L672.27,265.53 L673.01,266.26 L673.76,266.99 L674.50,267.72 L675.25,268.45 L676.00,269.18 L676.74,269.91 L677.49,270.64 L678.23,271.37 L678.98,272.09 L679.73,272.82 L680.47,273.55 L681.22,274.27 L681.97,274.99 L682.71,275.72 L683.46,276.44 L684.20,277.16 L684.95,277.88 L685.70,278.60 L686.44,279.32 L687.19,280.04 L687.93,280.76 L688.68,281.48 L689.43,282.19 L690.17,282.91 L690.92,283.62 L691.67,284.33 L692.41,285.04 L693.16,285.76 L693.90,286.47 L694.65,287.18 L695.40,287.88 L696.14,288.59 L696.89,289.30 L697.63,290.00 L698.38,290.71 L699.13,291.41 L699.87,292.11 L700.62,292.81 L701.36,293.51 L702.11,294.21 L702.86,294.91 L703.60,295.61 L704.35,296.30 L705.10,297.00 L705.84,297.69 L706.59,298.38 L707.33,299.07 L708.08,299.76 L708.83,300.45 L709.57,301.14 L710.32,301.82 L711.06,302.51 L711.81,303.19 L712.56,303.87 L713.30,304.55 L714.05,305.23 L714.80,305.91 L715.54,306.59 L716.29,307.26 L717.03,307.94 L717.78,308.61 L718.53,309.28 L719.27,309.95 L720.02,310.62 L720.76,311.29 L721.51,311.96 L722.26,312.62 L723.00,313.28 L723.75,313.94 L724.49,314.60 L725.24,315.26 L725.99,315.92 L726.73,316.58 L727.48,317.23 L728.23,317.88 L728.97,318.53 L729.72,319.18 L730.46,319.83 L731.21,320.48 L731.96,321.12 L732.70,321.77 L733.45,322.41 L734.19,323.05 L734.94,323.69 L735.69,324.32 L736.43,324.96 L737.18,325.59 L737.93,326.22 L738.67,326.85 L739.42,327.48 L740.16,328.11 L740.91,328.73 L741.66,329.36 L742.40,329.98 L743.15,330.60 L743.89,331.22 L744.64,331.83 L745.39,332.45 L746.13,333.06 L746.88,333.67 L747.63,334.28 L748.37,334.89 L749.12,335.49 L749.86,336.10 L750.61,336.70 L751.36,337.30 L752.10,337.89 L752.85,338.49 L753.59,339.09 L754.34,339.68 L755.09,340.27 L755.83,340.86 L756.58,341.44 L757.32,342.03 L758.07,342.61 L758.82,343.19 L759.56,343.77 L760.31,344.34 L761.06,344.92 L761.80,345.49 L762.55,346.06 L763.29,346.63 L764.04,347.20 L764.79,347.76 L765.53,348.32 L766.28,348.88 L767.02,349.44 L767.77,350.00 L768.52,350.55 L769.26,351.10 L770.01,351.65 L770.76,352.20 L771.50,352.75 L772.25,353.29 L772.99,353.83 L773.74,354.37 L774.49,354.91 L775.23,355.44 L775.98,355.97 L776.72,356.50 L777.47,357.03 L778.22,357.56 L778.96,358.08 L779.71,358.60 L780.45,359.12 L781.20,359.64 L781.95,360.15 L782.69,360.66 L783.44,361.17 L784.19,361.68 L784.93,362.18 L785.68,362.69 L786.42,363.19 L787.17,363.69 L787.92,364.18 L788.66,364.67 L789.41,365.17 L790.15,365.65 L790.90,366.14 L791.65,366.62 L792.39,367.11 L793.14,367.58 L793.89,368.06 L794.63,368.53 L795.38,369.01 L796.12,369.48 L796.87,369.94 L797.62,370.41 L798.36,370.87 L799.11,371.33 L799.85,371.79 L800.60,372.24 L801.35,372.69 L802.09,373.14 L802.84,373.59 L803.59,374.03 L804.33,374.47 L805.08,374.91 L805.82,375.35 L806.57,375.78 L807.32,376.22 L808.06,376.64 L808.81,377.07 L809.55,377.49 L810.30,377.92 L811.05,378.33 L811.79,378.75 L812.54,379.16 L813.28,379.57 L814.03,379.98 L814.78,380.39 L815.52,380.79 L816.27,381.19 L817.02,381.59 L817.76,381.98 L818.51,382.37 L819.25,382.76 L820.00,383.15" style="stroke-width: 2; stroke: rgb(74, 144, 226); stroke-opacity: 0.8;"/><path d=" M0.00,425.37 L0.75,423.85 L1.49,422.33 L2.24,420.81 L2.98,419.29 L3.73,417.78 L4.48,416.27 L5.22,414.76 L5.97,413.25 L6.72,411.75 L7.46,410.26 L8.21,408.76 L8.95,407.27 L9.70,405.78 L10.45,404.30 L11.19,402.82 L11.94,401.34 L12.68,399.86 L13.43,398.39 L14.18,396.92 L14.92,395.45 L15.67,393.99 L16.41,392.53 L17.16,391.08 L17.91,389.62 L18.65,388.17 L19.40,386.73 L20.15,385.28 L20.89,383.84 L21.64,382.40 L22.38,380.97 L23.13,379.54 L23.88,378.11 L24.62,376.68 L25.37,375.26 L26.11,373.84 L26.86,372.43 L27.61,371.02 L28.35,369.61 L29.10,368.20 L29.85,366.80 L30.59,365.40 L31.34,364.00 L32.08,362.61 L32.83,361.22 L33.58,359.83 L34.32,358.45 L35.07,357.07 L35.81,355.69 L36.56,354.31 L37.31,352.94 L38.05,351.57 L38.80,350.21 L39.55,348.85 L40.29,347.49 L41.04,346.13 L41.78,344.78 L42.53,343.43 L43.28,342.08 L44.02,340.74 L44.77,339.40 L45.51,338.07 L46.26,336.73 L47.01,335.40 L47.75,334.07 L48.50,332.75 L49.24,331.43 L49.99,330.11 L50.74,328.80 L51.48,327.49 L52.23,326.18 L52.98,324.87 L53.72,323.57 L54.47,322.27 L55.21,320.98 L55.96,319.68 L56.71,318.39 L57.45,317.11 L58.20,315.82 L58.94,314.55 L59.69,313.27 L60.44,311.99 L61.18,310.72 L61.93,309.46 L62.68,308.19 L63.42,306.93 L64.17,305.67 L64.91,304.42 L65.66,303.17 L66.41,301.92 L67.15,300.67 L67.90,299.43 L68.64,298.19 L69.39,296.96 L70.14,295.73 L70.88,294.50 L71.63,293.27 L72.37,292.05 L73.12,290.83 L73.87,289.61 L74.61,288.40 L75.36,287.19 L76.11,285.98 L76.85,284.77 L77.60,283.57 L78.34,282.38 L79.09,281.18 L79.84,279.99 L80.58,278.80 L81.33,277.62 L82.07,276.43 L82.82,275.25 L83.57,274.08 L84.31,272.91 L85.06,271.74 L85.81,270.57 L86.55,269.41 L87.30,268.25 L88.04,267.09 L88.79,265.94 L89.54,264.79 L90.28,263.64 L91.03,262.49 L91.77,261.35 L92.52,260.22 L93.27,259.08 L94.01,257.95 L94.76,256.82 L95.51,255.70 L96.25,254.57 L97.00,253.45 L97.74,252.34 L98.49,251.23 L99.24,250.12 L99.98,249.01 L100.73,247.91 L101.47,246.81 L102.22,245.71 L102.97,244.62 L103.71,243.52 L104.46,242.44 L105.20,241.35 L105.95,240.27 L106.70,239.19 L107.44,238.12 L108.19,237.05 L108.94,235.98 L109.68,234.91 L110.43,233.85 L111.17,232.79 L111.92,231.74 L112.67,230.68 L113.41,229.63 L114.16,228.59 L114.90,227.54 L115.65,226.50 L116.40,225.47 L117.14,224.43 L117.89,223.40 L118.64,222.37 L119.38,221.35 L120.13,220.33 L120.87,219.31 L121.62,218.30 L122.37,217.28 L123.11,216.28 L123.86,215.27 L124.60,214.27 L125.35,213.27 L126.10,212.27 L126.84,211.28 L127.59,210.29 L128.33,209.30 L129.08,208.32 L129.83,207.34 L130.57,206.36 L131.32,205.39 L132.07,204.42 L132.81,203.45 L133.56,202.49 L134.30,201.53 L135.05,200.57 L135.80,199.61 L136.54,198.66 L137.29,197.71 L138.03,196.77 L138.78,195.82 L139.53,194.88 L140.27,193.95 L141.02,193.02 L141.77,192.09 L142.51,191.16 L143.26,190.24 L144.00,189.32 L144.75,188.40 L145.50,187.48 L146.24,186.57 L146.99,185.67 L147.73,184.76 L148.48,183.86 L149.23,182.96 L149.97,182.07 L150.72,181.17 L151.46,180.29 L152.21,179.40 L152.96,178.52 L153.70,177.64 L154.45,176.76 L155.20,175.89 L155.94,175.02 L156.69,174.15 L157.43,173.29 L158.18,172.43 L158.93,171.57 L159.67,170.72 L160.42,169.87 L161.16,169.02 L161.91,168.17 L162.66,167.33 L163.40,166.50 L164.15,165.66 L164.90,164.83 L165.64,164.00 L166.39,163.17 L167.13,162.35 L167.88,161.53 L168.63,160.72 L169.37,159.90 L170.12,159.09 L170.86,158.29 L171.61,157.48 L172.36,156.68 L173.10,155.88 L173.85,155.09 L174.60,154.30 L175.34,153.51 L176.09,152.73 L176.83,151.95 L177.58,151.17 L178.33,150.39 L179.07,149.62 L179.82,148.85 L180.56,148.09 L181.31,147.32 L182.06,146.56 L182.80,145.81 L183.55,145.05 L184.29,144.30 L185.04,143.56 L185.79,142.81 L186.53,142.07 L187.28,141.34 L188.03,140.60 L188.77,139.87 L189.52,139.14 L190.26,138.42 L191.01,137.70 L191.76,136.98 L192.50,136.26 L193.25,135.55 L193.99,134.84 L194.74,134.14 L195.49,133.43 L196.23,132.73 L196.98,132.04 L197.73,131.34 L198.47,130.65 L199.22,129.97 L199.96,129.28 L200.71,128.60 L201.46,127.93 L202.20,127.25 L202.95,126.58 L203.69,125.91 L204.44,125.25 L205.19,124.59 L205.93,123.93 L206.68,123.27 L207.42,122.62 L208.17,121.97 L208.92,121.33 L209.66,120.68 L210.41,120.04 L211.16,119.41 L211.90,118.77 L212.65,118.14 L213.39,117.52 L214.14,116.89 L214.89,116.27 L215.63,115.65 L216.38,115.04 L217.12,114.43 L217.87,113.82 L218.62,113.22 L219.36,112.61 L220.11,112.02 L220.86,111.42 L221.60,110.83 L222.35,110.24 L223.09,109.65 L223.84,109.07 L224.59,108.49 L225.33,107.91 L226.08,107.34 L226.82,106.77 L227.57,106.20 L228.32,105.64 L229.06,105.08 L229.81,104.52 L230.56,103.97 L231.30,103.42 L232.05,102.87 L232.79,102.32 L233.54,101.78 L234.29,101.24 L235.03,100.71 L235.78,100.18 L236.52,99.65 L237.27,99.12 L238.02,98.60 L238.76,98.08 L239.51,97.56 L240.25,97.05 L241.00,96.54 L241.75,96.03 L242.49,95.53 L243.24,95.03 L243.99,94.53 L244.73,94.03 L245.48,93.54 L246.22,93.05 L246.97,92.57 L247.72,92.09 L248.46,91.61 L249.21,91.13 L249.95,90.66 L250.70,90.19 L251.45,89.73 L252.19,89.26 L252.94,88.80 L253.69,88.35 L254.43,87.89 L255.18,87.44 L255.92,87.00 L256.67,86.55 L257.42,86.11 L258.16,85.67 L258.91,85.24 L259.65,84.81 L260.40,84.38 L261.15,83.95 L261.89,83.53 L262.64,83.11 L263.38,82.70 L264.13,82.28 L264.88,81.88 L265.62,81.47 L266.37,81.07 L267.12,80.67 L267.86,80.27 L268.61,79.88 L269.35,79.49 L270.10,79.10 L270.85,78.71 L271.59,78.33 L272.34,77.96 L273.08,77.58 L273.83,77.21 L274.58,76.84 L275.32,76.48 L276.07,76.11 L276.82,75.76 L277.56,75.40 L278.31,75.05 L279.05,74.70 L279.80,74.35 L280.55,74.01 L281.29,73.67 L282.04,73.33 L282.78,73.00 L283.53,72.67 L284.28,72.34 L285.02,72.02 L285.77,71.70 L286.52,71.38 L287.26,71.06 L288.01,70.75 L288.75,70.44 L289.50,70.14 L290.25,69.84 L290.99,69.54 L291.74,69.24 L292.48,68.95 L293.23,68.66 L293.98,68.37 L294.72,68.09 L295.47,67.81 L296.21,67.53 L296.96,67.26 L297.71,66.99 L298.45,66.72 L299.20,66.46 L299.95,66.20 L300.69,65.94 L301.44,65.68 L302.18,65.43 L302.93,65.18 L303.68,64.94 L304.42,64.70 L305.17,64.46 L305.91,64.22 L306.66,63.99 L307.41,63.76 L308.15,63.53 L308.90,63.31 L309.65,63.09 L310.39,62.87 L311.14,62.66 L311.88,62.45 L312.63,62.24 L313.38,62.04 L314.12,61.84 L314.87,61.64 L315.61,61.44 L316.36,61.25 L317.11,61.06 L317.85,60.88 L318.60,60.70 L319.34,60.52 L320.09,60.34 L320.84,60.17 L321.58,60.00 L322.33,59.83 L323.08,59.67 L323.82,59.51 L324.57,59.35 L325.31,59.20 L326.06,59.05 L326.81,58.90 L327.55,58.76 L328.30,58.62 L329.04,58.48 L329.79,58.34 L330.54,58.21 L331.28,58.08 L332.03,57.96 L332.78,57.83 L333.52,57.72 L334.27,57.60 L335.01,57.49 L335.76,57.38 L336.51,57.27 L337.25,57.17 L338.00,57.07 L338.74,56.97 L339.49,56.88 L340.24,56.79 L340.98,56.70 L341.73,56.61 L342.47,56.53 L343.22,56.45 L343.97,56.38 L344.71,56.31 L345.46,56.24 L346.21,56.17 L346.95,56.11 L347.70,56.05 L348.44,56.00 L349.19,55.94 L349.94,55.89 L350.68,55.85 L351.43,55.80 L352.17,55.76 L352.92,55.73 L353.67,55.69 L354.41,55.66 L355.16,55.63 L355.91,55.61 L356.65,55.59 L357.40,55.57 L358.14,55.55 L358.89,55.54 L359.64,55.53 L360.38,55.53 L361.13,55.53 L361.87,55.53 L362.62,55.53 L363.37,55.54 L364.11,55.55 L364.86,55.56 L365.61,55.58 L366.35,55.60 L367.10,55.62 L367.84,55.65 L368.59,55.68 L369.34,55.71 L370.08,55.74 L370.83,55.78 L371.57,55.82 L372.32,55.87 L373.07,55.92 L373.81,55.97 L374.56,56.02 L375.30,56.08 L376.05,56.14 L376.80,56.20 L377.54,56.27 L378.29,56.34 L379.04,56.42 L379.78,56.49 L380.53,56.57 L381.27,56.65 L382.02,56.74 L382.77,56.83 L383.51,56.92 L384.26,57.02 L385.00,57.12 L385.75,57.22 L386.50,57.32 L387.24,57.43 L387.99,57.54 L388.74,57.66 L389.48,57.77 L390.23,57.89 L390.97,58.02 L391.72,58.14 L392.47,58.27 L393.21,58.41 L393.96,58.54 L394.70,58.68 L395.45,58.83 L396.20,58.97 L396.94,59.12 L397.69,59.27 L398.43,59.43 L399.18,59.59 L399.93,59.75 L400.67,59.91 L401.42,60.08 L402.17,60.25 L402.91,60.43 L403.66,60.60 L404.40,60.79 L405.15,60.97 L405.90,61.16 L406.64,61.35 L407.39,61.54 L408.13,61.74 L408.88,61.93 L409.63,62.14 L410.37,62.34 L411.12,62.55 L411.87,62.76 L412.61,62.98 L413.36,63.20 L414.10,63.42 L414.85,63.64 L415.60,63.87 L416.34,64.10 L417.09,64.34 L417.83,64.57 L418.58,64.82 L419.33,65.06 L420.07,65.31 L420.82,65.56 L421.57,65.81 L422.31,66.06 L423.06,66.32 L423.80,66.59 L424.55,66.85 L425.30,67.12 L426.04,67.39 L426.79,67.67 L427.53,67.95 L428.28,68.23 L429.03,68.51 L429.77,68.80 L430.52,69.09 L431.26,69.39 L432.01,69.68 L432.76,69.98 L433.50,70.29 L434.25,70.59 L435.00,70.90 L435.74,71.22 L436.49,71.53 L437.23,71.85 L437.98,72.18 L438.73,72.50 L439.47,72.83 L440.22,73.16 L440.96,73.50 L441.71,73.84 L442.46,74.18 L443.20,74.52 L443.95,74.87 L444.70,75.22 L445.44,75.57 L446.19,75.93 L446.93,76.29 L447.68,76.65 L448.43,77.02 L449.17,77.39 L449.92,77.76 L450.66,78.14 L451.41,78.52 L452.16,78.90 L452.90,79.29 L453.65,79.68 L454.39,80.07 L455.14,80.46 L455.89,80.86 L456.63,81.26 L457.38,81.67 L458.13,82.08 L458.87,82.49 L459.62,82.90 L460.36,83.32 L461.11,83.74 L461.86,84.16 L462.60,84.59 L463.35,85.02 L464.09,85.45 L464.84,85.89 L465.59,86.33 L466.33,86.77 L467.08,87.21 L467.83,87.66 L468.57,88.11 L469.32,88.57 L470.06,89.03 L470.81,89.49 L471.56,89.95 L472.30,90.42 L473.05,90.89 L473.79,91.37 L474.54,91.84 L475.29,92.32 L476.03,92.81 L476.78,93.29 L477.53,93.78 L478.27,94.28 L479.02,94.77 L479.76,95.27 L480.51,95.77 L481.26,96.28 L482.00,96.79 L482.75,97.30 L483.49,97.81 L484.24,98.33 L484.99,98.85 L485.73,99.38 L486.48,99.90 L487.22,100.44 L487.97,100.97 L488.72,101.51 L489.46,102.05 L490.21,102.59 L490.96,103.14 L491.70,103.69 L492.45,104.24 L493.19,104.79 L493.94,105.35 L494.69,105.92 L495.43,106.48 L496.18,107.05 L496.92,107.62 L497.67,108.20 L498.42,108.77 L499.16,109.36 L499.91,109.94 L500.66,110.53 L501.40,111.12 L502.15,111.71 L502.89,112.31 L503.64,112.91 L504.39,113.51 L505.13,114.12 L505.88,114.73 L506.62,115.34 L507.37,115.96 L508.12,116.58 L508.86,117.20 L509.61,117.82 L510.35,118.45 L511.10,119.08 L511.85,119.72 L512.59,120.36 L513.34,121.00 L514.09,121.64 L514.83,122.29 L515.58,122.94 L516.32,123.59 L517.07,124.25 L517.82,124.91 L518.56,125.57 L519.31,126.24 L520.05,126.91 L520.80,127.58 L521.55,128.26 L522.29,128.94 L523.04,129.62 L523.79,130.30 L524.53,130.99 L525.28,131.68 L526.02,132.38 L526.77,133.08 L527.52,133.78 L528.26,134.48 L529.01,135.19 L529.75,135.90 L530.50,136.61 L531.25,137.33 L531.99,138.05 L532.74,138.77 L533.48,139.50 L534.23,140.23 L534.98,140.96 L535.72,141.70 L536.47,142.44 L537.22,143.18 L537.96,143.92 L538.71,144.67 L539.45,145.42 L540.20,146.18 L540.95,146.93 L541.69,147.70 L542.44,148.46 L543.18,149.23 L543.93,150.00 L544.68,150.77 L545.42,151.55 L546.17,152.33 L546.92,153.11 L547.66,153.90 L548.41,154.69 L549.15,155.48 L549.90,156.27 L550.65,157.07 L551.39,157.88 L552.14,158.68 L552.88,159.49 L553.63,160.30 L554.38,161.11 L555.12,161.93 L555.87,162.75 L556.62,163.58 L557.36,164.40 L558.11,165.23 L558.85,166.07 L559.60,166.91 L560.35,167.74 L561.09,168.59 L561.84,169.43 L562.58,170.28 L563.33,171.14 L564.08,171.99 L564.82,172.85 L565.57,173.71 L566.31,174.58 L567.06,175.45 L567.81,176.32 L568.55,177.19 L569.30,178.07 L570.05,178.95 L570.79,179.83 L571.54,180.72 L572.28,181.61 L573.03,182.50 L573.78,183.40 L574.52,184.30 L575.27,185.20 L576.01,186.11 L576.76,187.02 L577.51,187.93 L578.25,188.85 L579.00,189.77 L579.75,190.69 L580.49,191.61 L581.24,192.54 L581.98,193.47 L582.73,194.41 L583.48,195.34 L584.22,196.28 L584.97,197.23 L585.71,198.18 L586.46,199.13 L587.21,200.08 L587.95,201.04 L588.70,202.00 L589.44,202.96 L590.19,203.92 L590.94,204.89 L591.68,205.87 L592.43,206.84 L593.18,207.82 L593.92,208.80 L594.67,209.79 L595.41,210.77 L596.16,211.77 L596.91,212.76 L597.65,213.76 L598.40,214.76 L599.14,215.76 L599.89,216.77 L600.64,217.78 L601.38,218.79 L602.13,219.81 L602.88,220.83 L603.62,221.85 L604.37,222.88 L605.11,223.91 L605.86,224.94 L606.61,225.97 L607.35,227.01 L608.10,228.05 L608.84,229.10 L609.59,230.15 L610.34,231.20 L611.08,232.25 L611.83,233.31 L612.58,234.37 L613.32,235.43 L614.07,236.50 L614.81,237.57 L615.56,238.64 L616.31,239.72 L617.05,240.80 L617.80,241.88 L618.54,242.97 L619.29,244.06 L620.04,245.15 L620.78,246.25 L621.53,247.34 L622.27,248.45 L623.02,249.55 L623.77,250.66 L624.51,251.77 L625.26,252.88 L626.01,254.00 L626.75,255.12 L627.50,256.25 L628.24,257.37 L628.99,258.50 L629.74,259.64 L630.48,260.77 L631.23,261.91 L631.97,263.05 L632.72,264.20 L633.47,265.35 L634.21,266.50 L634.96,267.66 L635.71,268.81 L636.45,269.98 L637.20,271.14 L637.94,272.31 L638.69,273.48 L639.44,274.65 L640.18,275.83 L640.93,277.01 L641.67,278.20 L642.42,279.38 L643.17,280.57 L643.91,281.76 L644.66,282.96 L645.40,284.16 L646.15,285.36 L646.90,286.57 L647.64,287.78 L648.39,288.99 L649.14,290.21 L649.88,291.42 L650.63,292.64 L651.37,293.87 L652.12,295.10 L652.87,296.33 L653.61,297.56 L654.36,298.80 L655.10,300.04 L655.85,301.28 L656.60,302.53 L657.34,303.78 L658.09,305.03 L658.84,306.29 L659.58,307.55 L660.33,308.81 L661.07,310.08 L661.82,311.35 L662.57,312.62 L663.31,313.89 L664.06,315.17 L664.80,316.45 L665.55,317.74 L666.30,319.02 L667.04,320.32 L667.79,321.61 L668.54,322.91 L669.28,324.21 L670.03,325.51 L670.77,326.82 L671.52,328.13 L672.27,329.44 L673.01,330.76 L673.76,332.08 L674.50,333.40 L675.25,334.72 L676.00,336.05 L676.74,337.38 L677.49,338.72 L678.23,340.06 L678.98,341.40 L679.73,342.74 L680.47,344.09 L681.22,345.44 L681.97,346.80 L682.71,348.15 L683.46,349.51 L684.20,350.88 L684.95,352.24 L685.70,353.61 L686.44,354.99 L687.19,356.36 L687.93,357.74 L688.68,359.12 L689.43,360.51 L690.17,361.90 L690.92,363.29 L691.67,364.68 L692.41,366.08 L693.16,367.48 L693.90,368.89 L694.65,370.30 L695.40,371.71 L696.14,373.12 L696.89,374.54 L697.63,375.96 L698.38,377.38 L699.13,378.81 L699.87,380.24 L700.62,381.67 L701.36,383.11 L702.11,384.55 L702.86,385.99 L703.60,387.43 L704.35,388.88 L705.10,390.33 L705.84,391.79 L706.59,393.25 L707.33,394.71 L708.08,396.17 L708.83,397.64 L709.57,399.11 L710.32,400.58 L711.06,402.06 L711.81,403.54 L712.56,405.02 L713.30,406.51 L714.05,408.00 L714.80,409.49 L715.54,410.99 L716.29,412.49 L717.03,413.99 L717.78,415.50 L718.53,417.00 L719.27,418.52 L720.02,420.03 L720.76,421.55 L721.51,423.07 L722.26,424.59 L723.00,426.12 L723.75,427.65 L724.49,429.19 L725.24,430.72 L725.99,432.26 L726.73,433.81 L727.48,435.35 L728.23,436.90 L728.97,438.45 L729.72,440.01 L730.46,441.57 L731.21,443.13 L731.96,444.70 L732.70,446.27 L733.45,447.84 L734.19,449.41 L734.94,450.99 L735.69,452.57 L736.43,454.16 L737.18,455.74 L737.93,457.33 L738.67,458.93 L739.42,460.52 L740.16,462.12 L740.91,463.73 L741.66,465.33 L742.40,466.94 L743.15,468.56 L743.89,470.17 L744.64,471.79 L745.39,473.41 L746.13,475.04 L746.88,476.67 L747.63,478.30 L748.37,479.93 L749.12,481.57 L749.86,483.21 L750.61,484.86 L751.36,486.50 L752.10,488.15 L752.85,489.81 L753.59,491.46 L754.34,493.12 L755.09,494.79 L755.83,496.45 L756.58,498.12 L757.32,499.79 L758.07,501.47 L758.82,503.15 L759.56,504.83 L760.31,506.52 L761.06,508.20 L761.80,509.90 L762.55,511.59 L763.29,513.29 L764.04,514.99 L764.79,516.69 L765.53,518.40 L766.28,520.11 L767.02,521.82 L767.77,523.54 L768.52,525.26 L769.26,526.98 L770.01,528.71 L770.76,530.44 L771.50,532.17 L772.25,533.91 L772.99,535.65 L773.74,537.39 L774.49,539.13 L775.23,540.00 L775.98,540.00 L776.72,540.00 L777.47,540.00 L778.22,540.00 L778.96,540.00 L779.71,540.00 L780.45,540.00 L781.20,540.00 L781.95,540.00 L782.69,540.00 L783.44,540.00 L784.19,540.00 L784.93,540.00 L785.68,540.00 L786.42,540.00 L787.17,540.00 L787.92,540.00 L788.66,540.00 L789.41,540.00 L790.15,540.00 L790.90,540.00 L791.65,540.00 L792.39,540.00 L793.14,540.00 L793.89,540.00 L794.63,540.00 L795.38,540.00 L796.12,540.00 L796.87,540.00 L797.62,540.00 L798.36,540.00 L799.11,540.00 L799.85,540.00 L800.60,540.00 L801.35,540.00 L802.09,540.00 L802.84,540.00 L803.59,540.00 L804.33,540.00 L805.08,540.00 L805.82,540.00 L806.57,540.00 L807.32,540.00 L808.06,540.00 L808.81,540.00 L809.55,540.00 L810.30,540.00 L811.05,540.00 L811.79,540.00 L812.54,540.00 L813.28,540.00 L814.03,540.00 L814.78,540.00 L815.52,540.00 L816.27,540.00 L817.02,540.00 L817.76,540.00 L818.51,540.00 L819.25,540.00 L820.00,540.00" style="stroke-width: 2; stroke: rgb(60, 180, 75); stroke-opacity: 0.8;"/></g></g><g class="test-xtl" style="font-family: &quot;Open Sans&quot;, verdana, arial, sans-serif;"><text text-anchor="middle" font-size="20" dominant-baseline="hanging" stroke="none" fill="rgb(50,50,50)" fill-opacity="1" x="2.6321716104163144" y="239.01943468776912">-2</text><text text-anchor="middle" font-size="20" dominant-baseline="hanging" stroke="none" fill="rgb(50,50,50)" fill-opacity="1" x="90.87882623555322" y="239.01943468776912">-1.5</text><text text-anchor="middle" font-size="20" dominant-baseline="hanging" stroke="none" fill="rgb(50,50,50)" fill-opacity="1" x="179.12548086069015" y="239.01943468776912">-1</text><text text-anchor="middle" font-size="20" dominant-baseline="hanging" stroke="none" fill="rgb(50,50,50)" fill-opacity="1" x="267.3721354858271" y="239.01943468776912">-0.5</text><text text-anchor="middle" font-size="20" dominant-baseline="hanging" stroke="none" fill="rgb(50,50,50)" fill-opacity="1" x="449.56544473610086" y="239.01943468776912">0.5</text><text text-anchor="middle" font-size="20" dominant-baseline="hanging" stroke="none" fill="rgb(50,50,50)" fill-opacity="1" x="537.8120993612376" y="239.01943468776912">1</text><text text-anchor="middle" font-size="20" dominant-baseline="hanging" stroke="none" fill="rgb(50,50,50)" fill-opacity="1" x="626.0587539863747" y="239.01943468776912">1.5</text><text text-anchor="middle" font-size="20" dominant-baseline="hanging" stroke="none" fill="rgb(50,50,50)" fill-opacity="1" x="714.3054086115116" y="239.01943468776912">2</text><text text-anchor="middle" font-size="20" dominant-baseline="hanging" stroke="none" fill="rgb(50,50,50)" fill-opacity="1" x="802.5520632366485" y="239.01943468776912">2.5</text><text text-anchor="middle" font-size="20" dominant-baseline="hanging" stroke="none" fill="rgb(50,50,50)" fill-opacity="1" x="353.3187901109639" y="237.01943468776912">0</text></g><g class="test-ytl" style="font-family: &quot;Open Sans&quot;, verdana, arial, sans-serif;"><text text-anchor="end" dominant-baseline="middle" font-size="20" stroke="none" fill="rgb(50,50,50)" fill-opacity="1" x="353.31879011096396" y="143.77278006263222">0.5</text><text text-anchor="end" dominant-baseline="middle" font-size="20" stroke="none" fill="rgb(50,50,50)" fill-opacity="1" x="353.31879011096396" y="55.526125437495296">1</text></g><rect class="real" x="1" y="1" width="818" height="268" style="fill: transparent; stroke: none;"/></g></g></g><g/></g><g/><g/><g/></svg>
        <svg xmlns="http://www.w3.org/2000/svg" xmlns:xlink="http://www.w3.org/1999/xlink" width="860" height="310" style="width:860px;height:310px;font-family:ThickerLm-Math, ThickerLm, Asana-Math, Asana;background:#FFF;"><g><g><g><g transform="matrix(1,0,0,1,651.6667022705078,214.00001525878906)"><path transform="matrix(0.025,0,0,-0.025,0,0)" d="M556 636C556 686 507 710 465 710C429 710 365 690 334 589C328 567 325 560 301 436L236 436C218 436 202 435 202 412C202 395 217 396 234 396L295 396L221 6C203 -93 185 -178 138 -178C135 -178 117 -178 101 -168C140 -160 150 -127 150 -111C150 -85 129 -72 108 -72C80 -72 48 -95 48 -136C48 -185 96 -210 138 -210C196 -210 237 -148 255 -110C287 -46 310 75 311 82L371 396L453 396C472 396 488 396 488 420C488 436 471 436 456 436L378 435C388 487 387 488 398 544C402 565 417 637 422 647C431 665 446 678 465 678C468 678 486 679 503 668C466 659 456 627 456 611C456 585 476 572 497 572C525 572 556 595 556 636Z" stroke="rgb(0,0,0)" stroke-opacity="1" stroke-width="8" fill="rgb(0,0,0)" fill-opacity="1"></path></g></g><g><g transform="matrix(1,0,0,1,663.9167022705078,214.6666717529297)"><path transform="matrix(0.025,0,0,-0.025,0,0)" d="M336 -238C336 -233 334 -228 331 -226C229 -149 160 49 160 208L160 292C160 451 229 649 331 726C334 728 336 733 336 738C336 746 330 752 322 752C318 752 315 751 313 750C202 666 96 465 96 292L96 208C96 35 202 -166 313 -250C315 -251 318 -252 322 -252C330 -252 336 -246 336 -238Z" stroke="rgb(0,0,0)" stroke-opacity="1" stroke-width="8" fill="rgb(0,0,0)" fill-opacity="1"></path></g></g><g><g transform="matrix(1,0,0,1,673.6458282470703,214.00001525878906)"><path transform="matrix(0.025,0,0,-0.025,0,0)" d="M532 376C532 432 468 446 434 446C380 446 346 403 330 376C303 435 250 446 221 446C113 446 56 315 56 288C56 273 72 274 72 274C82 274 87 278 89 288C123 392 187 416 219 416C236 416 268 408 268 353C268 323 252 256 215 116C199 55 165 16 124 16C119 16 104 15 86 23C108 32 126 51 126 78C126 108 100 118 84 118C51 118 24 89 24 55C24 5 79 -16 123 -16C180 -16 215 33 227 54C242 19 278 -16 336 -16C443 -16 500 116 500 143C500 157 486 158 484 158C473 158 469 150 467 143C435 38 368 16 338 16C302 16 288 44 288 77C288 98 293 120 304 164L338 301C344 328 367 416 433 416C437 416 453 415 471 408C447 399 430 376 430 353C430 335 443 314 473 314C497 314 532 333 532 376Z" stroke="rgb(0,0,0)" stroke-opacity="1" stroke-width="8" fill="rgb(0,0,0)" fill-opacity="1"></path></g></g><g><g transform="matrix(1,0,0,1,687.9479522705078,214.6666717529297)"><path transform="matrix(0.025,0,0,-0.025,0,0)" d="M292 208L292 292C292 465 187 666 76 750C74 751 71 752 67 752C59 752 52 746 52 738C52 733 55 728 58 726C160 649 230 451 230 292L230 208C230 49 160 -149 58 -226C55 -228 52 -233 52 -238C52 -246 59 -252 67 -252C71 -252 74 -251 76 -250C187 -166 292 35 292 208Z" stroke="rgb(0,0,0)" stroke-opacity="1" stroke-width="8" fill="rgb(0,0,0)" fill-opacity="1"></path></g></g><g><g transform="matrix(1,0,0,1,705.1770782470703,214.00001525878906)"><path transform="matrix(0.025,0,0,-0.025,0,0)" d="M726 153C726 166 715 178 702 178L76 178C63 178 52 166 52 153C52 140 63 128 76 128L702 128C715 128 726 140 726 153ZM726 347C726 360 715 372 702 372L76 372C63 372 52 360 52 347C52 334 63 322 76 322L702 322C715 322 726 334 726 347Z" stroke="rgb(0,0,0)" stroke-opacity="1" stroke-width="8" fill="rgb(0,0,0)" fill-opacity="1"></path></g></g><g><g><g transform="matrix(1,0,0,1,732.1354522705078,214.00001525878906)"><path transform="matrix(0.025,0,0,-0.025,0,0)" d="M420 119C420 133 404 134 402 134C391 134 387 127 385 120C357 29 294 18 258 18C208 18 122 59 122 218C122 379 202 418 252 418C260 418 315 417 349 389C314 382 308 354 308 340C308 312 328 290 358 290C386 290 408 309 408 341C408 413 329 452 251 452C123 452 30 342 30 216C30 86 130 -16 249 -16C386 -16 420 107 420 119ZM828 222C828 186 827 133 806 90C785 46 742 18 694 18C652 18 610 38 584 83C560 125 560 186 560 222C560 261 560 314 583 357C609 401 654 422 693 422C735 422 777 401 802 359C827 317 828 260 828 222ZM920 214C920 344 818 452 694 452C566 452 468 341 468 214C468 82 574 -16 693 -16C816 -16 920 85 920 214ZM1231 426C1193 452 1152 452 1137 452C1013 452 972 383 972 325C972 289 989 260 1017 237C1050 210 1079 204 1151 190C1174 186 1252 170 1252 102C1252 54 1219 16 1143 16C1062 16 1027 70 1008 154C1005 167 1003 174 990 174C973 174 972 162 972 145L972 13C972 -3 973 -16 988 -16C1001 -16 1016 7 1033 26C1077 -14 1122 -16 1143 -16C1260 -16 1308 54 1308 128C1308 183 1277 214 1265 226C1231 259 1191 267 1149 275C1092 286 1030 300 1030 353C1030 385 1053 424 1137 424C1243 424 1248 339 1250 308C1251 294 1266 294 1266 294C1283 294 1284 305 1284 323L1284 424C1284 440 1283 452 1268 452C1258 452 1242 436 1231 426Z" stroke="rgb(0,0,0)" stroke-opacity="1" stroke-width="8" fill="rgb(0,0,0)" fill-opacity="1"></path></g></g></g><g><g transform="matrix(1,0,0,1,770.5937652587891,214.00001525878906)"><path transform="matrix(0.025,0,0,-0.025,0,0)" d="M532 376C532 432 468 446 434 446C380 446 346 403 330 376C303 435 250 446 221 446C113 446 56 315 56 288C56 273 72 274 72 274C82 274 87 278 89 288C123 392 187 416 219 416C236 416 268 408 268 353C268 323 252 256 215 116C199 55 165 16 124 16C119 16 104 15 86 23C108 32 126 51 126 78C126 108 100 118 84 118C51 118 24 89 24 55C24 5 79 -16 123 -16C180 -16 215 33 227 54C242 19 278 -16 336 -16C443 -16 500 116 500 143C500 157 486 158 484 158C473 158 469 150 467 143C435 38 368 16 338 16C302 16 288 44 288 77C288 98 293 120 304 164L338 301C344 328 367 416 433 416C437 416 453 415 471 408C447 399 430 376 430 353C430 335 443 314 473 314C497 314 532 333 532 376Z" stroke="rgb(0,0,0)" stroke-opacity="1" stroke-width="8" fill="rgb(0,0,0)" fill-opacity="1"></path></g></g></g></g><g><g><g><g transform="matrix(1,0,0,1,211.6666717529297,218.3541717529297)"><path transform="matrix(0.025,0,0,-0.025,0,0)" d="M388 334C388 330 386 324 385 320L337 129C331 105 309 80 287 61C266 43 236 26 209 26C163 26 148 74 148 114C148 161 178 279 204 329C231 377 273 416 312 416C373 416 388 341 388 334ZM478 395C478 415 464 426 445 426C435 426 411 421 402 392C382 424 349 446 311 446C194 446 68 304 68 158C68 57 131 -4 206 -4C255 -4 295 27 315 45L286 -74C282 -84 248 -178 146 -178C130 -178 106 -178 80 -172C102 -160 112 -137 112 -121C112 -103 99 -82 69 -82C45 -82 10 -101 10 -144C10 -189 52 -210 148 -210C275 -210 348 -130 364 -68L475 376C476 381 478 387 478 395Z" stroke="rgb(0,0,0)" stroke-opacity="1" stroke-width="8" fill="rgb(0,0,0)" fill-opacity="1"></path></g></g><g><g transform="matrix(1,0,0,1,223.59376525878906,219.0208282470703)"><path transform="matrix(0.025,0,0,-0.025,0,0)" d="M336 -238C336 -233 334 -228 331 -226C229 -149 160 49 160 208L160 292C160 451 229 649 331 726C334 728 336 733 336 738C336 746 330 752 322 752C318 752 315 751 313 750C202 666 96 465 96 292L96 208C96 35 202 -166 313 -250C315 -251 318 -252 322 -252C330 -252 336 -246 336 -238Z" stroke="rgb(0,0,0)" stroke-opacity="1" stroke-width="8" fill="rgb(0,0,0)" fill-opacity="1"></path></g></g><g><g transform="matrix(1,0,0,1,233.3229217529297,218.3541717529297)"><path transform="matrix(0.025,0,0,-0.025,0,0)" d="M532 376C532 432 468 446 434 446C380 446 346 403 330 376C303 435 250 446 221 446C113 446 56 315 56 288C56 273 72 274 72 274C82 274 87 278 89 288C123 392 187 416 219 416C236 416 268 408 268 353C268 323 252 256 215 116C199 55 165 16 124 16C119 16 104 15 86 23C108 32 126 51 126 78C126 108 100 118 84 118C51 118 24 89 24 55C24 5 79 -16 123 -16C180 -16 215 33 227 54C242 19 278 -16 336 -16C443 -16 500 116 500 143C500 157 486 158 484 158C473 158 469 150 467 143C435 38 368 16 338 16C302 16 288 44 288 77C288 98 293 120 304 164L338 301C344 328 367 416 433 416C437 416 453 415 471 408C447 399 430 376 430 353C430 335 443 314 473 314C497 314 532 333 532 376Z" stroke="rgb(0,0,0)" stroke-opacity="1" stroke-width="8" fill="rgb(0,0,0)" fill-opacity="1"></path></g></g><g><g transform="matrix(1,0,0,1,247.62501525878906,219.0208282470703)"><path transform="matrix(0.025,0,0,-0.025,0,0)" d="M292 208L292 292C292 465 187 666 76 750C74 751 71 752 67 752C59 752 52 746 52 738C52 733 55 728 58 726C160 649 230 451 230 292L230 208C230 49 160 -149 58 -226C55 -228 52 -233 52 -238C52 -246 59 -252 67 -252C71 -252 74 -251 76 -250C187 -166 292 35 292 208Z" stroke="rgb(0,0,0)" stroke-opacity="1" stroke-width="8" fill="rgb(0,0,0)" fill-opacity="1"></path></g></g><g><g transform="matrix(1,0,0,1,264.8541717529297,218.3541717529297)"><path transform="matrix(0.025,0,0,-0.025,0,0)" d="M726 153C726 166 715 178 702 178L76 178C63 178 52 166 52 153C52 140 63 128 76 128L702 128C715 128 726 140 726 153ZM726 347C726 360 715 372 702 372L76 372C63 372 52 360 52 347C52 334 63 322 76 322L702 322C715 322 726 334 726 347Z" stroke="rgb(0,0,0)" stroke-opacity="1" stroke-width="8" fill="rgb(0,0,0)" fill-opacity="1"></path></g></g><g><g transform="matrix(1,0,0,1,291.81251525878906,218.3541717529297)"><path transform="matrix(0.025,0,0,-0.025,0,0)" d="M419 -4C421 -4 424 -3 424 0L424 31C424 33 422 36 419 36L387 36C297 36 298 45 298 79L298 640C298 665 296 670 271 670C270 670 269 670 268 669C208 607 121 606 89 606C87 606 84 605 84 602L84 571C84 569 86 566 89 566C109 566 163 566 216 590L216 79C216 46 217 36 127 36L95 36C93 36 90 34 90 31L90 0C90 -2 92 -4 95 -4C130 -1 217 -2 257 -2C297 -2 384 -1 419 -4Z" stroke="rgb(0,0,0)" stroke-opacity="1" stroke-width="8" fill="rgb(0,0,0)" fill-opacity="1"></path></g></g><g><g transform="matrix(1,0,0,1,309.31251525878906,218.3541717529297)"><path transform="matrix(0.025,0,0,-0.025,0,0)" d="M726 250C726 263 715 274 702 274L76 274C63 274 52 263 52 250C52 237 63 226 76 226L702 226C715 226 726 237 726 250Z" stroke="rgb(0,0,0)" stroke-opacity="1" stroke-width="8" fill="rgb(0,0,0)" fill-opacity="1"></path></g></g><g><g><g><g><g transform="matrix(1,0,0,1,336.2708282470703,200.3541717529297)"><path transform="matrix(0.025,0,0,-0.025,0,0)" d="M532 376C532 432 468 446 434 446C380 446 346 403 330 376C303 435 250 446 221 446C113 446 56 315 56 288C56 273 72 274 72 274C82 274 87 278 89 288C123 392 187 416 219 416C236 416 268 408 268 353C268 323 252 256 215 116C199 55 165 16 124 16C119 16 104 15 86 23C108 32 126 51 126 78C126 108 100 118 84 118C51 118 24 89 24 55C24 5 79 -16 123 -16C180 -16 215 33 227 54C242 19 278 -16 336 -16C443 -16 500 116 500 143C500 157 486 158 484 158C473 158 469 150 467 143C435 38 368 16 338 16C302 16 288 44 288 77C288 98 293 120 304 164L338 301C344 328 367 416 433 416C437 416 453 415 471 408C447 399 430 376 430 353C430 335 443 314 473 314C497 314 532 333 532 376Z" stroke="rgb(0,0,0)" stroke-opacity="1" stroke-width="8" fill="rgb(0,0,0)" fill-opacity="1"></path></g></g><g><g><g><g><g transform="matrix(1,0,0,1,352.0208282470703,191.1666717529297)"><path transform="matrix(0.0175,0,0,-0.0175,0,0)" d="M453 173C453 175 452 178 449 178L424 178C422 178 420 177 420 175C415 145 408 102 399 88C391 83 329 82 307 82L138 81L236 177C392 315 454 370 454 472C454 589 361 670 237 670C121 670 46 576 46 485C46 425 100 424 103 424C121 424 160 438 160 482C160 510 140 538 102 538L96 538C120 597 170 630 224 630C312 630 354 553 354 472C354 394 305 316 250 254L58 40C46 28 46 24 46 0C46 -2 47 -4 50 -4L421 -4C423 -4 425 -3 425 -1Z" stroke="rgb(0,0,0)" stroke-opacity="1" stroke-width="8" fill="rgb(0,0,0)" fill-opacity="1"></path></g></g></g></g></g></g></g><g><g><g><g transform="matrix(1,0,0,1,343.0208282470703,238.3541717529297)"><path transform="matrix(0.025,0,0,-0.025,0,0)" d="M453 173C453 175 452 178 449 178L424 178C422 178 420 177 420 175C415 145 408 102 399 88C391 83 329 82 307 82L138 81L236 177C392 315 454 370 454 472C454 589 361 670 237 670C121 670 46 576 46 485C46 425 100 424 103 424C121 424 160 438 160 482C160 510 140 538 102 538L96 538C120 597 170 630 224 630C312 630 354 553 354 472C354 394 305 316 250 254L58 40C46 28 46 24 46 0C46 -2 47 -4 50 -4L421 -4C423 -4 425 -3 425 -1Z" stroke="rgb(0,0,0)" stroke-opacity="1" stroke-width="8" fill="rgb(0,0,0)" fill-opacity="1"></path></g></g></g></g><line style="fill:none;stroke-width:0.666667px;stroke:rgb(0, 0, 0);" x1="336.2708282470703" y1="212.4374949336052" x2="362.2708282470703" y2="212.4374949336052"></line></g></g></g></svg>
</svg>
