<svg xmlns="http://www.w3.org/2000/svg" xmlns:xlink="http://www.w3.org/1999/xlink" x="0" y="0" width="861.3333740234375" height="233" style="
        width:861.3333740234375px;
        height:233px;
        background: #FFF;
        fill: none;
">
        <svg xmlns="http://www.w3.org/2000/svg"/>
        
        <svg xmlns="http://www.w3.org/2000/svg" class="role-diagram-draw-area"><g class="shapes-region" style="stroke: black; fill: none;"><g class="composite-shape"><path class="real" d=" M230.7,186.6 C215.37,158.09 268.06,99.95 348.4,56.74 C428.74,13.54 506.3,1.63 521.63,30.15 C536.97,58.66 484.27,116.8 403.93,160.01 C323.59,203.21 246.04,215.12 230.7,186.6 Z" style="stroke-width: 1; stroke: rgb(0, 0, 0); fill: none; fill-opacity: 1;"/></g><g class="arrow-line"><path class="connection real" stroke-dasharray="" d="  M521.63,30.15 L230.7,186.6" style="stroke: rgb(0, 0, 0); stroke-width: 1; fill: none; fill-opacity: 1;"/></g><g class="arrow-line"><path class="connection real" stroke-dasharray="" d="  M348.4,56.74 L403.93,160.01" style="stroke: rgb(0, 0, 0); stroke-width: 1; fill: none; fill-opacity: 1;"/></g><g class="arrow-line"><path class="connection real" stroke-dasharray="" d="  M472,57 C499.2,79.64 534.31,171.57 574.72,101.81" style="stroke: rgb(0, 0, 0); stroke-width: 1; fill: none; fill-opacity: 1;"/><g stroke="#000" transform="matrix(-0.4930310629557837,0.8700117073699009,-0.8700117073699009,-0.4930310629557837,575.3333282470703,100.75)" style="stroke: rgb(0, 0, 0); stroke-width: 1;"><path d=" M10.93,-3.29 Q4.96,-0.45 0,0 Q4.96,0.45 10.93,3.29"/></g></g><g class="arrow-line"><path class="connection real" stroke-dasharray="" d="  M388,128 C455.65,114.88 437.7,136.31 448.98,185.26" style="stroke: rgb(0, 0, 0); stroke-width: 1; fill: none; fill-opacity: 1;"/><g stroke="#000" transform="matrix(-0.23344536385590514,-0.9723699203976767,0.9723699203976767,-0.23344536385590514,449.3333282470703,186.75)" style="stroke: rgb(0, 0, 0); stroke-width: 1;"><path d=" M10.93,-3.29 Q4.96,-0.45 0,0 Q4.96,0.45 10.93,3.29"/></g></g><g/></g><g/><g/><g/></svg>
        <svg xmlns="http://www.w3.org/2000/svg" xmlns:xlink="http://www.w3.org/1999/xlink" width="860" height="231.6666717529297" style="width:860px;height:231.6666717529297px;font-family:ThickerLm-Math, ThickerLm, Asana-Math, Asana;background:#FFF;"><g><g><g><g transform="matrix(1,0,0,1,537.6667022705078,88.66665649414062)"><path transform="matrix(0.023,0,0,-0.023,0,0)" d="M100 0L178 0L178 624C187 580 211 517 250 411L400 22L472 22L626 423L686 587L696 624L697 592L697 0L775 0L775 694L660 694L506 292C457 164 441 114 438 92L437 92C433 115 409 182 368 293L214 694L100 694ZM919 113C919 67 949 -11 1033 -11C1143 -11 1198 34 1199 35L1199 0L1275 0L1275 305C1270 389 1204 461 1109 461C1046 461 1000 445 952 417L958 350C991 373 1033 401 1108 401C1121 401 1147 400 1171 371C1196 341 1196 307 1197 279L1197 245C1094 244 919 219 919 113ZM992 114C992 177 1125 192 1197 193L1197 130C1197 65 1128 51 1085 51C1031 51 992 78 992 114ZM1294 -171C1325 -189 1366 -205 1414 -205C1465 -205 1540 -173 1540 -50L1540 445L1465 445L1465 -65C1465 -74 1465 -82 1463 -91C1456 -117 1428 -141 1387 -141C1356 -141 1334 -130 1309 -110ZM1451 590L1541 590L1541 679L1451 679ZM1652 221C1652 85 1757 -11 1871 -11C1985 -11 2091 84 2091 220C2091 345 1999 461 1871 461C1753 461 1652 357 1652 221ZM1730 231C1730 352 1807 399 1871 399C1935 399 2012 353 2012 231C2012 106 1938 53 1871 53C1805 53 1730 105 1730 231ZM2175 0L2250 0L2250 206C2250 352 2361 386 2420 388L2420 455C2314 453 2261 385 2245 360L2245 450L2175 450ZM2813 113C2813 67 2843 -11 2927 -11C3037 -11 3092 34 3093 35L3093 0L3169 0L3169 305C3164 389 3098 461 3003 461C2940 461 2894 445 2846 417L2852 350C2885 373 2927 401 3002 401C3015 401 3041 400 3065 371C3090 341 3090 307 3091 279L3091 245C2988 244 2813 219 2813 113ZM2886 114C2886 177 3019 192 3091 193L3091 130C3091 65 3022 51 2979 51C2925 51 2886 78 2886 114ZM3249 0L3332 0L3476 188L3626 0L3709 0L3509 229L3509 230L3693 445L3610 445L3477 280L3476 280L3338 445L3255 445L3443 230L3443 228ZM3791 0L3866 0L3866 445L3791 445ZM3784 590L3874 590L3874 679L3784 679ZM3976 34C4051 -7 4112 -11 4146 -11C4280 -11 4309 72 4309 127C4309 192 4263 234 4222 252C4160 280 4053 267 4053 340C4053 365 4068 401 4137 401C4209 401 4241 383 4281 364L4292 430C4237 453 4202 461 4146 461C4010 461 3982 382 3982 329C3982 259 4042 220 4086 206C4117 196 4160 191 4182 184C4202 178 4238 158 4238 120C4238 93 4220 52 4145 52C4064 52 4016 86 3988 102Z" stroke="rgb(0,0,0)" stroke-opacity="1" stroke-width="8" fill="rgb(0,0,0)" fill-opacity="1"></path></g></g></g></g><g><g><g><g transform="matrix(1,0,0,1,399.6667022705078,203.66665649414062)"><path transform="matrix(0.023,0,0,-0.023,0,0)" d="M100 0L178 0L178 624C187 580 211 517 250 411L400 22L472 22L626 423L686 587L696 624L697 592L697 0L775 0L775 694L660 694L506 292C457 164 441 114 438 92L437 92C433 115 409 182 368 293L214 694L100 694ZM956 0L1031 0L1031 445L956 445ZM949 590L1039 590L1039 679L949 679ZM1194 0L1272 0L1272 240C1272 314 1297 394 1374 394C1472 394 1472 319 1472 281L1472 0L1550 0L1550 288C1550 358 1541 455 1413 455C1325 455 1281 398 1267 380L1267 450L1194 450ZM1661 221C1661 85 1766 -11 1880 -11C1994 -11 2100 84 2100 220C2100 345 2008 461 1880 461C1762 461 1661 357 1661 221ZM1739 231C1739 352 1816 399 1880 399C1944 399 2021 353 2021 231C2021 106 1947 53 1880 53C1814 53 1739 105 1739 231ZM2184 0L2259 0L2259 206C2259 352 2370 386 2429 388L2429 455C2323 453 2270 385 2254 360L2254 450L2184 450ZM2822 113C2822 67 2852 -11 2936 -11C3046 -11 3101 34 3102 35L3102 0L3178 0L3178 305C3173 389 3107 461 3012 461C2949 461 2903 445 2855 417L2861 350C2894 373 2936 401 3011 401C3024 401 3050 400 3074 371C3099 341 3099 307 3100 279L3100 245C2997 244 2822 219 2822 113ZM2895 114C2895 177 3028 192 3100 193L3100 130C3100 65 3031 51 2988 51C2934 51 2895 78 2895 114ZM3258 0L3341 0L3485 188L3635 0L3718 0L3518 229L3518 230L3702 445L3619 445L3486 280L3485 280L3347 445L3264 445L3452 230L3452 228ZM3800 0L3875 0L3875 445L3800 445ZM3793 590L3883 590L3883 679L3793 679ZM3985 34C4060 -7 4121 -11 4155 -11C4289 -11 4318 72 4318 127C4318 192 4272 234 4231 252C4169 280 4062 267 4062 340C4062 365 4077 401 4146 401C4218 401 4250 383 4290 364L4301 430C4246 453 4211 461 4155 461C4019 461 3991 382 3991 329C3991 259 4051 220 4095 206C4126 196 4169 191 4191 184C4211 178 4247 158 4247 120C4247 93 4229 52 4154 52C4073 52 4025 86 3997 102Z" stroke="rgb(0,0,0)" stroke-opacity="1" stroke-width="8" fill="rgb(0,0,0)" fill-opacity="1"></path></g></g></g></g></svg>
</svg>
