<svg xmlns="http://www.w3.org/2000/svg" xmlns:xlink="http://www.w3.org/1999/xlink" x="0" y="0" width="861.3333740234375" height="311.3333435058594" style="
        width:861.3333740234375px;
        height:311.3333435058594px;
        background: #FFF;
        fill: none;
">
        <svg xmlns="http://www.w3.org/2000/svg"/>
        
        <svg xmlns="http://www.w3.org/2000/svg" class="role-diagram-draw-area"><g class="shapes-region" style="stroke: black; fill: none;"><g class="composite-shape" data-amt="diagram/shapes/plot" transform="matrix(1,0,0,1,20,10)"><g><g><g class="test-xgi"><line x1="75.51502436305923" y1="0" x2="75.51502436305923" y2="270" fill="none" stroke="#c3c3c3" stroke-width="0.5"/><line x1="155.13626827229442" y1="0" x2="155.13626827229442" y2="270" fill="none" stroke="#c3c3c3" stroke-width="0.5"/><line x1="234.75751218152962" y1="0" x2="234.75751218152962" y2="270" fill="none" stroke="#c3c3c3" stroke-width="0.5"/><line x1="314.3787560907648" y1="0" x2="314.3787560907648" y2="270" fill="none" stroke="#c3c3c3" stroke-width="0.5"/><line x1="393.99999999999994" y1="0" x2="393.99999999999994" y2="270" fill="none" stroke="#c3c3c3" stroke-width="0.5"/><line x1="473.62124390923515" y1="0" x2="473.62124390923515" y2="270" fill="none" stroke="#c3c3c3" stroke-width="0.5"/><line x1="553.2424878184704" y1="0" x2="553.2424878184704" y2="270" fill="none" stroke="#c3c3c3" stroke-width="0.5"/><line x1="632.8637317277055" y1="0" x2="632.8637317277055" y2="270" fill="none" stroke="#c3c3c3" stroke-width="0.5"/><line x1="712.4849756369407" y1="0" x2="712.4849756369407" y2="270" fill="none" stroke="#c3c3c3" stroke-width="0.5"/><line x1="792.1062195461759" y1="0" x2="792.1062195461759" y2="270" fill="none" stroke="#c3c3c3" stroke-width="0.5"/></g><g class="test-ygi"><line x1="0" y1="218.37413320982353" x2="820" y2="218.37413320982353" fill="none" stroke="#c3c3c3" stroke-width="0.5"/><line x1="0" y1="138.75288930058835" x2="820" y2="138.75288930058835" fill="none" stroke="#c3c3c3" stroke-width="0.5"/><line x1="0" y1="59.131645391353146" x2="820" y2="59.131645391353146" fill="none" stroke="#c3c3c3" stroke-width="0.5"/></g></g><g><g class="test-xti" style="font-family: Asana-Math, Asana;"><line x1="0" y1="138.75288930058835" x2="816" y2="138.75288930058835" fill="none" stroke="rgb(50,50,50)" stroke-opacity="1" stroke-width="1"/><line x1="75.51502436305923" y1="134.75288930058835" x2="75.51502436305923" y2="142.75288930058835" fill="none" stroke="rgb(50,50,50)" stroke-opacity="1" stroke-width="1"/><line x1="155.13626827229442" y1="134.75288930058835" x2="155.13626827229442" y2="142.75288930058835" fill="none" stroke="rgb(50,50,50)" stroke-opacity="1" stroke-width="1"/><line x1="234.75751218152962" y1="134.75288930058835" x2="234.75751218152962" y2="142.75288930058835" fill="none" stroke="rgb(50,50,50)" stroke-opacity="1" stroke-width="1"/><line x1="314.3787560907648" y1="134.75288930058835" x2="314.3787560907648" y2="142.75288930058835" fill="none" stroke="rgb(50,50,50)" stroke-opacity="1" stroke-width="1"/><line x1="473.62124390923515" y1="134.75288930058835" x2="473.62124390923515" y2="142.75288930058835" fill="none" stroke="rgb(50,50,50)" stroke-opacity="1" stroke-width="1"/><line x1="553.2424878184704" y1="134.75288930058835" x2="553.2424878184704" y2="142.75288930058835" fill="none" stroke="rgb(50,50,50)" stroke-opacity="1" stroke-width="1"/><line x1="632.8637317277055" y1="134.75288930058835" x2="632.8637317277055" y2="142.75288930058835" fill="none" stroke="rgb(50,50,50)" stroke-opacity="1" stroke-width="1"/><line x1="712.4849756369407" y1="134.75288930058835" x2="712.4849756369407" y2="142.75288930058835" fill="none" stroke="rgb(50,50,50)" stroke-opacity="1" stroke-width="1"/><line x1="792.1062195461759" y1="134.75288930058835" x2="792.1062195461759" y2="142.75288930058835" fill="none" stroke="rgb(50,50,50)" stroke-opacity="1" stroke-width="1"/><path d="M811,135.15288930058836 L819,138.75288930058835 L811,142.35288930058834 Z" stroke="none" stroke-width="1" fill="rgb(50,50,50)" fill-opacity="1"/></g><g class="test-yti" style="font-family: Asana-Math, Asana;"><line x1="394" y1="4" x2="394" y2="270" fill="none" stroke="rgb(50,50,50)" stroke-opacity="1" stroke-width="1"/><line x1="390" y1="218.37413320982353" x2="398" y2="218.37413320982353" fill="none" stroke="rgb(50,50,50)" stroke-opacity="1" stroke-width="1"/><line x1="390" y1="59.131645391353146" x2="398" y2="59.131645391353146" fill="none" stroke="rgb(50,50,50)" stroke-opacity="1" stroke-width="1"/><path d="M390.4,9 L394,1 L397.6,9 Z" stroke="none" stroke-width="1" fill="rgb(50,50,50)" fill-opacity="1"/></g><g class="test-plot-expression"><defs><clipPath id="cplndg34l2k"><rect x="1" y="1" width="818" height="268"/></clipPath></defs><g clip-path="url(#cplndg34l2k)"><path d=" M276.07,52.43 L276.00,52.00 L275.85,51.00 L275.72,50.00 L275.61,49.00 L275.51,48.00 L275.44,47.00 L275.38,46.00 L275.34,45.00 L275.33,44.00 L275.33,43.00 L275.36,42.00 L275.42,41.00 L275.51,40.00 L275.62,39.00 L275.76,38.00 L275.94,37.00 L276.07,36.38 L276.15,36.00 L276.42,35.00 L276.73,34.00 L277.09,33.00 L277.50,32.00 L277.96,31.00 L278.48,30.00 L278.80,29.45 L279.10,29.00 L279.82,28.00 L280.64,27.00 L281.53,26.02 L281.55,26.00 L282.71,25.00 L284.02,24.00 L284.27,23.83 L285.71,23.00 L287.00,22.33 L287.84,22.00 L289.73,21.32 L290.96,21.00 L292.47,20.65 L295.20,20.25 L297.93,20.08 L300.67,20.09 L303.40,20.27 L306.13,20.58 L308.72,21.00 L308.87,21.02 L311.60,21.58 L313.35,22.00 L314.33,22.23 L317.07,22.98 L317.14,23.00 L319.80,23.81 L320.36,24.00 L322.53,24.72 L323.29,25.00 L325.27,25.71 L326.01,26.00 L328.00,26.76 L328.57,27.00 L330.73,27.89 L330.99,28.00 L333.30,29.00 L333.47,29.07 L335.50,30.00 L336.20,30.31 L337.63,31.00 L338.93,31.61 L339.70,32.00 L341.67,32.97 L341.73,33.00 L343.66,34.00 L344.40,34.38 L345.56,35.00 L347.13,35.83 L347.43,36.00 L349.24,37.00 L349.87,37.34 L351.02,38.00 L352.60,38.89 L352.78,39.00 L354.49,40.00 L355.33,40.49 L356.17,41.00 L357.84,42.00 L358.07,42.13 L359.46,43.00 L360.80,43.82 L361.08,44.00 L362.65,45.00 L363.53,45.55 L364.22,46.00 L365.76,47.00 L366.27,47.32 L367.28,48.00 L368.79,49.00 L369.00,49.14 L370.26,50.00 L371.73,50.99 L371.75,51.00 L373.18,52.00 L374.47,52.88 L374.63,53.00 L376.04,54.00 L377.20,54.82 L377.45,55.00 L378.83,56.00 L379.93,56.79 L380.22,57.00 L381.57,58.00 L382.67,58.80 L382.93,59.00 L384.26,60.00 L385.40,60.85 L385.60,61.00 L386.90,62.00 L388.13,62.93 L388.22,63.00 L389.50,64.00 L390.79,65.00 L390.87,65.06 L392.05,66.00 L393.32,67.00 L393.60,67.22 L394.56,68.00 L395.81,69.00 L396.33,69.42 L397.04,70.00 L398.26,71.00 L399.07,71.66 L399.48,72.00 L400.67,73.00 L401.80,73.93 L401.88,74.00 L403.05,75.00 L404.24,76.00 L404.53,76.25 L405.40,77.00 L406.57,78.00 L407.27,78.60 L407.72,79.00 L408.86,80.00 L410.00,80.99 L410.01,81.00 L411.13,82.00 L412.26,83.00 L412.73,83.42 L413.37,84.00 L414.48,85.00 L415.47,85.89 L415.59,86.00 L416.67,87.00 L417.77,88.00 L418.20,88.40 L418.84,89.00 L419.91,90.00 L420.93,90.94 L420.99,91.00 L422.04,92.00 L423.10,93.00 L423.67,93.53 L424.15,94.00 L425.18,95.00 L426.23,96.00 L426.40,96.16 L427.25,97.00 L428.27,98.00 L429.13,98.84 L429.30,99.00 L430.30,100.00 L431.31,101.00 L431.87,101.55 L432.31,102.00 L433.29,103.00 L434.29,104.00 L434.60,104.31 L435.26,105.00 L436.23,106.00 L437.22,107.00 L437.33,107.12 L438.17,108.00 L439.13,109.00 L440.07,109.97 L440.09,110.00 L441.03,111.00 L441.97,112.00 L442.80,112.88 L442.91,113.00 L443.83,114.00 L444.76,115.00 L445.53,115.83 L445.69,116.00 L446.59,117.00 L447.51,118.00 L448.27,118.83 L448.42,119.00 L449.31,120.00 L450.20,121.00 L451.00,121.89 L451.10,122.00 L451.97,123.00 L452.85,124.00 L453.73,125.00 L453.73,125.00 L454.59,126.00 L455.45,127.00 L456.32,128.00 L456.47,128.17 L457.16,129.00 L458.01,130.00 L458.86,131.00 L459.20,131.41 L459.69,132.00 L460.52,133.00 L461.35,134.00 L461.93,134.70 L462.17,135.00 L462.98,136.00 L463.79,137.00 L464.61,138.00 L464.67,138.07 L465.40,139.00 L466.20,140.00 L466.99,141.00 L467.40,141.51 L467.78,142.00 L468.55,143.00 L469.33,144.00 L470.11,145.00 L470.13,145.02 L470.87,146.00 L471.63,147.00 L472.39,148.00 L472.87,148.63 L473.14,149.00 L473.88,150.00 L474.62,151.00 L475.36,152.00 L475.60,152.32 L476.09,153.00 L476.81,154.00 L477.53,155.00 L478.26,156.00 L478.33,156.11 L478.96,157.00 L479.66,158.00 L480.36,159.00 L481.06,160.00 L481.07,160.01 L481.74,161.00 L482.42,162.00 L483.10,163.00 L483.78,164.00 L483.80,164.03 L484.44,165.00 L485.10,166.00 L485.76,167.00 L486.41,168.00 L486.53,168.18 L487.05,169.00 L487.69,170.00 L488.32,171.00 L488.96,172.00 L489.27,172.49 L489.58,173.00 L490.19,174.00 L490.80,175.00 L491.41,176.00 L492.00,176.98 L492.01,177.00 L492.60,178.00 L493.18,179.00 L493.76,180.00 L494.34,181.00 L494.73,181.68 L494.91,182.00 L495.47,183.00 L496.02,184.00 L496.57,185.00 L497.12,186.00 L497.47,186.63 L497.66,187.00 L498.18,188.00 L498.70,189.00 L499.22,190.00 L499.73,191.00 L500.20,191.91 L500.24,192.00 L500.73,193.00 L501.21,194.00 L501.69,195.00 L502.17,196.00 L502.64,197.00 L502.93,197.62 L503.10,198.00 L503.55,199.00 L503.98,200.00 L504.42,201.00 L504.85,202.00 L505.27,203.00 L505.67,203.95 L505.69,204.00 L506.08,205.00 L506.47,206.00 L506.85,207.00 L507.22,208.00 L507.59,209.00 L507.95,210.00 L508.30,211.00 L508.40,211.30 L508.63,212.00 L508.95,213.00 L509.26,214.00 L509.56,215.00 L509.85,216.00 L510.13,217.00 L510.40,218.00 L510.66,219.00 L510.91,220.00 L511.13,220.96 L511.14,221.00 L511.35,222.00 L511.55,223.00 L511.74,224.00 L511.91,225.00 L512.06,226.00 L512.20,227.00 L512.33,228.00 L512.43,229.00 L512.52,230.00 L512.59,231.00 L512.64,232.00 L512.67,233.00 L512.67,234.00 L512.65,235.00 L512.61,236.00 L512.53,237.00 L512.43,238.00 L512.30,239.00 L512.14,240.00 L511.94,241.00 L511.71,242.00 L511.44,243.00 L511.13,243.96 L511.12,244.00 L510.73,245.00 L510.28,246.00 L509.78,247.00 L509.21,248.00 L508.57,249.00 L508.40,249.25 L507.80,250.00 L506.91,251.00 L505.91,252.00 L505.67,252.22 L504.66,253.00 L503.21,254.00 L502.93,254.18 L501.32,255.00 L500.20,255.51 L498.79,256.00 L497.47,256.42 L494.76,257.00 L494.73,257.00 L492.00,257.33 L489.27,257.44 L486.53,257.38 L483.80,257.16 L482.59,257.00 L481.07,256.81 L478.33,256.33 L476.80,256.00 L475.60,255.75 L472.87,255.07 L472.64,255.00 L470.13,254.29 L469.21,254.00 L467.40,253.44 L466.14,253.00 L464.67,252.50 L463.32,252.00 L461.93,251.49 L460.69,251.00 L459.20,250.42 L458.21,250.00 L456.47,249.28 L455.84,249.00 L453.73,248.08 L453.57,248.00 L451.40,247.00 L451.00,246.82 L449.32,246.00 L448.27,245.50 L447.28,245.00 L445.53,244.13 L445.28,244.00 L443.37,243.00 L442.80,242.71 L441.50,242.00 L440.07,241.24 L439.64,241.00 L437.85,240.00 L437.33,239.72 L436.09,239.00 L434.60,238.15 L434.35,238.00 L432.66,237.00 L431.87,236.54 L430.99,236.00 L429.33,235.00 L429.13,234.88 L427.73,234.00 L426.40,233.18 L426.12,233.00 L424.55,232.00 L423.67,231.44 L423.00,231.00 L421.47,230.00 L420.93,229.66 L419.96,229.00 L418.46,228.00 L418.20,227.83 L416.99,227.00 L415.52,226.00 L415.47,225.97 L414.09,225.00 L412.73,224.06 L412.65,224.00 L411.25,223.00 L410.00,222.12 L409.84,222.00 L408.47,221.00 L407.27,220.13 L407.09,220.00 L405.74,219.00 L404.53,218.11 L404.38,218.00 L403.07,217.00 L401.80,216.05 L401.73,216.00 L400.44,215.00 L399.12,214.00 L399.07,213.96 L397.85,213.00 L396.57,212.00 L396.33,211.82 L395.31,211.00 L394.05,210.00 L393.60,209.65 L392.81,209.00 L391.57,208.00 L390.87,207.44 L390.34,207.00 L389.13,206.00 L388.13,205.19 L387.91,205.00 L386.72,204.00 L385.52,203.00 L385.40,202.90 L384.35,202.00 L383.17,201.00 L382.67,200.57 L382.01,200.00 L380.85,199.00 L379.93,198.21 L379.69,198.00 L378.56,197.00 L377.42,196.00 L377.20,195.81 L376.30,195.00 L375.18,194.00 L374.47,193.37 L374.06,193.00 L372.97,192.00 L371.86,191.00 L371.73,190.89 L370.78,190.00 L369.69,189.00 L369.00,188.37 L368.61,188.00 L367.55,187.00 L366.47,186.00 L366.27,185.81 L365.42,185.00 L364.37,184.00 L363.53,183.21 L363.32,183.00 L362.29,182.00 L361.25,181.00 L360.80,180.56 L360.23,180.00 L359.22,179.00 L358.19,178.00 L358.07,177.88 L357.19,177.00 L356.19,176.00 L355.33,175.15 L355.19,175.00 L354.21,174.00 L353.22,173.00 L352.60,172.37 L352.24,172.00 L351.27,171.00 L350.30,170.00 L349.87,169.55 L349.34,169.00 L348.39,168.00 L347.43,167.00 L347.13,166.69 L346.49,166.00 L345.56,165.00 L344.62,164.00 L344.40,163.77 L343.69,163.00 L342.77,162.00 L341.85,161.00 L341.67,160.80 L340.94,160.00 L340.04,159.00 L339.13,158.00 L338.93,157.79 L338.24,157.00 L337.35,156.00 L336.46,155.00 L336.20,154.71 L335.58,154.00 L334.71,153.00 L333.83,152.00 L333.47,151.58 L332.97,151.00 L332.12,150.00 L331.26,149.00 L330.73,148.39 L330.40,148.00 L329.57,147.00 L328.73,146.00 L328.00,145.14 L327.88,145.00 L327.06,144.00 L326.24,143.00 L325.41,142.00 L325.27,141.82 L324.60,141.00 L323.80,140.00 L322.99,139.00 L322.53,138.44 L322.19,138.00 L321.40,137.00 L320.61,136.00 L319.82,135.00 L319.80,134.98 L319.05,134.00 L318.28,133.00 L317.50,132.00 L317.07,131.43 L316.74,131.00 L315.99,130.00 L315.23,129.00 L314.48,128.00 L314.33,127.81 L313.74,127.00 L313.01,126.00 L312.27,125.00 L311.60,124.09 L311.54,124.00 L310.82,123.00 L310.11,122.00 L309.39,121.00 L308.87,120.27 L308.68,120.00 L307.99,119.00 L307.29,118.00 L306.60,117.00 L306.13,116.33 L305.91,116.00 L305.23,115.00 L304.56,114.00 L303.89,113.00 L303.40,112.28 L303.22,112.00 L302.57,111.00 L301.92,110.00 L301.27,109.00 L300.67,108.08 L300.62,108.00 L299.99,107.00 L299.36,106.00 L298.73,105.00 L298.11,104.00 L297.93,103.72 L297.50,103.00 L296.90,102.00 L296.29,101.00 L295.69,100.00 L295.20,99.18 L295.10,99.00 L294.52,98.00 L293.95,97.00 L293.38,96.00 L292.80,95.00 L292.47,94.41 L292.24,94.00 L291.70,93.00 L291.15,92.00 L290.61,91.00 L290.07,90.00 L289.73,89.36 L289.54,89.00 L289.03,88.00 L288.52,87.00 L288.02,86.00 L287.51,85.00 L287.01,84.00 L287.00,83.97 L286.54,83.00 L286.06,82.00 L285.60,81.00 L285.13,80.00 L284.67,79.00 L284.27,78.11 L284.22,78.00 L283.79,77.00 L283.36,76.00 L282.94,75.00 L282.53,74.00 L282.12,73.00 L281.72,72.00 L281.53,71.54 L281.33,71.00 L280.96,70.00 L280.59,69.00 L280.23,68.00 L279.88,67.00 L279.54,66.00 L279.21,65.00 L278.88,64.00 L278.80,63.74 L278.58,63.00 L278.29,62.00 L278.00,61.00 L277.73,60.00 L277.47,59.00 L277.22,58.00 L276.98,57.00 L276.76,56.00 L276.55,55.00 L276.35,54.00 L276.16,53.00 L276.07,52.43" style="stroke-width: 2; stroke: rgb(68, 128, 194); stroke-opacity: 1;"/></g></g><g class="test-xtl" style="font-family: &quot;Open Sans&quot;, verdana, arial, sans-serif;"><text text-anchor="middle" font-size="20" dominant-baseline="hanging" stroke="none" fill="rgb(50,50,50)" fill-opacity="1" x="69.81502436305922" y="145.75288930058835">-2</text><text text-anchor="middle" font-size="20" dominant-baseline="hanging" stroke="none" fill="rgb(50,50,50)" fill-opacity="1" x="149.43626827229443" y="145.75288930058835">-1.5</text><text text-anchor="middle" font-size="20" dominant-baseline="hanging" stroke="none" fill="rgb(50,50,50)" fill-opacity="1" x="229.05751218152963" y="145.75288930058835">-1</text><text text-anchor="middle" font-size="20" dominant-baseline="hanging" stroke="none" fill="rgb(50,50,50)" fill-opacity="1" x="308.6787560907648" y="145.75288930058835">-0.5</text><text text-anchor="middle" font-size="20" dominant-baseline="hanging" stroke="none" fill="rgb(50,50,50)" fill-opacity="1" x="473.62124390923515" y="145.75288930058835">0.5</text><text text-anchor="middle" font-size="20" dominant-baseline="hanging" stroke="none" fill="rgb(50,50,50)" fill-opacity="1" x="553.2424878184704" y="145.75288930058835">1</text><text text-anchor="middle" font-size="20" dominant-baseline="hanging" stroke="none" fill="rgb(50,50,50)" fill-opacity="1" x="632.8637317277055" y="145.75288930058835">1.5</text><text text-anchor="middle" font-size="20" dominant-baseline="hanging" stroke="none" fill="rgb(50,50,50)" fill-opacity="1" x="712.4849756369407" y="145.75288930058835">2</text><text text-anchor="middle" font-size="20" dominant-baseline="hanging" stroke="none" fill="rgb(50,50,50)" fill-opacity="1" x="792.1062195461759" y="145.75288930058835">2.5</text><text text-anchor="middle" font-size="20" dominant-baseline="hanging" stroke="none" fill="rgb(50,50,50)" fill-opacity="1" x="385.99999999999994" y="143.75288930058835">0</text></g><g class="test-ytl" style="font-family: &quot;Open Sans&quot;, verdana, arial, sans-serif;"><text text-anchor="end" dominant-baseline="middle" font-size="20" stroke="none" fill="rgb(50,50,50)" fill-opacity="1" x="386" y="218.37413320982353">-0.5</text><text text-anchor="end" dominant-baseline="middle" font-size="20" stroke="none" fill="rgb(50,50,50)" fill-opacity="1" x="386" y="59.131645391353146">0.5</text></g><rect class="real" x="1" y="1" width="818" height="268" style="fill: transparent; stroke: none;"/></g></g></g><g class="arrow-line"><path class="connection real" stroke-dasharray="" d="  M301.33,34.85 L524.33,259.85" style="stroke: rgb(0, 0, 0); stroke-width: 1; fill: none; fill-opacity: 1;"/></g><g/></g><g/><g/><g/></svg>
        <svg xmlns="http://www.w3.org/2000/svg" xmlns:xlink="http://www.w3.org/1999/xlink" width="860" height="310" style="width:860px;height:310px;font-family:ThickerLm-Math, ThickerLm, Asana-Math, Asana;background:#FFF;"><g><g><g><g transform="matrix(1,0,0,1,553.6667022705078,53.59375)"><path transform="matrix(0.025,0,0,-0.025,0,0)" d="M454 201C454 322 370 424 259 424C213 424 171 410 136 379L136 558C156 553 187 546 217 546C341 546 414 637 414 655C414 663 410 670 400 670L399 670C371 660 330 638 256 638C217 638 171 645 125 666C117 669 111 670 111 670C96 670 96 655 96 641L96 345C96 328 97 314 115 314C124 314 128 319 132 325C143 341 178 394 257 394C306 394 330 350 338 332C354 296 356 258 356 208C356 173 355 113 332 73C309 35 273 10 229 10C161 10 108 57 89 112L99 112C135 112 154 139 154 165C154 191 135 218 99 218C84 218 46 210 46 161C46 73 116 -26 231 -26C349 -26 454 72 454 201ZM1032 376C1032 432 968 446 934 446C880 446 846 403 830 376C803 435 750 446 721 446C613 446 556 315 556 288C556 273 572 274 572 274C582 274 587 278 589 288C623 392 687 416 719 416C736 416 768 408 768 353C768 323 752 256 715 116C699 55 665 16 624 16C619 16 604 15 586 23C608 32 626 51 626 78C626 108 600 118 584 118C551 118 524 89 524 55C524 5 579 -16 623 -16C680 -16 715 33 727 54C742 19 778 -16 836 -16C943 -16 1000 116 1000 143C1000 157 986 158 984 158C973 158 969 150 967 143C935 38 868 16 838 16C802 16 788 44 788 77C788 98 793 120 804 164L838 301C844 328 867 416 933 416C937 416 953 415 971 408C947 399 930 376 930 353C930 335 943 314 973 314C997 314 1032 333 1032 376Z" stroke="rgb(0,0,0)" stroke-opacity="1" stroke-width="8" fill="rgb(0,0,0)" fill-opacity="1"></path></g></g><g><g><g><g><g transform="matrix(1,0,0,1,581.9167022705078,44.40625)"><path transform="matrix(0.0175,0,0,-0.0175,0,0)" d="M453 173C453 175 452 178 449 178L424 178C422 178 420 177 420 175C415 145 408 102 399 88C391 83 329 82 307 82L138 81L236 177C392 315 454 370 454 472C454 589 361 670 237 670C121 670 46 576 46 485C46 425 100 424 103 424C121 424 160 438 160 482C160 510 140 538 102 538L96 538C120 597 170 630 224 630C312 630 354 553 354 472C354 394 305 316 250 254L58 40C46 28 46 24 46 0C46 -2 47 -4 50 -4L421 -4C423 -4 425 -3 425 -1Z" stroke="rgb(0,0,0)" stroke-opacity="1" stroke-width="8" fill="rgb(0,0,0)" fill-opacity="1"></path></g></g></g></g></g><g><g transform="matrix(1,0,0,1,597.1667022705078,53.59375)"><path transform="matrix(0.025,0,0,-0.025,0,0)" d="M726 250C726 263 715 274 702 274L414 274L414 563C414 576 402 588 389 588C376 588 364 576 364 563L364 274L76 274C63 274 52 263 52 250C52 237 63 226 76 226L364 226L364 -63C364 -76 376 -88 389 -88C402 -88 414 -76 414 -63L414 226L702 226C715 226 726 237 726 250Z" stroke="rgb(0,0,0)" stroke-opacity="1" stroke-width="8" fill="rgb(0,0,0)" fill-opacity="1"></path></g></g><g><g transform="matrix(1,0,0,1,621.6250152587891,53.59375)"><path transform="matrix(0.025,0,0,-0.025,0,0)" d="M402 132C402 61 331 10 250 10C166 10 96 71 96 151C96 207 126 268 209 315L330 238C358 219 402 190 402 132ZM382 517C382 463 345 417 287 382L165 461C120 490 118 522 118 538C118 595 179 636 249 636C320 636 382 586 382 517ZM462 168C462 205 450 251 411 294C392 315 378 325 318 362C387 399 434 451 434 517C434 612 342 670 250 670C148 670 64 595 64 499C64 481 67 434 110 386C121 374 151 354 177 336C119 306 38 249 38 151C38 42 142 -26 249 -26C364 -26 462 58 462 168ZM1032 376C1032 432 968 446 934 446C880 446 846 403 830 376C803 435 750 446 721 446C613 446 556 315 556 288C556 273 572 274 572 274C582 274 587 278 589 288C623 392 687 416 719 416C736 416 768 408 768 353C768 323 752 256 715 116C699 55 665 16 624 16C619 16 604 15 586 23C608 32 626 51 626 78C626 108 600 118 584 118C551 118 524 89 524 55C524 5 579 -16 623 -16C680 -16 715 33 727 54C742 19 778 -16 836 -16C943 -16 1000 116 1000 143C1000 157 986 158 984 158C973 158 969 150 967 143C935 38 868 16 838 16C802 16 788 44 788 77C788 98 793 120 804 164L838 301C844 328 867 416 933 416C937 416 953 415 971 408C947 399 930 376 930 353C930 335 943 314 973 314C997 314 1032 333 1032 376ZM1220 -88C1220 -53 1188 -48 1178 -48C1153 -48 1118 -66 1118 -118C1118 -171 1164 -210 1228 -210C1334 -210 1438 -117 1466 -2L1562 380C1566 394 1566 397 1566 404C1566 425 1550 436 1533 436C1521 436 1504 429 1494 412C1491 407 1484 375 1480 357C1458 270 1437 184 1415 97C1411 83 1369 16 1306 16C1259 16 1248 55 1248 92C1248 137 1265 198 1299 286C1315 327 1320 339 1320 360C1320 407 1286 446 1233 446C1133 446 1096 298 1096 288C1096 273 1113 274 1113 274C1125 274 1128 279 1133 295C1160 389 1199 416 1230 416C1237 416 1250 417 1250 388C1250 364 1241 339 1234 320C1194 214 1176 156 1176 108C1176 16 1242 -16 1302 -16C1337 -16 1369 -2 1395 20C1383 -26 1370 -70 1334 -117C1308 -150 1272 -178 1228 -178C1215 -178 1178 -176 1159 -145C1190 -144 1220 -124 1220 -88Z" stroke="rgb(0,0,0)" stroke-opacity="1" stroke-width="8" fill="rgb(0,0,0)" fill-opacity="1"></path></g></g><g><g transform="matrix(1,0,0,1,665.6770782470703,53.59375)"><path transform="matrix(0.025,0,0,-0.025,0,0)" d="M726 250C726 263 715 274 702 274L414 274L414 563C414 576 402 588 389 588C376 588 364 576 364 563L364 274L76 274C63 274 52 263 52 250C52 237 63 226 76 226L364 226L364 -63C364 -76 376 -88 389 -88C402 -88 414 -76 414 -63L414 226L702 226C715 226 726 237 726 250Z" stroke="rgb(0,0,0)" stroke-opacity="1" stroke-width="8" fill="rgb(0,0,0)" fill-opacity="1"></path></g></g><g><g transform="matrix(1,0,0,1,690.1354522705078,53.59375)"><path transform="matrix(0.025,0,0,-0.025,0,0)" d="M454 201C454 322 370 424 259 424C213 424 171 410 136 379L136 558C156 553 187 546 217 546C341 546 414 637 414 655C414 663 410 670 400 670L399 670C371 660 330 638 256 638C217 638 171 645 125 666C117 669 111 670 111 670C96 670 96 655 96 641L96 345C96 328 97 314 115 314C124 314 128 319 132 325C143 341 178 394 257 394C306 394 330 350 338 332C354 296 356 258 356 208C356 173 355 113 332 73C309 35 273 10 229 10C161 10 108 57 89 112L99 112C135 112 154 139 154 165C154 191 135 218 99 218C84 218 46 210 46 161C46 73 116 -26 231 -26C349 -26 454 72 454 201ZM648 -88C648 -53 616 -48 606 -48C581 -48 546 -66 546 -118C546 -171 592 -210 656 -210C762 -210 866 -117 894 -2L990 380C994 394 994 397 994 404C994 425 978 436 961 436C949 436 932 429 922 412C919 407 912 375 908 357C886 270 865 184 843 97C839 83 797 16 734 16C687 16 676 55 676 92C676 137 693 198 727 286C743 327 748 339 748 360C748 407 714 446 661 446C561 446 524 298 524 288C524 273 541 274 541 274C553 274 556 279 561 295C588 389 627 416 658 416C665 416 678 417 678 388C678 364 669 339 662 320C622 214 604 156 604 108C604 16 670 -16 730 -16C765 -16 797 -2 823 20C811 -26 798 -70 762 -117C736 -150 700 -178 656 -178C643 -178 606 -176 587 -145C618 -144 648 -124 648 -88Z" stroke="rgb(0,0,0)" stroke-opacity="1" stroke-width="8" fill="rgb(0,0,0)" fill-opacity="1"></path></g></g><g><g><g><g><g transform="matrix(1,0,0,1,716.3333282470703,44.40625)"><path transform="matrix(0.0175,0,0,-0.0175,0,0)" d="M453 173C453 175 452 178 449 178L424 178C422 178 420 177 420 175C415 145 408 102 399 88C391 83 329 82 307 82L138 81L236 177C392 315 454 370 454 472C454 589 361 670 237 670C121 670 46 576 46 485C46 425 100 424 103 424C121 424 160 438 160 482C160 510 140 538 102 538L96 538C120 597 170 630 224 630C312 630 354 553 354 472C354 394 305 316 250 254L58 40C46 28 46 24 46 0C46 -2 47 -4 50 -4L421 -4C423 -4 425 -3 425 -1Z" stroke="rgb(0,0,0)" stroke-opacity="1" stroke-width="8" fill="rgb(0,0,0)" fill-opacity="1"></path></g></g></g></g></g><g><g transform="matrix(1,0,0,1,734.0833282470703,53.59375)"><path transform="matrix(0.025,0,0,-0.025,0,0)" d="M726 153C726 166 715 178 702 178L76 178C63 178 52 166 52 153C52 140 63 128 76 128L702 128C715 128 726 140 726 153ZM726 347C726 360 715 372 702 372L76 372C63 372 52 360 52 347C52 334 63 322 76 322L702 322C715 322 726 334 726 347Z" stroke="rgb(0,0,0)" stroke-opacity="1" stroke-width="8" fill="rgb(0,0,0)" fill-opacity="1"></path></g></g><g><g transform="matrix(1,0,0,1,761.0417022705078,53.59375)"><path transform="matrix(0.025,0,0,-0.025,0,0)" d="M419 -4C421 -4 424 -3 424 0L424 31C424 33 422 36 419 36L387 36C297 36 298 45 298 79L298 640C298 665 296 670 271 670C270 670 269 670 268 669C208 607 121 606 89 606C87 606 84 605 84 602L84 571C84 569 86 566 89 566C109 566 163 566 216 590L216 79C216 46 217 36 127 36L95 36C93 36 90 34 90 31L90 0C90 -2 92 -4 95 -4C130 -1 217 -2 257 -2C297 -2 384 -1 419 -4Z" stroke="rgb(0,0,0)" stroke-opacity="1" stroke-width="8" fill="rgb(0,0,0)" fill-opacity="1"></path></g></g></g></g></svg>
</svg>
