<svg xmlns="http://www.w3.org/2000/svg" xmlns:xlink="http://www.w3.org/1999/xlink" x="0" y="0" width="661.3333740234375" height="390.3333435058594" style="
        width:661.3333740234375px;
        height:390.3333435058594px;
        background: #FFF;
        fill: none;
">
        <svg xmlns="http://www.w3.org/2000/svg"/>
        
        <svg xmlns="http://www.w3.org/2000/svg" class="role-diagram-draw-area"><g class="shapes-region" style="stroke: black; fill: none;"><g class="composite-shape" data-amt="diagram/shapes/plot" transform="matrix(1,0,0,1,55,16.058326721191406)"><g><g><g class="test-xgi"><line x1="18.23019520000001" y1="0" x2="18.23019520000001" y2="370.9416732788086" fill="none" stroke="#c3c3c3" stroke-width="0.5"/><line x1="76.96057599999999" y1="0" x2="76.96057599999999" y2="370.9416732788086" fill="none" stroke="#c3c3c3" stroke-width="0.5"/><line x1="135.69095679999998" y1="0" x2="135.69095679999998" y2="370.9416732788086" fill="none" stroke="#c3c3c3" stroke-width="0.5"/><line x1="194.4213376" y1="0" x2="194.4213376" y2="370.9416732788086" fill="none" stroke="#c3c3c3" stroke-width="0.5"/><line x1="253.1517184" y1="0" x2="253.1517184" y2="370.9416732788086" fill="none" stroke="#c3c3c3" stroke-width="0.5"/><line x1="311.88209919999997" y1="0" x2="311.88209919999997" y2="370.9416732788086" fill="none" stroke="#c3c3c3" stroke-width="0.5"/><line x1="370.61247999999995" y1="0" x2="370.61247999999995" y2="370.9416732788086" fill="none" stroke="#c3c3c3" stroke-width="0.5"/><line x1="429.3428607999999" y1="0" x2="429.3428607999999" y2="370.9416732788086" fill="none" stroke="#c3c3c3" stroke-width="0.5"/><line x1="488.0732415999999" y1="0" x2="488.0732415999999" y2="370.9416732788086" fill="none" stroke="#c3c3c3" stroke-width="0.5"/><line x1="546.8036223999999" y1="0" x2="546.8036223999999" y2="370.9416732788086" fill="none" stroke="#c3c3c3" stroke-width="0.5"/></g><g class="test-ygi"><line x1="0" y1="368.07923487880856" x2="564.2666625976562" y2="368.07923487880856" fill="none" stroke="#c3c3c3" stroke-width="0.5"/><line x1="0" y1="309.3488540788086" x2="564.2666625976562" y2="309.3488540788086" fill="none" stroke="#c3c3c3" stroke-width="0.5"/><line x1="0" y1="250.61847327880858" x2="564.2666625976562" y2="250.61847327880858" fill="none" stroke="#c3c3c3" stroke-width="0.5"/><line x1="0" y1="191.88809247880857" x2="564.2666625976562" y2="191.88809247880857" fill="none" stroke="#c3c3c3" stroke-width="0.5"/><line x1="0" y1="133.15771167880857" x2="564.2666625976562" y2="133.15771167880857" fill="none" stroke="#c3c3c3" stroke-width="0.5"/><line x1="0" y1="74.42733087880862" x2="564.2666625976562" y2="74.42733087880862" fill="none" stroke="#c3c3c3" stroke-width="0.5"/><line x1="0" y1="15.696950078808584" x2="564.2666625976562" y2="15.696950078808584" fill="none" stroke="#c3c3c3" stroke-width="0.5"/></g></g><g><g class="test-xti" style="font-family: Asana-Math, Asana;"><line x1="0" y1="250.61847327880858" x2="560.2666625976562" y2="250.61847327880858" fill="none" stroke="rgb(50,50,50)" stroke-opacity="1" stroke-width="1"/><line x1="18.23019520000001" y1="246.61847327880858" x2="18.23019520000001" y2="254.61847327880858" fill="none" stroke="rgb(50,50,50)" stroke-opacity="1" stroke-width="1"/><line x1="135.69095679999998" y1="246.61847327880858" x2="135.69095679999998" y2="254.61847327880858" fill="none" stroke="rgb(50,50,50)" stroke-opacity="1" stroke-width="1"/><line x1="194.4213376" y1="246.61847327880858" x2="194.4213376" y2="254.61847327880858" fill="none" stroke="rgb(50,50,50)" stroke-opacity="1" stroke-width="1"/><line x1="253.1517184" y1="246.61847327880858" x2="253.1517184" y2="254.61847327880858" fill="none" stroke="rgb(50,50,50)" stroke-opacity="1" stroke-width="1"/><line x1="311.88209919999997" y1="246.61847327880858" x2="311.88209919999997" y2="254.61847327880858" fill="none" stroke="rgb(50,50,50)" stroke-opacity="1" stroke-width="1"/><line x1="370.61247999999995" y1="246.61847327880858" x2="370.61247999999995" y2="254.61847327880858" fill="none" stroke="rgb(50,50,50)" stroke-opacity="1" stroke-width="1"/><line x1="429.3428607999999" y1="246.61847327880858" x2="429.3428607999999" y2="254.61847327880858" fill="none" stroke="rgb(50,50,50)" stroke-opacity="1" stroke-width="1"/><line x1="488.0732415999999" y1="246.61847327880858" x2="488.0732415999999" y2="254.61847327880858" fill="none" stroke="rgb(50,50,50)" stroke-opacity="1" stroke-width="1"/><line x1="546.8036223999999" y1="246.61847327880858" x2="546.8036223999999" y2="254.61847327880858" fill="none" stroke="rgb(50,50,50)" stroke-opacity="1" stroke-width="1"/><path d="M555.2666625976562,247.01847327880859 L563.2666625976562,250.61847327880858 L555.2666625976562,254.21847327880857 Z" stroke="none" stroke-width="1" fill="rgb(50,50,50)" fill-opacity="1"/></g><g class="test-yti" style="font-family: Asana-Math, Asana;"><line x1="76.960576" y1="4" x2="76.960576" y2="370.9416732788086" fill="none" stroke="rgb(50,50,50)" stroke-opacity="1" stroke-width="1"/><line x1="72.960576" y1="368.07923487880856" x2="80.960576" y2="368.07923487880856" fill="none" stroke="rgb(50,50,50)" stroke-opacity="1" stroke-width="1"/><line x1="72.960576" y1="309.3488540788086" x2="80.960576" y2="309.3488540788086" fill="none" stroke="rgb(50,50,50)" stroke-opacity="1" stroke-width="1"/><line x1="72.960576" y1="191.88809247880857" x2="80.960576" y2="191.88809247880857" fill="none" stroke="rgb(50,50,50)" stroke-opacity="1" stroke-width="1"/><line x1="72.960576" y1="133.15771167880857" x2="80.960576" y2="133.15771167880857" fill="none" stroke="rgb(50,50,50)" stroke-opacity="1" stroke-width="1"/><line x1="72.960576" y1="74.42733087880862" x2="80.960576" y2="74.42733087880862" fill="none" stroke="rgb(50,50,50)" stroke-opacity="1" stroke-width="1"/><line x1="72.960576" y1="15.696950078808584" x2="80.960576" y2="15.696950078808584" fill="none" stroke="rgb(50,50,50)" stroke-opacity="1" stroke-width="1"/><path d="M73.36057600000001,9 L76.960576,1 L80.560576,9 Z" stroke="none" stroke-width="1" fill="rgb(50,50,50)" fill-opacity="1"/></g><g class="test-plot-expression"><defs><clipPath id="cpk3185p84t"><rect x="1" y="1" width="562.2666625976562" height="368.9416732788086"/></clipPath></defs><g clip-path="url(#cpk3185p84t)"><path d=" M18.81,251.20 L18.62,251.00 L18.81,250.49 L19.08,249.77 L20.32,248.53 L20.69,248.16 L21.55,247.29 L22.57,246.28 L22.79,246.06 L24.03,244.82 L24.45,244.40 L25.26,243.59 L26.33,242.52 L26.50,242.35 L27.74,241.11 L28.21,240.64 L28.97,239.88 L30.09,238.75 L30.21,238.64 L31.45,237.40 L31.98,236.87 L32.68,236.17 L33.86,234.99 L33.92,234.93 L35.16,233.69 L35.74,233.11 L36.39,232.46 L37.62,231.23 L37.63,231.22 L38.86,229.98 L39.50,229.35 L40.10,228.75 L41.34,227.51 L41.38,227.47 L42.57,226.27 L43.26,225.59 L43.81,225.04 L45.05,223.80 L45.14,223.71 L46.28,222.57 L47.02,221.83 L47.52,221.33 L48.76,220.09 L48.90,219.95 L49.99,218.86 L50.78,218.06 L51.23,217.62 L52.47,216.38 L52.66,216.18 L53.70,215.15 L54.55,214.30 L54.94,213.91 L56.18,212.67 L56.43,212.42 L57.41,211.44 L58.31,210.54 L58.65,210.20 L59.88,208.96 L60.19,208.66 L61.12,207.73 L62.07,206.78 L62.36,206.49 L63.59,205.25 L63.95,204.90 L64.83,204.02 L65.83,203.02 L66.07,202.78 L67.30,201.54 L67.71,201.14 L68.54,200.31 L69.59,199.26 L69.78,199.07 L71.01,197.84 L71.47,197.37 L72.25,196.60 L73.35,195.49 L73.49,195.36 L74.72,194.13 L75.24,193.61 L76.10,192.89 L77.12,192.04 L77.96,192.89 L79.00,193.92 L79.20,194.13 L80.44,195.36 L80.88,195.81 L81.67,196.60 L82.76,197.69 L82.91,197.84 L84.14,199.07 L84.64,199.57 L85.38,200.31 L86.52,201.45 L86.62,201.54 L87.85,202.78 L88.40,203.33 L89.09,204.02 L90.28,205.21 L90.33,205.25 L91.56,206.49 L92.16,207.09 L92.80,207.73 L94.04,208.96 L94.04,208.97 L95.27,210.20 L95.93,210.85 L96.51,211.44 L97.75,212.67 L97.81,212.73 L98.98,213.91 L99.69,214.61 L100.22,215.15 L101.46,216.38 L101.57,216.50 L102.69,217.62 L103.45,218.38 L103.93,218.86 L105.16,220.09 L105.33,220.26 L106.40,221.33 L107.21,222.14 L107.64,222.57 L108.87,223.80 L109.09,224.02 L110.11,225.04 L110.97,225.90 L111.35,226.27 L112.58,227.51 L112.85,227.78 L113.82,228.75 L114.73,229.66 L115.06,229.98 L116.29,231.22 L116.62,231.54 L117.53,232.46 L118.50,233.42 L118.77,233.69 L120.00,234.93 L120.38,235.30 L121.24,236.17 L122.26,237.19 L122.48,237.40 L123.71,238.64 L124.14,239.07 L124.95,239.88 L126.02,240.95 L126.18,241.11 L127.42,242.35 L127.90,242.83 L128.66,243.59 L129.78,244.71 L129.89,244.82 L131.13,246.06 L131.66,246.59 L132.37,247.29 L133.54,248.47 L133.60,248.53 L134.84,249.77 L135.31,251.00 L134.07,252.24 L133.54,252.77 L132.83,253.48 L131.66,254.65 L131.60,254.71 L130.36,255.95 L129.78,256.53 L129.12,257.19 L127.90,258.41 L127.89,258.42 L126.65,259.66 L126.02,260.29 L125.41,260.90 L124.18,262.13 L124.14,262.17 L122.94,263.37 L122.26,264.05 L121.70,264.61 L120.47,265.84 L120.38,265.93 L119.23,267.08 L118.50,267.81 L117.99,268.31 L116.76,269.55 L116.62,269.69 L115.52,270.79 L114.73,271.58 L114.29,272.02 L113.05,273.26 L112.85,273.46 L111.81,274.50 L110.97,275.34 L110.58,275.73 L109.34,276.97 L109.09,277.22 L108.10,278.21 L107.21,279.10 L106.87,279.44 L105.63,280.68 L105.33,280.98 L104.39,281.92 L103.45,282.86 L103.16,283.15 L101.92,284.39 L101.57,284.74 L100.68,285.63 L99.69,286.62 L99.45,286.86 L98.21,288.10 L97.81,288.50 L96.97,289.33 L95.93,290.38 L95.74,290.57 L94.50,291.81 L94.04,292.26 L93.27,293.04 L92.16,294.15 L92.03,294.28 L90.79,295.52 L90.28,296.03 L89.56,296.75 L88.40,297.91 L88.32,297.99 L87.08,299.23 L86.52,299.79 L85.85,300.46 L84.64,301.67 L84.61,301.70 L83.37,302.94 L82.76,303.55 L82.14,304.17 L80.90,305.41 L80.88,305.43 L79.66,306.65 L79.00,307.31 L78.43,307.88 L77.19,309.12 L77.12,309.19 L77.03,309.12 L75.54,307.88 L75.24,307.62 L74.26,306.65 L73.35,305.74 L73.02,305.41 L71.78,304.17 L71.47,303.86 L70.55,302.94 L69.59,301.98 L69.31,301.70 L68.07,300.46 L67.71,300.10 L66.84,299.23 L65.83,298.22 L65.60,297.99 L64.37,296.75 L63.95,296.34 L63.13,295.52 L62.07,294.46 L61.89,294.28 L60.66,293.04 L60.19,292.58 L59.42,291.81 L58.31,290.70 L58.18,290.57 L56.95,289.33 L56.43,288.81 L55.71,288.10 L54.55,286.93 L54.47,286.86 L53.24,285.63 L52.66,285.05 L52.00,284.39 L50.78,283.17 L50.76,283.15 L49.53,281.92 L48.90,281.29 L48.29,280.68 L47.05,279.44 L47.02,279.41 L45.82,278.21 L45.14,277.53 L44.58,276.97 L43.35,275.73 L43.26,275.65 L42.11,274.50 L41.38,273.77 L40.87,273.26 L39.64,272.02 L39.50,271.89 L38.40,270.79 L37.62,270.01 L37.16,269.55 L35.93,268.31 L35.74,268.13 L34.69,267.08 L33.86,266.24 L33.45,265.84 L32.22,264.61 L31.98,264.36 L30.98,263.37 L30.09,262.48 L29.74,262.13 L28.51,260.90 L28.21,260.60 L27.27,259.66 L26.33,258.72 L26.03,258.42 L24.80,257.19 L24.45,256.84 L23.56,255.95 L22.57,254.96 L22.33,254.71 L21.09,253.48 L20.69,253.08 L19.85,252.24 L18.81,251.20" style="stroke-width: 2; stroke: rgb(68, 128, 194); stroke-opacity: 1;"/><path d=" M178.68,242.15 L178.52,241.11 L178.35,239.88 L178.19,238.64 L178.06,237.40 L177.94,236.17 L177.85,234.93 L177.77,233.69 L177.71,232.46 L177.67,231.22 L177.64,229.98 L177.64,228.75 L177.65,227.51 L177.68,226.27 L177.73,225.04 L177.80,223.80 L177.88,222.57 L177.98,221.33 L178.10,220.09 L178.23,218.86 L178.38,217.62 L178.55,216.38 L178.68,215.49 L178.74,215.15 L178.94,213.91 L179.16,212.67 L179.39,211.44 L179.64,210.20 L179.91,208.96 L180.19,207.73 L180.49,206.49 L180.57,206.19 L180.81,205.25 L181.14,204.02 L181.49,202.78 L181.85,201.54 L182.23,200.31 L182.45,199.62 L182.62,199.07 L183.04,197.84 L183.46,196.60 L183.91,195.36 L184.33,194.22 L184.36,194.13 L184.84,192.89 L185.33,191.65 L185.84,190.42 L186.21,189.54 L186.36,189.18 L186.90,187.94 L187.46,186.71 L188.02,185.47 L188.09,185.33 L188.61,184.23 L189.22,183.00 L189.84,181.76 L189.97,181.50 L190.47,180.52 L191.13,179.29 L191.79,178.05 L191.85,177.94 L192.48,176.82 L193.18,175.58 L193.73,174.63 L193.90,174.34 L194.63,173.11 L195.39,171.87 L195.61,171.50 L196.16,170.63 L196.94,169.40 L197.49,168.54 L197.74,168.16 L198.57,166.92 L199.37,165.73 L199.40,165.69 L200.26,164.45 L201.13,163.21 L201.26,163.04 L202.02,161.98 L202.93,160.74 L203.14,160.47 L203.86,159.50 L204.81,158.27 L205.02,158.00 L205.77,157.03 L206.76,155.80 L206.90,155.62 L207.76,154.56 L208.78,153.32 L208.78,153.32 L209.83,152.09 L210.66,151.11 L210.89,150.85 L211.97,149.61 L212.54,148.97 L213.07,148.38 L214.19,147.14 L214.42,146.89 L215.34,145.90 L216.30,144.88 L216.50,144.67 L217.69,143.43 L218.18,142.93 L218.90,142.19 L220.06,141.03 L220.13,140.96 L221.39,139.72 L221.94,139.18 L222.67,138.48 L223.83,137.38 L223.97,137.25 L225.29,136.01 L225.71,135.63 L226.65,134.78 L227.59,133.93 L228.02,133.54 L229.42,132.30 L229.47,132.26 L230.85,131.07 L231.35,130.64 L232.31,129.83 L233.23,129.06 L233.79,128.59 L235.11,127.51 L235.30,127.36 L236.84,126.12 L236.99,126.00 L238.42,124.88 L238.87,124.53 L240.02,123.65 L240.75,123.09 L241.65,122.41 L242.63,121.68 L243.32,121.17 L244.52,120.30 L245.02,119.94 L246.40,118.95 L246.76,118.70 L248.28,117.64 L248.53,117.46 L250.16,116.35 L250.34,116.23 L252.04,115.09 L252.19,114.99 L253.92,113.86 L254.08,113.76 L255.80,112.65 L256.01,112.52 L257.68,111.47 L257.99,111.28 L259.56,110.32 L260.01,110.05 L261.44,109.19 L262.08,108.81 L263.32,108.08 L264.20,107.57 L265.21,107.00 L266.38,106.34 L267.09,105.94 L268.60,105.10 L268.97,104.90 L270.85,103.89 L270.89,103.86 L272.73,102.90 L273.25,102.63 L274.61,101.93 L275.67,101.39 L276.49,100.98 L278.16,100.15 L278.37,100.05 L280.25,99.14 L280.73,98.92 L282.13,98.26 L283.38,97.68 L284.01,97.39 L285.90,96.54 L286.12,96.44 L287.78,95.72 L288.96,95.21 L289.66,94.91 L291.54,94.12 L291.91,93.97 L293.42,93.35 L294.97,92.74 L295.30,92.60 L297.18,91.87 L298.16,91.50 L299.06,91.16 L300.94,90.46 L301.50,90.26 L302.82,89.79 L304.70,89.13 L305.01,89.03 L306.58,88.49 L308.47,87.87 L308.70,87.79 L310.35,87.26 L312.23,86.67 L312.62,86.55 L314.11,86.10 L315.99,85.55 L316.81,85.32 L317.87,85.02 L319.75,84.50 L321.32,84.08 L321.63,84.00 L323.51,83.52 L325.39,83.05 L326.25,82.84 L327.27,82.60 L329.16,82.17 L331.04,81.75 L331.73,81.61 L332.92,81.36 L334.80,80.98 L336.68,80.61 L338.00,80.37 L338.56,80.27 L340.44,79.94 L342.32,79.63 L344.20,79.33 L345.55,79.13 L346.08,79.06 L347.96,78.80 L349.85,78.56 L351.73,78.33 L353.61,78.12 L355.49,77.93 L355.88,77.90 L357.37,77.76 L359.25,77.61 L361.13,77.47 L363.01,77.36 L364.89,77.26 L366.77,77.18 L368.65,77.11 L370.54,77.07 L372.42,77.05 L374.30,77.04 L376.18,77.06 L378.06,77.09 L379.94,77.14 L381.82,77.22 L383.70,77.31 L385.58,77.42 L387.46,77.56 L389.34,77.72 L391.22,77.89 L391.27,77.90 L393.11,78.09 L394.99,78.32 L396.87,78.56 L398.75,78.83 L400.63,79.12 L400.71,79.13 L402.51,79.44 L404.39,79.78 L406.27,80.14 L407.37,80.37 L408.15,80.54 L410.03,80.95 L411.91,81.40 L412.75,81.61 L413.80,81.87 L415.68,82.37 L417.36,82.84 L417.56,82.90 L419.44,83.46 L421.32,84.05 L421.40,84.08 L423.20,84.68 L425.03,85.32 L425.08,85.33 L426.96,86.03 L428.33,86.55 L428.84,86.75 L430.72,87.52 L431.37,87.79 L432.60,88.32 L434.18,89.03 L434.49,89.16 L436.37,90.05 L436.80,90.26 L438.25,90.98 L439.26,91.50 L440.13,91.95 L441.57,92.74 L442.01,92.98 L443.75,93.97 L443.89,94.05 L445.77,95.18 L445.81,95.21 L447.65,96.37 L447.77,96.44 L449.53,97.62 L449.63,97.68 L451.40,98.92 L451.41,98.93 L453.08,100.15 L453.29,100.32 L454.69,101.39 L455.18,101.78 L456.22,102.63 L457.06,103.32 L457.69,103.86 L458.94,104.95 L459.10,105.10 L460.45,106.34 L460.82,106.68 L461.74,107.57 L462.70,108.53 L462.98,108.81 L464.17,110.05 L464.58,110.49 L465.30,111.28 L466.40,112.52 L466.46,112.59 L467.44,113.76 L468.34,114.85 L468.45,114.99 L469.42,116.23 L470.22,117.30 L470.35,117.46 L471.23,118.70 L472.09,119.94 L472.10,119.96 L472.90,121.17 L473.69,122.41 L473.98,122.89 L474.44,123.65 L475.16,124.88 L475.85,126.12 L475.86,126.15 L476.50,127.36 L477.13,128.59 L477.74,129.83 L477.75,129.85 L478.31,131.07 L478.85,132.30 L479.37,133.54 L479.63,134.17 L479.86,134.78 L480.33,136.01 L480.77,137.25 L481.19,138.48 L481.51,139.46 L481.59,139.72 L481.96,140.96 L482.31,142.19 L482.63,143.43 L482.94,144.67 L483.22,145.90 L483.39,146.68 L483.48,147.14 L483.72,148.38 L483.94,149.61 L484.14,150.85 L484.32,152.09 L484.48,153.32 L484.62,154.56 L484.74,155.80 L484.84,157.03 L484.92,158.27 L484.98,159.50 L485.03,160.74 L485.06,161.98 L485.06,163.21 L485.05,164.45 L485.03,165.69 L484.98,166.92 L484.92,168.16 L484.84,169.40 L484.74,170.63 L484.63,171.87 L484.50,173.11 L484.35,174.34 L484.18,175.58 L484.00,176.82 L483.80,178.05 L483.59,179.29 L483.39,180.38 L483.36,180.52 L483.11,181.76 L482.85,183.00 L482.57,184.23 L482.27,185.47 L481.96,186.71 L481.63,187.94 L481.51,188.40 L481.29,189.18 L480.93,190.42 L480.55,191.65 L480.16,192.89 L479.75,194.13 L479.63,194.49 L479.33,195.36 L478.89,196.60 L478.43,197.84 L477.96,199.07 L477.75,199.62 L477.47,200.31 L476.97,201.54 L476.45,202.78 L475.91,204.02 L475.86,204.13 L475.36,205.25 L474.79,206.49 L474.21,207.73 L473.98,208.19 L473.61,208.96 L472.99,210.20 L472.36,211.44 L472.10,211.93 L471.71,212.67 L471.04,213.91 L470.36,215.15 L470.22,215.40 L469.66,216.38 L468.95,217.62 L468.34,218.65 L468.22,218.86 L467.47,220.09 L466.70,221.33 L466.46,221.72 L465.92,222.57 L465.12,223.80 L464.58,224.62 L464.30,225.04 L463.47,226.27 L462.70,227.40 L462.62,227.51 L461.75,228.75 L460.86,229.98 L460.82,230.04 L459.95,231.22 L459.03,232.46 L458.94,232.58 L458.09,233.69 L457.13,234.93 L457.06,235.02 L456.14,236.17 L455.18,237.37 L455.15,237.40 L454.13,238.64 L453.29,239.63 L453.09,239.88 L452.03,241.11 L451.41,241.82 L450.95,242.35 L449.86,243.59 L449.53,243.94 L448.74,244.82 L447.65,246.00 L447.60,246.06 L446.43,247.29 L445.77,247.99 L445.25,248.53 L444.05,249.77 L443.89,249.93 L442.82,251.00 L442.01,251.81 L441.57,252.24 L440.30,253.48 L440.13,253.64 L439.00,254.71 L438.25,255.42 L437.68,255.95 L436.37,257.16 L436.33,257.19 L434.96,258.42 L434.49,258.85 L433.56,259.66 L432.60,260.50 L432.14,260.90 L430.72,262.11 L430.69,262.13 L429.21,263.37 L428.84,263.68 L427.71,264.61 L426.96,265.21 L426.17,265.84 L425.08,266.71 L424.61,267.08 L423.20,268.17 L423.01,268.31 L421.39,269.55 L421.32,269.60 L419.72,270.79 L419.44,271.00 L418.03,272.02 L417.56,272.36 L416.30,273.26 L415.68,273.70 L414.53,274.50 L413.80,275.01 L412.73,275.73 L411.91,276.29 L410.89,276.97 L410.03,277.54 L409.01,278.21 L408.15,278.76 L407.09,279.44 L406.27,279.96 L405.12,280.68 L404.39,281.13 L403.11,281.92 L402.51,282.28 L401.05,283.15 L400.63,283.40 L398.94,284.39 L398.75,284.50 L396.87,285.57 L396.78,285.63 L394.99,286.62 L394.55,286.86 L393.11,287.65 L392.27,288.10 L391.22,288.66 L389.93,289.33 L389.34,289.64 L387.53,290.57 L387.46,290.61 L385.58,291.55 L385.05,291.81 L383.70,292.47 L382.50,293.04 L381.82,293.37 L379.94,294.25 L379.87,294.28 L378.06,295.11 L377.14,295.52 L376.18,295.95 L374.33,296.75 L374.30,296.77 L372.42,297.57 L371.40,297.99 L370.54,298.35 L368.65,299.11 L368.37,299.23 L366.77,299.85 L365.20,300.46 L364.89,300.58 L363.01,301.29 L361.89,301.70 L361.13,301.98 L359.25,302.65 L358.42,302.94 L357.37,303.30 L355.49,303.93 L354.76,304.17 L353.61,304.55 L351.73,305.15 L350.89,305.41 L349.85,305.73 L347.96,306.29 L346.76,306.65 L346.08,306.84 L344.20,307.37 L342.33,307.88 L342.32,307.88 L340.44,308.38 L338.56,308.85 L337.49,309.12 L336.68,309.31 L334.80,309.76 L332.92,310.18 L332.13,310.35 L331.04,310.59 L329.16,310.98 L327.27,311.36 L326.06,311.59 L325.39,311.72 L323.51,312.06 L321.63,312.38 L319.75,312.68 L318.83,312.83 L317.87,312.97 L315.99,313.24 L314.11,313.50 L312.23,313.73 L310.35,313.95 L309.32,314.06 L308.47,314.15 L306.58,314.34 L304.70,314.50 L302.82,314.65 L300.94,314.78 L299.06,314.89 L297.18,314.98 L295.30,315.06 L293.42,315.12 L291.54,315.15 L289.66,315.17 L287.78,315.17 L285.90,315.15 L284.01,315.11 L282.13,315.05 L280.25,314.97 L278.37,314.87 L276.49,314.75 L274.61,314.60 L272.73,314.44 L270.85,314.25 L269.11,314.06 L268.97,314.05 L267.09,313.82 L265.21,313.56 L263.32,313.29 L261.44,312.99 L260.50,312.83 L259.56,312.66 L257.68,312.31 L255.80,311.94 L254.15,311.59 L253.92,311.54 L252.04,311.11 L250.16,310.66 L248.96,310.35 L248.28,310.18 L246.40,309.67 L244.52,309.13 L244.48,309.12 L242.63,308.55 L240.75,307.95 L240.54,307.88 L238.87,307.32 L236.99,306.65 L236.98,306.65 L235.11,305.95 L233.74,305.41 L233.23,305.21 L231.35,304.43 L230.75,304.17 L229.47,303.61 L227.97,302.94 L227.59,302.76 L225.71,301.86 L225.39,301.70 L223.83,300.91 L222.96,300.46 L221.94,299.92 L220.68,299.23 L220.06,298.88 L218.52,297.99 L218.18,297.79 L216.48,296.75 L216.30,296.64 L214.55,295.52 L214.42,295.43 L212.71,294.28 L212.54,294.16 L210.96,293.04 L210.66,292.83 L209.29,291.81 L208.78,291.42 L207.70,290.57 L206.90,289.93 L206.18,289.33 L205.02,288.36 L204.72,288.10 L203.32,286.86 L203.14,286.69 L201.99,285.63 L201.26,284.92 L200.71,284.39 L199.48,283.15 L199.37,283.05 L198.30,281.92 L197.49,281.04 L197.17,280.68 L196.09,279.44 L195.61,278.88 L195.05,278.21 L194.05,276.97 L193.73,276.56 L193.09,275.73 L192.17,274.50 L191.85,274.05 L191.29,273.26 L190.45,272.02 L189.97,271.30 L189.63,270.79 L188.86,269.55 L188.11,268.31 L188.09,268.28 L187.40,267.08 L186.72,265.84 L186.21,264.88 L186.06,264.61 L185.44,263.37 L184.85,262.13 L184.33,261.00 L184.28,260.90 L183.74,259.66 L183.23,258.42 L182.74,257.19 L182.45,256.41 L182.28,255.95 L181.84,254.71 L181.43,253.48 L181.04,252.24 L180.67,251.00 L180.57,250.64 L180.32,249.77 L180.00,248.53 L179.70,247.29 L179.43,246.06 L179.17,244.82 L178.93,243.59 L178.72,242.35 L178.68,242.15" style="stroke-width: 2; stroke: rgb(60, 180, 75); stroke-opacity: 1;"/><path d=" M135.42,248.10 L135.35,247.29 L135.25,246.06 L135.17,244.82 L135.10,243.59 L135.04,242.35 L135.00,241.11 L134.98,239.88 L134.96,238.64 L134.97,237.40 L134.98,236.17 L135.01,234.93 L135.06,233.69 L135.11,232.46 L135.18,231.22 L135.27,229.98 L135.36,228.75 L135.42,228.09 L135.48,227.51 L135.60,226.27 L135.74,225.04 L135.89,223.80 L136.06,222.57 L136.23,221.33 L136.42,220.09 L136.63,218.86 L136.84,217.62 L137.07,216.38 L137.30,215.17 L137.31,215.15 L137.57,213.91 L137.83,212.67 L138.11,211.44 L138.41,210.20 L138.71,208.96 L139.03,207.73 L139.19,207.13 L139.36,206.49 L139.70,205.25 L140.06,204.02 L140.43,202.78 L140.81,201.54 L141.07,200.72 L141.20,200.31 L141.60,199.07 L142.02,197.84 L142.45,196.60 L142.89,195.36 L142.95,195.22 L143.35,194.13 L143.82,192.89 L144.30,191.65 L144.79,190.42 L144.83,190.32 L145.30,189.18 L145.82,187.94 L146.35,186.71 L146.71,185.87 L146.89,185.47 L147.44,184.23 L148.01,183.00 L148.59,181.76 L148.59,181.76 L149.19,180.52 L149.79,179.29 L150.41,178.05 L150.47,177.93 L151.04,176.82 L151.69,175.58 L152.34,174.34 L152.35,174.32 L153.01,173.11 L153.69,171.87 L154.23,170.91 L154.39,170.63 L155.10,169.40 L155.82,168.16 L156.11,167.66 L156.56,166.92 L157.30,165.69 L157.99,164.56 L158.06,164.45 L158.84,163.21 L159.63,161.98 L159.88,161.59 L160.43,160.74 L161.24,159.50 L161.76,158.74 L162.07,158.27 L162.92,157.03 L163.64,155.99 L163.77,155.80 L164.64,154.56 L165.52,153.33 L165.52,153.32 L166.42,152.09 L167.33,150.85 L167.40,150.76 L168.26,149.61 L169.20,148.38 L169.28,148.28 L170.16,147.14 L171.13,145.90 L171.16,145.86 L172.12,144.67 L173.04,143.52 L173.11,143.43 L174.13,142.19 L174.92,141.24 L175.16,140.96 L176.21,139.72 L176.80,139.03 L177.27,138.48 L178.35,137.25 L178.68,136.86 L179.44,136.01 L180.55,134.78 L180.57,134.76 L181.68,133.54 L182.45,132.70 L182.82,132.30 L183.98,131.07 L184.33,130.69 L185.15,129.83 L186.21,128.73 L186.34,128.59 L187.55,127.36 L188.09,126.82 L188.78,126.12 L189.97,124.94 L190.03,124.88 L191.29,123.65 L191.85,123.11 L192.57,122.41 L193.73,121.31 L193.87,121.17 L195.19,119.94 L195.61,119.55 L196.53,118.70 L197.49,117.82 L197.89,117.46 L199.27,116.23 L199.37,116.13 L200.67,114.99 L201.26,114.48 L202.09,113.76 L203.14,112.85 L203.52,112.52 L204.98,111.28 L205.02,111.25 L206.47,110.05 L206.90,109.69 L207.97,108.81 L208.78,108.16 L209.50,107.57 L210.66,106.65 L211.05,106.34 L212.54,105.17 L212.63,105.10 L214.23,103.86 L214.42,103.71 L215.85,102.63 L216.30,102.29 L217.50,101.39 L218.18,100.88 L219.18,100.15 L220.06,99.51 L220.88,98.92 L221.94,98.15 L222.61,97.68 L223.83,96.82 L224.36,96.44 L225.71,95.51 L226.15,95.21 L227.59,94.23 L227.97,93.97 L229.47,92.96 L229.81,92.74 L231.35,91.72 L231.69,91.50 L233.23,90.50 L233.60,90.26 L235.11,89.30 L235.55,89.03 L236.99,88.12 L237.53,87.79 L238.87,86.96 L239.54,86.55 L240.75,85.82 L241.60,85.32 L242.63,84.70 L243.69,84.08 L244.52,83.60 L245.82,82.84 L246.40,82.51 L247.99,81.61 L248.28,81.45 L250.16,80.40 L250.21,80.37 L252.04,79.37 L252.47,79.13 L253.92,78.36 L254.78,77.90 L255.80,77.36 L257.14,76.66 L257.68,76.38 L259.55,75.42 L259.56,75.42 L261.44,74.48 L262.03,74.19 L263.32,73.55 L264.55,72.95 L265.21,72.64 L267.09,71.74 L267.14,71.72 L268.97,70.86 L269.80,70.48 L270.85,70.00 L272.52,69.24 L272.73,69.15 L274.61,68.32 L275.32,68.01 L276.49,67.50 L278.19,66.77 L278.37,66.69 L280.25,65.91 L281.16,65.53 L282.13,65.13 L284.01,64.37 L284.21,64.30 L285.90,63.63 L287.37,63.06 L287.78,62.90 L289.66,62.19 L290.64,61.82 L291.54,61.49 L293.42,60.80 L294.02,60.59 L295.30,60.13 L297.18,59.47 L297.54,59.35 L299.06,58.83 L300.94,58.20 L301.20,58.11 L302.82,57.59 L304.70,56.98 L305.04,56.88 L306.58,56.40 L308.47,55.82 L309.07,55.64 L310.35,55.26 L312.23,54.71 L313.32,54.40 L314.11,54.18 L315.99,53.66 L317.82,53.17 L317.87,53.15 L319.75,52.66 L321.63,52.18 L322.65,51.93 L323.51,51.72 L325.39,51.27 L327.27,50.83 L327.85,50.70 L329.16,50.40 L331.04,49.99 L332.92,49.59 L333.56,49.46 L334.80,49.21 L336.68,48.83 L338.56,48.48 L339.94,48.22 L340.44,48.13 L342.32,47.80 L344.20,47.48 L346.08,47.18 L347.31,46.99 L347.96,46.89 L349.85,46.61 L351.73,46.35 L353.61,46.09 L355.49,45.86 L356.40,45.75 L357.37,45.63 L359.25,45.43 L361.13,45.23 L363.01,45.05 L364.89,44.88 L366.77,44.73 L368.65,44.59 L369.79,44.51 L370.54,44.46 L372.42,44.35 L374.30,44.26 L376.18,44.18 L378.06,44.11 L379.94,44.06 L381.82,44.02 L383.70,43.99 L385.58,43.99 L387.46,43.99 L389.34,44.01 L391.22,44.05 L393.11,44.10 L394.99,44.17 L396.87,44.26 L398.75,44.36 L400.63,44.47 L401.19,44.51 L402.51,44.61 L404.39,44.76 L406.27,44.92 L408.15,45.11 L410.03,45.31 L411.91,45.52 L413.72,45.75 L413.80,45.76 L415.68,46.01 L417.56,46.29 L419.44,46.58 L421.32,46.88 L421.90,46.99 L423.20,47.21 L425.08,47.56 L426.96,47.93 L428.40,48.22 L428.84,48.31 L430.72,48.72 L432.60,49.15 L433.89,49.46 L434.49,49.60 L436.37,50.07 L438.25,50.57 L438.71,50.70 L440.13,51.09 L442.01,51.63 L443.04,51.93 L443.89,52.19 L445.77,52.78 L446.98,53.17 L447.65,53.39 L449.53,54.03 L450.60,54.40 L451.41,54.69 L453.29,55.39 L453.96,55.64 L455.18,56.11 L457.06,56.85 L457.11,56.88 L458.94,57.63 L460.06,58.11 L460.82,58.44 L462.70,59.28 L462.85,59.35 L464.58,60.16 L465.48,60.59 L466.46,61.06 L467.98,61.82 L468.34,62.00 L470.22,62.98 L470.37,63.06 L472.10,64.00 L472.64,64.30 L473.98,65.06 L474.81,65.53 L475.86,66.15 L476.89,66.77 L477.75,67.29 L478.88,68.01 L479.63,68.48 L480.80,69.24 L481.51,69.71 L482.64,70.48 L483.39,71.00 L484.41,71.72 L485.27,72.33 L486.11,72.95 L487.15,73.72 L487.76,74.19 L489.03,75.18 L489.35,75.42 L490.88,76.66 L490.91,76.69 L492.35,77.90 L492.79,78.27 L493.78,79.13 L494.67,79.93 L495.16,80.37 L496.50,81.61 L496.55,81.66 L497.78,82.84 L498.44,83.48 L499.03,84.08 L500.24,85.32 L500.32,85.39 L501.41,86.55 L502.20,87.41 L502.54,87.79 L503.64,89.03 L504.08,89.53 L504.70,90.26 L505.73,91.50 L505.96,91.78 L506.72,92.74 L507.69,93.97 L507.84,94.17 L508.62,95.21 L509.53,96.44 L509.72,96.72 L510.40,97.68 L511.25,98.92 L511.60,99.45 L512.06,100.15 L512.86,101.39 L513.48,102.40 L513.62,102.63 L514.36,103.86 L515.08,105.10 L515.36,105.60 L515.77,106.34 L516.44,107.57 L517.08,108.81 L517.24,109.13 L517.70,110.05 L518.30,111.28 L518.88,112.52 L519.13,113.05 L519.44,113.76 L519.97,114.99 L520.49,116.23 L520.99,117.46 L521.01,117.52 L521.46,118.70 L521.91,119.94 L522.35,121.17 L522.77,122.41 L522.89,122.77 L523.17,123.65 L523.55,124.88 L523.91,126.12 L524.25,127.36 L524.58,128.59 L524.77,129.33 L524.89,129.83 L525.18,131.07 L525.46,132.30 L525.72,133.54 L525.96,134.78 L526.19,136.01 L526.40,137.25 L526.59,138.48 L526.65,138.88 L526.77,139.72 L526.93,140.96 L527.08,142.19 L527.21,143.43 L527.33,144.67 L527.43,145.90 L527.52,147.14 L527.59,148.38 L527.65,149.61 L527.69,150.85 L527.72,152.09 L527.73,153.32 L527.74,154.56 L527.72,155.80 L527.70,157.03 L527.66,158.27 L527.60,159.50 L527.53,160.74 L527.45,161.98 L527.36,163.21 L527.25,164.45 L527.13,165.69 L526.99,166.92 L526.84,168.16 L526.68,169.40 L526.65,169.63 L526.51,170.63 L526.32,171.87 L526.12,173.11 L525.90,174.34 L525.68,175.58 L525.44,176.82 L525.19,178.05 L524.92,179.29 L524.77,179.99 L524.65,180.52 L524.36,181.76 L524.05,183.00 L523.74,184.23 L523.41,185.47 L523.07,186.71 L522.89,187.35 L522.72,187.94 L522.35,189.18 L521.97,190.42 L521.58,191.65 L521.18,192.89 L521.01,193.41 L520.77,194.13 L520.34,195.36 L519.90,196.60 L519.44,197.84 L519.13,198.69 L518.98,199.07 L518.50,200.31 L518.01,201.54 L517.51,202.78 L517.24,203.42 L516.99,204.02 L516.46,205.25 L515.92,206.49 L515.37,207.73 L515.36,207.75 L514.81,208.96 L514.23,210.20 L513.64,211.44 L513.48,211.76 L513.03,212.67 L512.42,213.91 L511.79,215.15 L511.60,215.51 L511.15,216.38 L510.49,217.62 L509.83,218.86 L509.72,219.05 L509.15,220.09 L508.45,221.33 L507.84,222.41 L507.75,222.57 L507.03,223.80 L506.30,225.04 L505.96,225.60 L505.55,226.27 L504.79,227.51 L504.08,228.66 L504.02,228.75 L503.23,229.98 L502.44,231.22 L502.20,231.59 L501.62,232.46 L500.80,233.69 L500.32,234.40 L499.96,234.93 L499.10,236.17 L498.44,237.12 L498.24,237.40 L497.36,238.64 L496.55,239.75 L496.46,239.88 L495.55,241.11 L494.67,242.29 L494.63,242.35 L493.69,243.59 L492.79,244.75 L492.74,244.82 L491.77,246.06 L490.91,247.14 L490.79,247.29 L489.79,248.53 L489.03,249.46 L488.78,249.77 L487.75,251.00 L487.15,251.72 L486.71,252.24 L485.65,253.48 L485.27,253.92 L484.57,254.71 L483.49,255.95 L483.39,256.06 L482.38,257.19 L481.51,258.15 L481.26,258.42 L480.12,259.66 L479.63,260.19 L478.96,260.90 L477.79,262.13 L477.75,262.18 L476.60,263.37 L475.86,264.12 L475.39,264.61 L474.17,265.84 L473.98,266.03 L472.93,267.08 L472.10,267.89 L471.67,268.31 L470.39,269.55 L470.22,269.71 L469.09,270.79 L468.34,271.50 L467.78,272.02 L466.46,273.25 L466.45,273.26 L465.09,274.50 L464.58,274.96 L463.71,275.73 L462.70,276.64 L462.32,276.97 L460.91,278.21 L460.82,278.28 L459.47,279.44 L458.94,279.90 L458.01,280.68 L457.06,281.48 L456.54,281.92 L455.18,283.04 L455.04,283.15 L453.51,284.39 L453.29,284.56 L451.97,285.63 L451.41,286.06 L450.39,286.86 L449.53,287.53 L448.80,288.10 L447.65,288.98 L447.18,289.33 L445.77,290.40 L445.54,290.57 L443.89,291.79 L443.87,291.81 L442.17,293.04 L442.01,293.16 L440.45,294.28 L440.13,294.51 L438.70,295.52 L438.25,295.83 L436.92,296.75 L436.37,297.13 L435.11,297.99 L434.49,298.41 L433.26,299.23 L432.60,299.67 L431.39,300.46 L430.72,300.90 L429.49,301.70 L428.84,302.11 L427.55,302.94 L426.96,303.31 L425.58,304.17 L425.08,304.48 L423.57,305.41 L423.20,305.64 L421.53,306.65 L421.32,306.77 L419.45,307.88 L419.44,307.89 L417.56,308.98 L417.32,309.12 L415.68,310.06 L415.15,310.35 L413.80,311.12 L412.94,311.59 L411.91,312.16 L410.69,312.83 L410.03,313.18 L408.39,314.06 L408.15,314.19 L406.27,315.18 L406.04,315.30 L404.39,316.15 L403.64,316.54 L402.51,317.11 L401.18,317.77 L400.63,318.05 L398.75,318.97 L398.67,319.01 L396.87,319.88 L396.09,320.25 L394.99,320.77 L393.45,321.48 L393.11,321.64 L391.22,322.50 L390.74,322.72 L389.34,323.34 L387.96,323.96 L387.46,324.17 L385.58,324.99 L385.10,325.19 L383.70,325.78 L382.15,326.43 L381.82,326.57 L379.94,327.33 L379.11,327.67 L378.06,328.09 L376.18,328.83 L375.98,328.90 L374.30,329.55 L372.74,330.14 L372.42,330.26 L370.54,330.95 L369.38,331.37 L368.65,331.64 L366.77,332.30 L365.89,332.61 L364.89,332.96 L363.01,333.59 L362.25,333.85 L361.13,334.22 L359.25,334.83 L358.45,335.08 L357.37,335.43 L355.49,336.01 L354.47,336.32 L353.61,336.58 L351.73,337.14 L350.27,337.56 L349.85,337.68 L347.96,338.21 L346.08,338.72 L345.82,338.79 L344.20,339.22 L342.32,339.71 L341.06,340.03 L340.44,340.19 L338.56,340.65 L336.68,341.10 L335.94,341.27 L334.80,341.53 L332.92,341.95 L331.04,342.36 L330.35,342.50 L329.16,342.75 L327.27,343.13 L325.39,343.50 L324.13,343.74 L323.51,343.85 L321.63,344.19 L319.75,344.52 L317.87,344.83 L316.99,344.98 L315.99,345.13 L314.11,345.42 L312.23,345.69 L310.35,345.95 L308.47,346.20 L308.36,346.21 L306.58,346.43 L304.70,346.65 L302.82,346.85 L300.94,347.04 L299.06,347.22 L297.18,347.38 L296.36,347.45 L295.30,347.53 L293.42,347.67 L291.54,347.79 L289.66,347.89 L287.78,347.98 L285.90,348.06 L284.01,348.12 L282.13,348.17 L280.25,348.21 L278.37,348.22 L276.49,348.23 L274.61,348.21 L272.73,348.19 L270.85,348.14 L268.97,348.09 L267.09,348.01 L265.21,347.92 L263.32,347.82 L261.44,347.70 L259.56,347.56 L258.23,347.45 L257.68,347.40 L255.80,347.23 L253.92,347.04 L252.04,346.83 L250.16,346.61 L248.28,346.37 L247.13,346.21 L246.40,346.11 L244.52,345.83 L242.63,345.53 L240.75,345.22 L239.37,344.98 L238.87,344.89 L236.99,344.53 L235.11,344.16 L233.23,343.76 L233.12,343.74 L231.35,343.35 L229.47,342.91 L227.78,342.50 L227.59,342.46 L225.71,341.98 L223.83,341.47 L223.07,341.27 L221.94,340.95 L220.06,340.40 L218.84,340.03 L218.18,339.83 L216.30,339.23 L214.97,338.79 L214.42,338.61 L212.54,337.96 L211.40,337.56 L210.66,337.29 L208.78,336.59 L208.08,336.32 L206.90,335.86 L205.02,335.10 L204.98,335.08 L203.14,334.31 L202.06,333.85 L201.26,333.49 L199.37,332.64 L199.31,332.61 L197.49,331.76 L196.70,331.37 L195.61,330.84 L194.23,330.14 L193.73,329.88 L191.86,328.90 L191.85,328.90 L189.97,327.86 L189.61,327.67 L188.09,326.79 L187.46,326.43 L186.21,325.68 L185.40,325.19 L184.33,324.53 L183.42,323.96 L182.45,323.33 L181.52,322.72 L180.57,322.08 L179.70,321.48 L178.68,320.78 L177.94,320.25 L176.80,319.42 L176.25,319.01 L174.92,318.01 L174.61,317.77 L173.04,316.54 L173.04,316.54 L171.52,315.30 L171.16,315.00 L170.06,314.06 L169.28,313.39 L168.64,312.83 L167.40,311.71 L167.27,311.59 L165.94,310.35 L165.52,309.95 L164.66,309.12 L163.64,308.10 L163.42,307.88 L162.22,306.65 L161.76,306.16 L161.06,305.41 L159.93,304.17 L159.88,304.11 L158.84,302.94 L157.99,301.95 L157.79,301.70 L156.77,300.46 L156.11,299.65 L155.78,299.23 L154.82,297.99 L154.23,297.21 L153.89,296.75 L153.00,295.52 L152.35,294.60 L152.13,294.28 L151.29,293.04 L150.47,291.81 L150.47,291.80 L149.69,290.57 L148.93,289.33 L148.59,288.77 L148.19,288.10 L147.48,286.86 L146.79,285.63 L146.71,285.47 L146.13,284.39 L145.49,283.15 L144.87,281.92 L144.83,281.83 L144.28,280.68 L143.70,279.44 L143.15,278.21 L142.95,277.74 L142.62,276.97 L142.11,275.73 L141.62,274.50 L141.15,273.26 L141.07,273.04 L140.70,272.02 L140.26,270.79 L139.85,269.55 L139.46,268.31 L139.19,267.44 L139.08,267.08 L138.72,265.84 L138.38,264.61 L138.06,263.37 L137.75,262.13 L137.46,260.90 L137.30,260.19 L137.19,259.66 L136.93,258.42 L136.70,257.19 L136.47,255.95 L136.27,254.71 L136.07,253.48 L135.90,252.24 L135.74,251.00 L135.59,249.77 L135.46,248.53 L135.42,248.10" style="stroke-width: 2; stroke: rgb(245, 130, 49); stroke-opacity: 1;"/></g></g><g class="test-xtl" style="font-family: &quot;Open Sans&quot;, verdana, arial, sans-serif;"><text text-anchor="middle" font-size="20" dominant-baseline="hanging" stroke="none" fill="rgb(50,50,50)" fill-opacity="1" x="12.530195200000012" y="257.61847327880855">-1</text><text text-anchor="middle" font-size="20" dominant-baseline="hanging" stroke="none" fill="rgb(50,50,50)" fill-opacity="1" x="135.69095679999998" y="257.61847327880855">1</text><text text-anchor="middle" font-size="20" dominant-baseline="hanging" stroke="none" fill="rgb(50,50,50)" fill-opacity="1" x="194.4213376" y="257.61847327880855">2</text><text text-anchor="middle" font-size="20" dominant-baseline="hanging" stroke="none" fill="rgb(50,50,50)" fill-opacity="1" x="253.1517184" y="257.61847327880855">3</text><text text-anchor="middle" font-size="20" dominant-baseline="hanging" stroke="none" fill="rgb(50,50,50)" fill-opacity="1" x="311.88209919999997" y="257.61847327880855">4</text><text text-anchor="middle" font-size="20" dominant-baseline="hanging" stroke="none" fill="rgb(50,50,50)" fill-opacity="1" x="370.61247999999995" y="257.61847327880855">5</text><text text-anchor="middle" font-size="20" dominant-baseline="hanging" stroke="none" fill="rgb(50,50,50)" fill-opacity="1" x="429.3428607999999" y="257.61847327880855">6</text><text text-anchor="middle" font-size="20" dominant-baseline="hanging" stroke="none" fill="rgb(50,50,50)" fill-opacity="1" x="488.0732415999999" y="257.61847327880855">7</text><text text-anchor="middle" font-size="20" dominant-baseline="hanging" stroke="none" fill="rgb(50,50,50)" fill-opacity="1" x="546.8036223999999" y="257.61847327880855">8</text><text text-anchor="middle" font-size="20" dominant-baseline="hanging" stroke="none" fill="rgb(50,50,50)" fill-opacity="1" x="68.96057599999999" y="255.61847327880858">0</text></g><g class="test-ytl" style="font-family: &quot;Open Sans&quot;, verdana, arial, sans-serif;"><text text-anchor="end" dominant-baseline="middle" font-size="20" stroke="none" fill="rgb(50,50,50)" fill-opacity="1" x="68.960576" y="368.07923487880856">-2</text><text text-anchor="end" dominant-baseline="middle" font-size="20" stroke="none" fill="rgb(50,50,50)" fill-opacity="1" x="68.960576" y="309.3488540788086">-1</text><text text-anchor="end" dominant-baseline="middle" font-size="20" stroke="none" fill="rgb(50,50,50)" fill-opacity="1" x="68.960576" y="191.88809247880857">1</text><text text-anchor="end" dominant-baseline="middle" font-size="20" stroke="none" fill="rgb(50,50,50)" fill-opacity="1" x="68.960576" y="133.15771167880857">2</text><text text-anchor="end" dominant-baseline="middle" font-size="20" stroke="none" fill="rgb(50,50,50)" fill-opacity="1" x="68.960576" y="74.42733087880862">3</text><text text-anchor="end" dominant-baseline="middle" font-size="20" stroke="none" fill="rgb(50,50,50)" fill-opacity="1" x="68.960576" y="15.696950078808584">4</text></g><rect class="real" x="1" y="1" width="562.2666625976562" height="368.9416732788086" style="fill: transparent; stroke: none;"/></g></g></g><g/></g><g/><g/><g/></svg>
        <svg xmlns="http://www.w3.org/2000/svg" xmlns:xlink="http://www.w3.org/1999/xlink" width="660" height="389" style="width:660px;height:389px;font-family:LatinModern-Math, LatinModern, Asana-Math, Asana;background:#FFF;"><g><g><g><g transform="matrix(1,0,0,1,567.6666870117188,313.14668701171877)"><path transform="matrix(0.024480000000000002,0,0,-0.024480000000000002,0,0)" d="M691 372C691 427 664 442 647 442C622 442 597 416 597 394C597 381 603 375 612 367C623 356 648 330 648 282C648 248 619 150 593 99C567 46 532 11 483 11C436 11 409 41 409 98C409 126 416 157 420 171L462 339C467 361 477 398 477 404C477 422 463 431 448 431C436 431 418 423 411 403C408 396 361 205 354 179C347 149 345 131 345 113C345 102 345 100 346 95C323 42 293 11 254 11C174 11 174 85 174 102C174 134 179 173 226 296C237 326 243 340 243 360C243 405 210 442 161 442C66 442 29 297 29 288C29 278 41 278 41 278C51 278 52 280 57 296C84 389 123 420 158 420C167 420 183 419 183 387C183 362 172 334 165 317C121 199 109 153 109 115C109 24 176 -11 251 -11C268 -11 315 -11 355 59C381 -5 450 -11 480 -11C555 -11 599 52 625 112C659 190 691 324 691 372Z" stroke="rgb(0,0,0)" stroke-opacity="1" stroke-width="8" fill="rgb(0,0,0)" fill-opacity="1"></path></g></g><g><g><g><g><g transform="matrix(1,0,0,1,585.9270629882812,317.4693435058594)"><path transform="matrix(0.017136,0,0,-0.017136,0,0)" d="M419 0L419 31L387 31C297 31 294 42 294 79L294 640C294 664 294 666 271 666C209 602 121 602 89 602L89 571C109 571 168 571 220 597L220 79C220 43 217 31 127 31L95 31L95 0C130 3 217 3 257 3C297 3 384 3 419 0Z" stroke="rgb(0,0,0)" stroke-opacity="1" stroke-width="8" fill="rgb(0,0,0)" fill-opacity="1"></path></g></g></g></g></g></g></g><g><g><g><g transform="matrix(1,0,0,1,74.66665649414062,61.14667175292969)"><path transform="matrix(0.024480000000000002,0,0,-0.024480000000000002,0,0)" d="M691 372C691 427 664 442 647 442C622 442 597 416 597 394C597 381 603 375 612 367C623 356 648 330 648 282C648 248 619 150 593 99C567 46 532 11 483 11C436 11 409 41 409 98C409 126 416 157 420 171L462 339C467 361 477 398 477 404C477 422 463 431 448 431C436 431 418 423 411 403C408 396 361 205 354 179C347 149 345 131 345 113C345 102 345 100 346 95C323 42 293 11 254 11C174 11 174 85 174 102C174 134 179 173 226 296C237 326 243 340 243 360C243 405 210 442 161 442C66 442 29 297 29 288C29 278 41 278 41 278C51 278 52 280 57 296C84 389 123 420 158 420C167 420 183 419 183 387C183 362 172 334 165 317C121 199 109 153 109 115C109 24 176 -11 251 -11C268 -11 315 -11 355 59C381 -5 450 -11 480 -11C555 -11 599 52 625 112C659 190 691 324 691 372Z" stroke="rgb(0,0,0)" stroke-opacity="1" stroke-width="8" fill="rgb(0,0,0)" fill-opacity="1"></path></g></g><g><g><g><g><g transform="matrix(1,0,0,1,92.92706298828125,65.46933587646484)"><path transform="matrix(0.017136,0,0,-0.017136,0,0)" d="M449 174L424 174C419 144 412 100 402 85C395 77 329 77 307 77L127 77L233 180C389 318 449 372 449 472C449 586 359 666 237 666C124 666 50 574 50 485C50 429 100 429 103 429C120 429 155 441 155 482C155 508 137 534 102 534C94 534 92 534 89 533C112 598 166 635 224 635C315 635 358 554 358 472C358 392 308 313 253 251L61 37C50 26 50 24 50 0L421 0Z" stroke="rgb(0,0,0)" stroke-opacity="1" stroke-width="8" fill="rgb(0,0,0)" fill-opacity="1"></path></g></g></g></g></g></g></g><g><g><g><g transform="matrix(1,0,0,1,417.66668701171875,47.14667175292969)"><path transform="matrix(0.024480000000000002,0,0,-0.024480000000000002,0,0)" d="M552 636C552 682 506 705 465 705C431 705 368 687 338 588C332 567 329 557 305 431L236 431C217 431 206 431 206 412C206 400 215 400 234 400L300 400L225 5C207 -92 190 -183 138 -183C134 -183 109 -183 90 -165C136 -162 145 -126 145 -111C145 -88 127 -76 108 -76C82 -76 53 -98 53 -136C53 -181 97 -205 138 -205C193 -205 233 -146 251 -108C283 -45 306 76 307 83L367 400L453 400C473 400 483 400 483 420C483 431 473 431 456 431L373 431C384 489 383 487 394 545C398 566 412 637 418 649C427 668 444 683 465 683C469 683 495 683 514 665C470 661 460 626 460 611C460 588 478 576 497 576C523 576 552 598 552 636Z" stroke="rgb(0,0,0)" stroke-opacity="1" stroke-width="8" fill="rgb(0,0,0)" fill-opacity="1"></path></g></g><g><g transform="matrix(1,0,0,1,429.66668701171875,47.14667175292969)"><path transform="matrix(0.024480000000000002,0,0,-0.024480000000000002,0,0)" d="M332 -238C332 -235 330 -232 328 -230C224 -152 155 48 155 208L155 292C155 452 224 652 328 730C330 732 332 735 332 738C332 743 327 748 322 748C320 748 318 747 316 746C206 663 101 463 101 292L101 208C101 37 206 -163 316 -246C318 -247 320 -248 322 -248C327 -248 332 -243 332 -238Z" stroke="rgb(0,0,0)" stroke-opacity="1" stroke-width="8" fill="rgb(0,0,0)" fill-opacity="1"></path></g></g><g><g transform="matrix(1,0,0,1,439.19793701171875,47.14667175292969)"><path transform="matrix(0.024480000000000002,0,0,-0.024480000000000002,0,0)" d="M703 400L703 431C681 429 652 428 630 428L537 431L537 400C573 399 595 381 595 352C595 346 595 344 590 331L499 75L400 354C396 366 395 368 395 373C395 400 434 400 454 400L454 431L350 428C320 428 291 429 261 431L261 400C298 400 314 398 324 385C329 379 340 349 347 330L261 88L166 355C161 367 161 369 161 373C161 400 200 400 220 400L220 431L111 428L18 431L18 400C68 400 80 397 92 365L218 11C223 -3 226 -11 239 -11C252 -11 254 -5 259 9L360 292L462 8C466 -3 469 -11 482 -11C495 -11 498 -2 502 8L619 336C637 386 668 399 703 400Z" stroke="rgb(0,0,0)" stroke-opacity="1" stroke-width="24" fill="rgb(0,0,0)" fill-opacity="1"></path></g></g><g><g transform="matrix(1,0,0,1,456.875,47.14667175292969)"><path transform="matrix(0.024480000000000002,0,0,-0.024480000000000002,0,0)" d="M288 208L288 292C288 463 183 663 73 746C71 747 69 748 67 748C62 748 57 743 57 738C57 735 59 732 61 730C165 652 234 452 234 292L234 208C234 48 165 -152 61 -230C59 -232 57 -235 57 -238C57 -243 62 -248 67 -248C69 -248 71 -247 73 -246C183 -163 288 37 288 208Z" stroke="rgb(0,0,0)" stroke-opacity="1" stroke-width="8" fill="rgb(0,0,0)" fill-opacity="1"></path></g></g><g><g transform="matrix(1,0,0,1,473.75,47.14667175292969)"><path transform="matrix(0.024480000000000002,0,0,-0.024480000000000002,0,0)" d="M722 347C722 358 713 367 702 367L76 367C65 367 56 358 56 347C56 336 65 327 76 327L702 327C713 327 722 336 722 347ZM722 153C722 164 713 173 702 173L76 173C65 173 56 164 56 153C56 142 65 133 76 133L702 133C713 133 722 142 722 153Z" stroke="rgb(0,0,0)" stroke-opacity="1" stroke-width="8" fill="rgb(0,0,0)" fill-opacity="1"></path></g></g><g><g transform="matrix(1,0,0,1,500.14581298828125,47.14667175292969)"><path transform="matrix(0.024480000000000002,0,0,-0.024480000000000002,0,0)" d="M430 107C430 113 424 120 418 120C413 120 411 118 405 110C326 11 217 11 205 11C142 11 115 60 115 120C115 161 135 258 169 320C200 377 255 420 310 420C344 420 382 407 396 380C380 380 366 380 352 366C336 351 334 334 334 327C334 303 352 292 371 292C400 292 427 316 427 356C427 405 380 442 309 442C174 442 41 299 41 158C41 68 99 -11 203 -11C346 -11 430 95 430 107Z" stroke="rgb(0,0,0)" stroke-opacity="1" stroke-width="8" fill="rgb(0,0,0)" fill-opacity="1"></path></g></g><g><g><g><g><g transform="matrix(1,0,0,1,511.47918701171875,51.46933587646484)"><path transform="matrix(0.017136,0,0,-0.017136,0,0)" d="M419 0L419 31L387 31C297 31 294 42 294 79L294 640C294 664 294 666 271 666C209 602 121 602 89 602L89 571C109 571 168 571 220 597L220 79C220 43 217 31 127 31L95 31L95 0C130 3 217 3 257 3C297 3 384 3 419 0Z" stroke="rgb(0,0,0)" stroke-opacity="1" stroke-width="8" fill="rgb(0,0,0)" fill-opacity="1"></path></g></g></g></g></g></g></g><g><g><g><g transform="matrix(1,0,0,1,303.66668701171875,158.14667175292968)"><path transform="matrix(0.024480000000000002,0,0,-0.024480000000000002,0,0)" d="M552 636C552 682 506 705 465 705C431 705 368 687 338 588C332 567 329 557 305 431L236 431C217 431 206 431 206 412C206 400 215 400 234 400L300 400L225 5C207 -92 190 -183 138 -183C134 -183 109 -183 90 -165C136 -162 145 -126 145 -111C145 -88 127 -76 108 -76C82 -76 53 -98 53 -136C53 -181 97 -205 138 -205C193 -205 233 -146 251 -108C283 -45 306 76 307 83L367 400L453 400C473 400 483 400 483 420C483 431 473 431 456 431L373 431C384 489 383 487 394 545C398 566 412 637 418 649C427 668 444 683 465 683C469 683 495 683 514 665C470 661 460 626 460 611C460 588 478 576 497 576C523 576 552 598 552 636Z" stroke="rgb(0,0,0)" stroke-opacity="1" stroke-width="8" fill="rgb(0,0,0)" fill-opacity="1"></path></g></g><g><g transform="matrix(1,0,0,1,315.66668701171875,158.14667175292968)"><path transform="matrix(0.024480000000000002,0,0,-0.024480000000000002,0,0)" d="M332 -238C332 -235 330 -232 328 -230C224 -152 155 48 155 208L155 292C155 452 224 652 328 730C330 732 332 735 332 738C332 743 327 748 322 748C320 748 318 747 316 746C206 663 101 463 101 292L101 208C101 37 206 -163 316 -246C318 -247 320 -248 322 -248C327 -248 332 -243 332 -238Z" stroke="rgb(0,0,0)" stroke-opacity="1" stroke-width="8" fill="rgb(0,0,0)" fill-opacity="1"></path></g></g><g><g transform="matrix(1,0,0,1,325.19793701171875,158.14667175292968)"><path transform="matrix(0.024480000000000002,0,0,-0.024480000000000002,0,0)" d="M703 400L703 431C681 429 652 428 630 428L537 431L537 400C573 399 595 381 595 352C595 346 595 344 590 331L499 75L400 354C396 366 395 368 395 373C395 400 434 400 454 400L454 431L350 428C320 428 291 429 261 431L261 400C298 400 314 398 324 385C329 379 340 349 347 330L261 88L166 355C161 367 161 369 161 373C161 400 200 400 220 400L220 431L111 428L18 431L18 400C68 400 80 397 92 365L218 11C223 -3 226 -11 239 -11C252 -11 254 -5 259 9L360 292L462 8C466 -3 469 -11 482 -11C495 -11 498 -2 502 8L619 336C637 386 668 399 703 400Z" stroke="rgb(0,0,0)" stroke-opacity="1" stroke-width="24" fill="rgb(0,0,0)" fill-opacity="1"></path></g></g><g><g transform="matrix(1,0,0,1,342.875,158.14667175292968)"><path transform="matrix(0.024480000000000002,0,0,-0.024480000000000002,0,0)" d="M288 208L288 292C288 463 183 663 73 746C71 747 69 748 67 748C62 748 57 743 57 738C57 735 59 732 61 730C165 652 234 452 234 292L234 208C234 48 165 -152 61 -230C59 -232 57 -235 57 -238C57 -243 62 -248 67 -248C69 -248 71 -247 73 -246C183 -163 288 37 288 208Z" stroke="rgb(0,0,0)" stroke-opacity="1" stroke-width="8" fill="rgb(0,0,0)" fill-opacity="1"></path></g></g><g><g transform="matrix(1,0,0,1,359.75,158.14667175292968)"><path transform="matrix(0.024480000000000002,0,0,-0.024480000000000002,0,0)" d="M722 347C722 358 713 367 702 367L76 367C65 367 56 358 56 347C56 336 65 327 76 327L702 327C713 327 722 336 722 347ZM722 153C722 164 713 173 702 173L76 173C65 173 56 164 56 153C56 142 65 133 76 133L702 133C713 133 722 142 722 153Z" stroke="rgb(0,0,0)" stroke-opacity="1" stroke-width="8" fill="rgb(0,0,0)" fill-opacity="1"></path></g></g><g><g transform="matrix(1,0,0,1,386.14581298828125,158.14667175292968)"><path transform="matrix(0.024480000000000002,0,0,-0.024480000000000002,0,0)" d="M430 107C430 113 424 120 418 120C413 120 411 118 405 110C326 11 217 11 205 11C142 11 115 60 115 120C115 161 135 258 169 320C200 377 255 420 310 420C344 420 382 407 396 380C380 380 366 380 352 366C336 351 334 334 334 327C334 303 352 292 371 292C400 292 427 316 427 356C427 405 380 442 309 442C174 442 41 299 41 158C41 68 99 -11 203 -11C346 -11 430 95 430 107Z" stroke="rgb(0,0,0)" stroke-opacity="1" stroke-width="8" fill="rgb(0,0,0)" fill-opacity="1"></path></g></g><g><g><g><g><g transform="matrix(1,0,0,1,397.47918701171875,162.46934350585937)"><path transform="matrix(0.017136,0,0,-0.017136,0,0)" d="M449 174L424 174C419 144 412 100 402 85C395 77 329 77 307 77L127 77L233 180C389 318 449 372 449 472C449 586 359 666 237 666C124 666 50 574 50 485C50 429 100 429 103 429C120 429 155 441 155 482C155 508 137 534 102 534C94 534 92 534 89 533C112 598 166 635 224 635C315 635 358 554 358 472C358 392 308 313 253 251L61 37C50 26 50 24 50 0L421 0Z" stroke="rgb(0,0,0)" stroke-opacity="1" stroke-width="8" fill="rgb(0,0,0)" fill-opacity="1"></path></g></g></g></g></g></g></g></svg>
</svg>
