<svg xmlns="http://www.w3.org/2000/svg" xmlns:xlink="http://www.w3.org/1999/xlink" x="0" y="0" width="861.3333740234375" height="311.66668701171875" style="
        width:861.3333740234375px;
        height:311.66668701171875px;
        background: #FFF;
        fill: none;
">
        <svg xmlns="http://www.w3.org/2000/svg"/>
        
        <svg xmlns="http://www.w3.org/2000/svg" class="role-diagram-draw-area"><g class="shapes-region" style="stroke: black; fill: none;"><g class="arrow-line"><path class="connection real" stroke-dasharray="" d="  M543.33,26.18 L276.33,293.18" style="stroke: rgb(0, 0, 0); stroke-width: 1; fill: none; fill-opacity: 1;"/></g><g class="arrow-line"><path class="connection real" stroke-dasharray="" d="  M256.33,21.18 L552.33,317.18" style="stroke: rgb(0, 0, 0); stroke-width: 1; fill: none; fill-opacity: 1;"/></g><g class="arrow-line"><path class="connection real" stroke-dasharray="" d="  M216.83,167.18 L575.83,167.18" style="stroke: rgb(0, 0, 0); stroke-width: 1; fill: none; fill-opacity: 1;"/></g><g class="composite-shape"><path class="real" d=" M347,208.01 C347,204.6 349.76,201.84 353.17,201.84 C356.57,201.84 359.33,204.6 359.33,208.01 C359.33,211.42 356.57,214.18 353.17,214.18 C349.76,214.18 347,211.42 347,208.01 Z" style="stroke-width: 1; stroke: rgb(0, 0, 0); fill: rgb(74, 144, 226); fill-opacity: 1;"/></g><g class="composite-shape"><path class="real" d=" M350,228.01 C350,224.6 352.76,221.84 356.17,221.84 C359.57,221.84 362.33,224.6 362.33,228.01 C362.33,231.42 359.57,234.18 356.17,234.18 C352.76,234.18 350,231.42 350,228.01 Z" style="stroke-width: 1; stroke: rgb(0, 0, 0); fill: rgb(74, 144, 226); fill-opacity: 1;"/></g><g class="composite-shape"><path class="real" d=" M371,190.01 C371,186.6 373.76,183.84 377.17,183.84 C380.57,183.84 383.33,186.6 383.33,190.01 C383.33,193.42 380.57,196.18 377.17,196.18 C373.76,196.18 371,193.42 371,190.01 Z" style="stroke-width: 1; stroke: rgb(0, 0, 0); fill: rgb(74, 144, 226); fill-opacity: 1;"/></g><g class="composite-shape"><path class="real" d=" M400,184.01 C400,180.6 402.76,177.84 406.17,177.84 C409.57,177.84 412.33,180.6 412.33,184.01 C412.33,187.42 409.57,190.18 406.17,190.18 C402.76,190.18 400,187.42 400,184.01 Z" style="stroke-width: 1; stroke: rgb(0, 0, 0); fill: rgb(74, 144, 226); fill-opacity: 1;"/></g><g class="composite-shape"><path class="real" d=" M315,243.01 C315,239.6 317.76,236.84 321.17,236.84 C324.57,236.84 327.33,239.6 327.33,243.01 C327.33,246.42 324.57,249.18 321.17,249.18 C317.76,249.18 315,246.42 315,243.01 Z" style="stroke-width: 1; stroke: rgb(0, 0, 0); fill: rgb(74, 144, 226); fill-opacity: 1;"/></g><g class="composite-shape"><path class="real" d=" M422,151.01 C422,147.6 424.76,144.84 428.17,144.84 C431.57,144.84 434.33,147.6 434.33,151.01 C434.33,154.42 431.57,157.18 428.17,157.18 C424.76,157.18 422,154.42 422,151.01 Z" style="stroke-width: 1; stroke: rgb(0, 0, 0); fill: rgb(74, 144, 226); fill-opacity: 1;"/></g><g class="composite-shape"><path class="real" d=" M434,122.01 C434,118.6 436.76,115.84 440.17,115.84 C443.57,115.84 446.33,118.6 446.33,122.01 C446.33,125.42 443.57,128.18 440.17,128.18 C436.76,128.18 434,125.42 434,122.01 Z" style="stroke-width: 1; stroke: rgb(0, 0, 0); fill: rgb(74, 144, 226); fill-opacity: 1;"/></g><g class="composite-shape"><path class="real" d=" M458,102.01 C458,98.6 460.76,95.84 464.17,95.84 C467.57,95.84 470.33,98.6 470.33,102.01 C470.33,105.42 467.57,108.18 464.17,108.18 C460.76,108.18 458,105.42 458,102.01 Z" style="stroke-width: 1; stroke: rgb(0, 0, 0); fill: rgb(74, 144, 226); fill-opacity: 1;"/></g><g class="composite-shape"><path class="real" d=" M486,103.01 C486,99.6 488.76,96.84 492.17,96.84 C495.57,96.84 498.33,99.6 498.33,103.01 C498.33,106.42 495.57,109.18 492.17,109.18 C488.76,109.18 486,106.42 486,103.01 Z" style="stroke-width: 1; stroke: rgb(0, 0, 0); fill: rgb(74, 144, 226); fill-opacity: 1;"/></g><g class="arrow-line"><path class="connection real" stroke-dasharray="" d="  M402.33,15.42 L402.33,322.93" style="stroke: rgb(0, 0, 0); stroke-width: 1; fill: none; fill-opacity: 1;"/></g><g/></g><g/><g/><g/></svg>
        <svg xmlns="http://www.w3.org/2000/svg" xmlns:xlink="http://www.w3.org/1999/xlink" width="860" height="310.3333435058594" style="width:860px;height:310.3333435058594px;font-family:ThickerLm-Math, ThickerLm, Asana-Math, Asana;background:#FFF;"><g><g><g><g transform="matrix(1,0,0,1,368.6667022705078,42.66668701171875)"><path transform="matrix(0.025,0,0,-0.025,0,0)" d="M336 -238C336 -233 334 -228 331 -226C229 -149 160 49 160 208L160 292C160 451 229 649 331 726C334 728 336 733 336 738C336 746 330 752 322 752C318 752 315 751 313 750C202 666 96 465 96 292L96 208C96 35 202 -166 313 -250C315 -251 318 -252 322 -252C330 -252 336 -246 336 -238Z" stroke="rgb(0,0,0)" stroke-opacity="1" stroke-width="8" fill="rgb(0,0,0)" fill-opacity="1"></path></g></g><g><g transform="matrix(1,0,0,1,378.3958282470703,42)"><path transform="matrix(0.025,0,0,-0.025,0,0)" d="M419 -4C421 -4 424 -3 424 0L424 31C424 33 422 36 419 36L387 36C297 36 298 45 298 79L298 640C298 665 296 670 271 670C270 670 269 670 268 669C208 607 121 606 89 606C87 606 84 605 84 602L84 571C84 569 86 566 89 566C109 566 163 566 216 590L216 79C216 46 217 36 127 36L95 36C93 36 90 34 90 31L90 0C90 -2 92 -4 95 -4C130 -1 217 -2 257 -2C297 -2 384 -1 419 -4Z" stroke="rgb(0,0,0)" stroke-opacity="1" stroke-width="8" fill="rgb(0,0,0)" fill-opacity="1"></path></g></g><g><g transform="matrix(1,0,0,1,390.8958282470703,42.66668701171875)"><path transform="matrix(0.025,0,0,-0.025,0,0)" d="M292 208L292 292C292 465 187 666 76 750C74 751 71 752 67 752C59 752 52 746 52 738C52 733 55 728 58 726C160 649 230 451 230 292L230 208C230 49 160 -149 58 -226C55 -228 52 -233 52 -238C52 -246 59 -252 67 -252C71 -252 74 -251 76 -250C187 -166 292 35 292 208Z" stroke="rgb(0,0,0)" stroke-opacity="1" stroke-width="8" fill="rgb(0,0,0)" fill-opacity="1"></path></g></g></g></g><g><g><g><g transform="matrix(1,0,0,1,533.6667022705078,58.66668701171875)"><path transform="matrix(0.025,0,0,-0.025,0,0)" d="M336 -238C336 -233 334 -228 331 -226C229 -149 160 49 160 208L160 292C160 451 229 649 331 726C334 728 336 733 336 738C336 746 330 752 322 752C318 752 315 751 313 750C202 666 96 465 96 292L96 208C96 35 202 -166 313 -250C315 -251 318 -252 322 -252C330 -252 336 -246 336 -238Z" stroke="rgb(0,0,0)" stroke-opacity="1" stroke-width="8" fill="rgb(0,0,0)" fill-opacity="1"></path></g></g><g><g transform="matrix(1,0,0,1,543.3958282470703,58)"><path transform="matrix(0.025,0,0,-0.025,0,0)" d="M453 173C453 175 452 178 449 178L424 178C422 178 420 177 420 175C415 145 408 102 399 88C391 83 329 82 307 82L138 81L236 177C392 315 454 370 454 472C454 589 361 670 237 670C121 670 46 576 46 485C46 425 100 424 103 424C121 424 160 438 160 482C160 510 140 538 102 538L96 538C120 597 170 630 224 630C312 630 354 553 354 472C354 394 305 316 250 254L58 40C46 28 46 24 46 0C46 -2 47 -4 50 -4L421 -4C423 -4 425 -3 425 -1Z" stroke="rgb(0,0,0)" stroke-opacity="1" stroke-width="8" fill="rgb(0,0,0)" fill-opacity="1"></path></g></g><g><g transform="matrix(1,0,0,1,555.8958282470703,58.66668701171875)"><path transform="matrix(0.025,0,0,-0.025,0,0)" d="M292 208L292 292C292 465 187 666 76 750C74 751 71 752 67 752C59 752 52 746 52 738C52 733 55 728 58 726C160 649 230 451 230 292L230 208C230 49 160 -149 58 -226C55 -228 52 -233 52 -238C52 -246 59 -252 67 -252C71 -252 74 -251 76 -250C187 -166 292 35 292 208Z" stroke="rgb(0,0,0)" stroke-opacity="1" stroke-width="8" fill="rgb(0,0,0)" fill-opacity="1"></path></g></g></g></g><g><g><g><g transform="matrix(1,0,0,1,558.6667022705078,192.66668701171875)"><path transform="matrix(0.025,0,0,-0.025,0,0)" d="M336 -238C336 -233 334 -228 331 -226C229 -149 160 49 160 208L160 292C160 451 229 649 331 726C334 728 336 733 336 738C336 746 330 752 322 752C318 752 315 751 313 750C202 666 96 465 96 292L96 208C96 35 202 -166 313 -250C315 -251 318 -252 322 -252C330 -252 336 -246 336 -238Z" stroke="rgb(0,0,0)" stroke-opacity="1" stroke-width="8" fill="rgb(0,0,0)" fill-opacity="1"></path></g></g><g><g transform="matrix(1,0,0,1,568.3958282470703,192)"><path transform="matrix(0.025,0,0,-0.025,0,0)" d="M162 348C162 333 175 332 191 332L235 332C313 332 350 268 350 171C350 37 283 10 241 10C201 10 133 26 97 77C129 77 158 99 158 137C158 176 129 198 98 198C72 198 38 182 38 135C38 40 134 -26 244 -26C368 -26 462 66 462 171C462 251 404 327 306 353C381 384 434 451 434 528C434 614 343 670 246 670C144 670 64 609 64 530C64 495 89 474 120 474C153 474 176 498 176 529C176 575 137 582 117 583C149 624 208 636 242 636C281 636 334 616 334 529C334 517 331 460 306 417C277 371 246 368 221 367C213 367 189 364 182 364C174 364 162 361 162 348Z" stroke="rgb(0,0,0)" stroke-opacity="1" stroke-width="8" fill="rgb(0,0,0)" fill-opacity="1"></path></g></g><g><g transform="matrix(1,0,0,1,580.8958282470703,192.66668701171875)"><path transform="matrix(0.025,0,0,-0.025,0,0)" d="M292 208L292 292C292 465 187 666 76 750C74 751 71 752 67 752C59 752 52 746 52 738C52 733 55 728 58 726C160 649 230 451 230 292L230 208C230 49 160 -149 58 -226C55 -228 52 -233 52 -238C52 -246 59 -252 67 -252C71 -252 74 -251 76 -250C187 -166 292 35 292 208Z" stroke="rgb(0,0,0)" stroke-opacity="1" stroke-width="8" fill="rgb(0,0,0)" fill-opacity="1"></path></g></g></g></g><g><g><g><g transform="matrix(1,0,0,1,530.6667022705078,287.66668701171875)"><path transform="matrix(0.025,0,0,-0.025,0,0)" d="M336 -238C336 -233 334 -228 331 -226C229 -149 160 49 160 208L160 292C160 451 229 649 331 726C334 728 336 733 336 738C336 746 330 752 322 752C318 752 315 751 313 750C202 666 96 465 96 292L96 208C96 35 202 -166 313 -250C315 -251 318 -252 322 -252C330 -252 336 -246 336 -238Z" stroke="rgb(0,0,0)" stroke-opacity="1" stroke-width="8" fill="rgb(0,0,0)" fill-opacity="1"></path></g></g><g><g transform="matrix(1,0,0,1,540.3958282470703,287)"><path transform="matrix(0.025,0,0,-0.025,0,0)" d="M296 200L64 200L296 554ZM471 160C473 160 476 162 476 165L476 196C476 198 474 200 471 200L376 200L376 651C376 670 374 682 355 682C345 682 339 680 331 667L24 198L24 196L24 165C24 163 25 160 28 160L290 160L290 78C290 44 291 36 218 36L197 36C195 36 192 34 192 31L192 0C192 -3 194 -4 197 -4C238 -1 290 -2 332 -2C374 -2 427 -1 468 -4C471 -4 472 -3 472 0L472 31C472 33 471 36 468 36L447 36C374 36 376 44 376 78L376 160Z" stroke="rgb(0,0,0)" stroke-opacity="1" stroke-width="8" fill="rgb(0,0,0)" fill-opacity="1"></path></g></g><g><g transform="matrix(1,0,0,1,552.8958282470703,287.66668701171875)"><path transform="matrix(0.025,0,0,-0.025,0,0)" d="M292 208L292 292C292 465 187 666 76 750C74 751 71 752 67 752C59 752 52 746 52 738C52 733 55 728 58 726C160 649 230 451 230 292L230 208C230 49 160 -149 58 -226C55 -228 52 -233 52 -238C52 -246 59 -252 67 -252C71 -252 74 -251 76 -250C187 -166 292 35 292 208Z" stroke="rgb(0,0,0)" stroke-opacity="1" stroke-width="8" fill="rgb(0,0,0)" fill-opacity="1"></path></g></g></g></g></svg>
</svg>
